<?xml version="1.0" encoding="utf-8"?>
<!-- Generator: Adobe Illustrator 19.2.1, SVG Export Plug-In . SVG Version: 6.00 Build 0)  -->
<svg version="1.1" id="Layer_1" xmlns="http://www.w3.org/2000/svg" xmlns:xlink="http://www.w3.org/1999/xlink" x="0px" y="0px"
	 viewBox="0 0 16 16" style="enable-background:new 0 0 16 16;" xml:space="preserve">
<style type="text/css">
	.st0{fill:#FFFFFF;}
</style>
<path class="st0" d="M8,0C3.6,0,0,3.6,0,8c0,4.4,3.6,8,8,8c4.4,0,8-3.6,8-8C16,3.6,12.4,0,8,0z M10.2,4.9c0,0-0.8,0-1.1,0
	C8.8,4.9,8.7,5,8.7,5.4c0,0.3,0,0.9,0,0.9h1.5L10.1,8H8.7v4.9H6.8V8h-1V6.3h1c0,0,0-0.2,0-1.3c0-1.2,0.7-1.9,2.1-1.9
	c0.2,0,1.3,0,1.3,0V4.9z"/>
</svg>
