<?xml version="1.0" standalone="no"?>
<!DOCTYPE svg PUBLIC "-//W3C//DTD SVG 20010904//EN"
 "http://www.w3.org/TR/2001/REC-SVG-20010904/DTD/svg10.dtd">
<svg version="1.0" xmlns="http://www.w3.org/2000/svg"
 width="96.000000pt" height="96.000000pt" viewBox="0 0 96.000000 96.000000"
 preserveAspectRatio="xMidYMid meet">
<metadata>
Created by potrace 1.16, written by Peter Selinger 2001-2019
</metadata>
<g transform="translate(0.000000,96.000000) scale(0.100000,-0.100000)"
fill="#000000" stroke="none">
<path d="M341 944 c-130 -35 -235 -123 -298 -250 l-38 -78 0 -136 0 -136 38
-78 c51 -101 122 -172 223 -223 l78 -38 136 0 136 0 78 38 c101 51 172 122
223 223 38 78 38 78 38 204 l0 127 -42 85 c-88 177 -253 279 -448 277 -38 0
-94 -7 -124 -15z m272 -24 c134 -42 248 -147 298 -278 31 -80 37 -204 14 -288
-60 -222 -293 -374 -518 -336 -202 34 -356 188 -388 390 -37 228 113 456 341
518 70 20 179 17 253 -6z"/>
<path d="M557 899 c-10 -6 -22 -22 -27 -35 -7 -18 -17 -24 -40 -24 -32 0 -37
8 -17 29 10 11 9 13 -6 7 -10 -3 -27 -6 -38 -6 -13 0 -17 -5 -12 -16 4 -12 1
-15 -13 -12 -11 2 -20 13 -22 26 -4 29 -20 29 -24 0 -2 -19 -11 -24 -48 -28
-35 -4 -40 -7 -22 -12 25 -7 28 -26 8 -53 -14 -19 -15 -19 -35 -1 -24 22 -29
5 -5 -18 20 -21 23 -20 50 5 26 25 54 19 54 -11 0 -11 5 -20 10 -20 6 0 10 23
10 50 0 28 5 50 10 50 6 0 10 -7 10 -16 0 -12 6 -15 25 -10 18 5 25 2 25 -9 0
-9 -9 -15 -25 -15 -36 0 -31 -13 16 -39 26 -15 49 -21 64 -17 20 5 24 13 28
54 l3 47 2 -47 c3 -64 22 -62 22 2 l0 50 40 0 c22 0 40 -2 40 -5 0 -3 -16 -11
-35 -19 -26 -11 -35 -21 -35 -39 0 -28 16 -37 66 -37 l34 0 0 49 c0 43 3 50
23 54 l22 4 -23 2 c-14 0 -26 10 -32 26 -14 38 -67 55 -103 34z"/>
<path d="M406 549 c-14 -17 -26 -39 -26 -50 0 -37 29 -77 63 -88 63 -21 117
20 117 89 0 50 -33 80 -87 80 -34 0 -46 -6 -67 -31z m124 1 c21 -21 26 -69 10
-99 -14 -28 -61 -44 -93 -32 -58 22 -73 102 -24 136 31 21 83 19 107 -5z"/>
<path d="M628 522 c-17 -10 -28 -26 -28 -38 0 -31 -99 -114 -132 -110 -39 4
-130 84 -123 107 4 13 -2 22 -24 33 -17 9 -32 16 -35 16 -3 0 -31 -50 -62
-111 -58 -117 -58 -113 -11 -140 23 -13 17 -19 63 66 20 39 39 72 41 74 6 7
113 -102 108 -109 -3 -4 4 -15 14 -24 26 -23 64 -17 71 11 4 20 104 113 120
113 3 0 22 -34 43 -75 l37 -75 40 20 40 20 -60 120 c-33 66 -63 120 -68 119
-4 0 -19 -8 -34 -17z"/>
</g>
</svg>
