<svg id="GeoRurban" xmlns="http://www.w3.org/2000/svg" xmlns:xlink="http://www.w3.org/1999/xlink" viewBox="0 0 162 54"><defs><style>.cls-1{fill:#ffc000;}.cls-2{fill:#594711;}.cls-3{fill:#ff602e;}.cls-12,.cls-4{fill:#fff;}.cls-5{fill:#a6a6a6;}.cls-6{fill:url(#linear-gradient);}.cls-7{fill:url(#linear-gradient-2);}.cls-8{fill:url(#linear-gradient-3);}.cls-9{fill:url(#linear-gradient-4);}.cls-10{opacity:0.2;}.cls-10,.cls-11,.cls-12{isolation:isolate;}.cls-11{opacity:0.12;}.cls-12{opacity:0.25;}</style><linearGradient id="linear-gradient" x1="4.59" y1="14.29" x2="3.86" y2="15.01" gradientTransform="translate(-17.52 -239.61) scale(18.52)" gradientUnits="userSpaceOnUse"><stop offset="0" stop-color="#00a0ff"/><stop offset="0.01" stop-color="#00a1ff"/><stop offset="0.26" stop-color="#00beff"/><stop offset="0.51" stop-color="#00d2ff"/><stop offset="0.76" stop-color="#00dfff"/><stop offset="1" stop-color="#00e3ff"/></linearGradient><linearGradient id="linear-gradient-2" x1="5.11" y1="14.78" x2="4.06" y2="14.78" gradientTransform="translate(-17.52 -239.61) scale(18.52)" gradientUnits="userSpaceOnUse"><stop offset="0" stop-color="#ffe000"/><stop offset="0.41" stop-color="#ffbd00"/><stop offset="0.78" stop-color="orange"/><stop offset="1" stop-color="#ff9c00"/></linearGradient><linearGradient id="linear-gradient-3" x1="4.72" y1="14.87" x2="3.73" y2="15.86" gradientTransform="translate(-17.52 -239.61) scale(18.52)" gradientUnits="userSpaceOnUse"><stop offset="0" stop-color="#ff3a44"/><stop offset="1" stop-color="#c31162"/></linearGradient><linearGradient id="linear-gradient-4" x1="3.96" y1="13.92" x2="4.4" y2="14.36" gradientTransform="translate(-17.52 -239.61) scale(18.52)" gradientUnits="userSpaceOnUse"><stop offset="0" stop-color="#32a071"/><stop offset="0.07" stop-color="#2da771"/><stop offset="0.48" stop-color="#15cf74"/><stop offset="0.8" stop-color="#06e775"/><stop offset="1" stop-color="#00f076"/></linearGradient></defs><title>Artboard 1</title><g id="Background"><path class="cls-1" d="M161,6.75v40.5c0,3.1-2.28,5.67-5,5.67H6c-2.76,0-5-2.57-5-5.67V6.75c0-3.1,2.28-5.67,5-5.67H156C158.76,1.08,161,3.65,161,6.75Z"/><path class="cls-2" d="M156,0H6C2.64,0,0,3.1,0,6.75v40.5C0,51,2.64,54,6,54H156c3.36,0,6-3,6-6.75V6.75C162,3.1,159.36,0,156,0Zm5,47.25c0,3.1-2.28,5.67-5,5.67H6c-2.76,0-5-2.57-5-5.67V6.75c0-3.1,2.28-5.67,5-5.67H156c2.76,0,5,2.57,5,5.67Z"/></g><circle class="cls-3" cx="26" cy="27" r="22.5"/><g id="Logo"><path class="cls-4" d="M37.65,22.84a.17.17,0,0,0-.15,0h0l-.31.1L37,23c-.29.12-.59.24-.88.38a5.11,5.11,0,0,0-1.75,1.27,2.81,2.81,0,0,0-.75,1.95v2.26c0,1.29,0,2.63,0,3.95a4.51,4.51,0,0,1-.33,1.75,2.9,2.9,0,0,1-1.57,1.58,3.73,3.73,0,0,1-4.08-.76A3.66,3.66,0,0,1,27,34.09c-.05-.16-.1-.33-.14-.5s-.09-.35-.15-.52a14.59,14.59,0,0,0-.55-1.38c-.21-.47-.45-.93-.71-1.39a4.53,4.53,0,0,0-1.36-1.51A3,3,0,0,0,23,28.28a1.91,1.91,0,0,1-.34-.1l-.13,0,.08,0,.23-.06.11,0a.47.47,0,0,0,.17,0l.58-.18.38-.12a4.35,4.35,0,0,0,1.56-.85,5.44,5.44,0,0,0,.76-.78,3.49,3.49,0,0,0,.7-1.57l0-.17a7.23,7.23,0,0,0,.15-1.15A6.06,6.06,0,0,0,27,20.9a4.25,4.25,0,0,0-1-1.62,4.71,4.71,0,0,0-1.45-1,8.39,8.39,0,0,0-2-.64,7.2,7.2,0,0,0-1-.15L21,17.46c-.61-.06-1.25-.13-1.87-.14-1,0-1.94,0-2.89,0H10.37c-.15,0-.25,0-.31,0a.39.39,0,0,0-.07.31.22.22,0,0,0,.21.25,4.15,4.15,0,0,1,.53.1,1.58,1.58,0,0,1,.89.61,2.35,2.35,0,0,1,.43,1.15,13.67,13.67,0,0,1,.06,1.37V33.69a1.93,1.93,0,0,1,0,.24c0,.12,0,.25,0,.37a5,5,0,0,1-.18,1.5,2.47,2.47,0,0,1-.56,1,1.75,1.75,0,0,1-1.13.54c-.23,0-.27.13-.24.41s.08.21.29.21h8.06s.21,0,.23-.09a.89.89,0,0,0,0-.4c0-.07-.17-.13-.24-.14a1.72,1.72,0,0,1-1.13-.57,3.08,3.08,0,0,1-.76-2.07c0-1,0-1.93,0-2.87,0-.41,0-.81,0-1.21V28.8c0-.18,0-.2.2-.2h.9a3.68,3.68,0,0,1,1,.12,4.13,4.13,0,0,1,1.24.57A4,4,0,0,1,21.13,31c.1.22.17.46.25.69a1.72,1.72,0,0,0,.07.21c.14.43.25.75.34,1.07s.11.37.16.55.15.49.22.74.28.83.45,1.28l.08.21a13.62,13.62,0,0,0,.59,1.36,5.62,5.62,0,0,0,1.16,1.51,6.8,6.8,0,0,0,1.66,1.13,7.83,7.83,0,0,0,1.89.6,12.35,12.35,0,0,0,1.78.16h.42a7.84,7.84,0,0,0,2.06-.23l.2-.06c.38-.1.77-.21,1.15-.35a5.79,5.79,0,0,0,1.54-.92,6.27,6.27,0,0,0,1.48-1.73,7.72,7.72,0,0,0,.49-1,9.56,9.56,0,0,0,.33-1,4.32,4.32,0,0,0,.13-.74l0-.36c0-.44.09-.9.09-1.35,0-2.36,0-4.75,0-7.07V23A.2.2,0,0,0,37.65,22.84ZM16.57,28.06c-.07,0-.12,0-.15,0s0-.11,0-.21V18.09c0-.11,0-.18.05-.22s.1,0,.18,0c.76,0,1.55,0,2.34.05a4.63,4.63,0,0,1,.62.06,3,3,0,0,1,2.28,1.59,6.42,6.42,0,0,1,.5,1.72,11.12,11.12,0,0,1,.09,2.37v.28a5.6,5.6,0,0,1-.29,1.65,5.35,5.35,0,0,1-.44,1.05,2.37,2.37,0,0,1-1,.92,4.14,4.14,0,0,1-1.88.49c-.44,0-.88,0-1.31,0l-.94,0Z"/><path class="cls-4" d="M26.05,41.53l0,0-.08.06a.57.57,0,0,1-.18.12c-.39.16-.81.33-1.25.48-.27.1-.55.19-.82.27l-.36.11a11.22,11.22,0,0,1-2.95.41,10.37,10.37,0,0,1-2.87-.41l-.35-.12-.76-.28a10,10,0,0,1-1.73-.87,9.49,9.49,0,0,1-1.46-1.08c-.18-.16-.36-.32-.53-.49l-.09-.08-.76-.73a.1.1,0,0,0-.05,0c-.08-.08-.19-.17-.12-.32s.19-.12.29-.12h1a.48.48,0,0,1,.38.16,9.59,9.59,0,0,0,2.58,1.86,8.44,8.44,0,0,0,1.67.67l.55.15,1.1.29a7,7,0,0,0,.92.13h.07a14.81,14.81,0,0,0,2.61.09c.62,0,1.24-.1,1.84-.17h.11c.26,0,.52-.08.77-.12l.38-.07a.24.24,0,0,1,.13,0Z"/><path class="cls-4" d="M41.11,23.5a6.06,6.06,0,0,1-.09.73,2.87,2.87,0,0,0-.05.31.36.36,0,0,1,0,.09s0,0,0,0v0h-.1v0s0-.07,0-.11l0-.23c0-.21,0-.42,0-.63,0-.44-.06-.9-.11-1.34a11.86,11.86,0,0,0-.3-1.42c-.11-.45-.24-.89-.38-1.31a10.66,10.66,0,0,0-.43-1c-.14-.3-.3-.63-.49-.95a11.84,11.84,0,0,0-.66-1,13.73,13.73,0,0,0-.9-1.07,7.44,7.44,0,0,0-.87-.8c-.3-.24-.62-.47-.94-.68l-.23-.17a8.61,8.61,0,0,0-1.8-.93,15.23,15.23,0,0,0-1.56-.55,12.5,12.5,0,0,0-4.8-.4l-.34,0c-.27,0-.54.06-.81.11s-.73.16-1.16.28-.9.26-1.35.43-1,.39-1.37.6-1.11.59-1.81,1c-.23.13-.45.29-.66.43l-.31.22-.12.07-.06,0,0,0-.08-.08,0,0,.09-.1a1.9,1.9,0,0,1,.19-.21l.17-.13c.38-.3.77-.61,1.17-.89s.93-.61,1.36-.85.91-.47,1.37-.68l.21-.1c.34-.16.61-.27.86-.36.51-.17.92-.29,1.32-.39h0a10.9,10.9,0,0,1,1.51-.3A10,10,0,0,1,30,11.05l.62.08c.3,0,.61.07.91.12a9.74,9.74,0,0,1,1.85.51l.36.14c.23.08.47.17.69.27a13.51,13.51,0,0,1,1.37.72A14.65,14.65,0,0,1,37.43,14a9.66,9.66,0,0,1,1.68,1.8,10.28,10.28,0,0,1,1.14,2,11.67,11.67,0,0,1,.41,1.22c.13.46.24.91.32,1.35A13.39,13.39,0,0,1,41.11,23.5Z"/><path class="cls-4" d="M11.24,35.82a1.32,1.32,0,0,1-.78.69h-.09a.19.19,0,0,1-.19-.11l-.06-.11c-.12-.24-.25-.48-.35-.74a7.65,7.65,0,0,1-.3-.88c-.1-.36-.21-.75-.29-1.14A11.39,11.39,0,0,1,9,32.28c-.05-.39-.08-.81-.1-1.27A16.17,16.17,0,0,1,9,28.56c.06-.44.12-.95.23-1.45s.21-.89.33-1.33c.05-.17.09-.34.13-.51a.43.43,0,0,1,0-.07l0,0h.1v0a.44.44,0,0,0,0,.1.75.75,0,0,1,0,.21c0,.22,0,.43,0,.64l0,.77c0,.46,0,1,0,1.54s0,.83.07,1.23v.1l0,.49c0,.46.06.95.13,1.42a20.2,20.2,0,0,0,.41,2,8.25,8.25,0,0,0,.38,1.21,2.3,2.3,0,0,0,.23.4l.15.26A.33.33,0,0,1,11.24,35.82Z"/><path class="cls-4" d="M33.86,21.91l0,0h0a1,1,0,0,1,.07-.15,1.78,1.78,0,0,1,.17-.3,4.84,4.84,0,0,1,1.17-1.26,2.89,2.89,0,0,1,1.2-.54,8.12,8.12,0,0,1,.85-.07h0a.23.23,0,0,1,.12.06l.06,0h0v0a.08.08,0,0,0,0,0,.48.48,0,0,1-.11.09l-.54.21-.47.19A4.57,4.57,0,0,0,35,21l-.76.65-.3.25,0,0h0Z"/><path class="cls-4" d="M33.86,23.11l0,0h0a.91.91,0,0,1,.07-.14,1.87,1.87,0,0,1,.17-.31,4.84,4.84,0,0,1,1.17-1.26,2.86,2.86,0,0,1,1.2-.53,8.14,8.14,0,0,1,.85-.08h0a.21.21,0,0,1,.12.05l.06,0h0s0,0,0,0a.31.31,0,0,1-.11.09l-.54.22-.47.19a4.36,4.36,0,0,0-1.34.79l-.76.64-.3.25,0,0h0Z"/><path class="cls-4" d="M37.64,22l0,0-.07,0-.08.06-.28.13-.8.34-.27.12-.28.15a4.29,4.29,0,0,0-.58.37l-.06,0c-.13.09-.25.19-.38.3l-.49.43-.46.4a.23.23,0,0,1-.1,0l0,0h0v-.07a.17.17,0,0,1,0-.12,4.13,4.13,0,0,1,1.22-1.57,3.06,3.06,0,0,1,.79-.46h0l.27-.1.21-.07a1.66,1.66,0,0,1,.38-.11,5,5,0,0,1,.77-.07h.05s.08,0,.12,0l.07.05Z"/><path class="cls-4" d="M27,16a.49.49,0,0,1,.48-.48.48.48,0,0,1,0,1A.49.49,0,0,1,27,16Z"/><path class="cls-4" d="M29.36,19.17a.6.6,0,1,1-.6-.6A.6.6,0,0,1,29.36,19.17Z"/><path class="cls-4" d="M28.32,16a.7.7,0,1,1,.69.7A.7.7,0,0,1,28.32,16Z"/><path class="cls-4" d="M34.85,15.56a.7.7,0,0,1-.7.69.71.71,0,0,1-.58-.3l-.88.3a1.09,1.09,0,0,1,0,.26,1.29,1.29,0,0,1-1.11,1.28v1.36a.94.94,0,0,1,.86.94.95.95,0,0,1-1.9,0,.94.94,0,0,1,.85-.94V17.81A1.32,1.32,0,0,1,30.21,17l-1.67.52a1.09,1.09,0,0,1,0,.26,1.15,1.15,0,1,1-.09-.44l1.68-.53a.92.92,0,0,1,0-.29,1.28,1.28,0,0,1,.41-.94L29.9,15a1.15,1.15,0,1,1,.51-1,1.16,1.16,0,0,1-.36.84l.63.58a1.26,1.26,0,0,1,.74-.24,1.29,1.29,0,0,1,1.22.85l.85-.28a.54.54,0,0,1,0-.22.7.7,0,0,1,1.4,0Z"/><path class="cls-4" d="M30.41,19.14a.61.61,0,1,1,.6-.6A.6.6,0,0,1,30.41,19.14Z"/><circle class="cls-4" cx="31.93" cy="14.29" r="0.73"/><path class="cls-4" d="M33.86,17.27a.54.54,0,1,1-.53-.54A.54.54,0,0,1,33.86,17.27Z"/><path class="cls-4" d="M33,18.66a.32.32,0,0,1-.32.32.32.32,0,1,1,0-.63A.31.31,0,0,1,33,18.66Z"/></g><path d="M154,50H54a4,4,0,0,1-4-4V22a4,4,0,0,1,4-4H154a4,4,0,0,1,4,4V46A4,4,0,0,1,154,50Z"/><path class="cls-5" d="M154,18.64A3.38,3.38,0,0,1,157.36,22V46A3.38,3.38,0,0,1,154,49.36H54A3.38,3.38,0,0,1,50.64,46V22A3.38,3.38,0,0,1,54,18.64H154m0-.64H54a4,4,0,0,0-4,4V46a4,4,0,0,0,4,4H154a4,4,0,0,0,4-4V22A4,4,0,0,0,154,18Z"/><polygon class="cls-4" points="114.24 23.52 114.24 28.48 113.48 28.48 111.12 24.76 111.12 28.48 110.4 28.48 110.4 23.52 111.25 23.52 111.27 23.56 113.44 27.08 113.44 23.52 114.24 23.52"/><path class="cls-4" d="M88,25.76v.4a2.3,2.3,0,0,1-.58,1.66,2.57,2.57,0,1,1-1.82-4.38,2.18,2.18,0,0,1,1,.25,1.86,1.86,0,0,1,.75.59l0,0-.51.51-.05-.07a1.41,1.41,0,0,0-1.22-.53,1.53,1.53,0,0,0-1.22.53h0a1.86,1.86,0,0,0,0,2.6,2,2,0,0,0,1.23.54,1.68,1.68,0,0,0,1.3-.54,1.23,1.23,0,0,0,.38-.82H85.52v-.8Z"/><polygon class="cls-4" points="89.52 24.24 89.52 25.6 91.52 25.6 91.52 26.32 89.52 26.32 89.52 27.68 91.68 27.68 91.68 28.48 88.72 28.48 88.72 23.52 91.68 23.52 91.68 24.24 89.52 24.24"/><polygon class="cls-4" points="95.68 23.52 95.68 24.24 94.32 24.24 94.32 28.48 93.52 28.48 93.52 24.24 92.16 24.24 92.16 23.52 95.68 23.52"/><rect class="cls-4" x="97.84" y="23.52" width="0.8" height="4.96"/><polygon class="cls-4" points="102.64 23.52 102.64 24.24 101.28 24.24 101.28 28.48 100.56 28.48 100.56 24.24 99.2 24.24 99.2 23.52 102.64 23.52"/><path class="cls-4" d="M108.94,24.18a2.57,2.57,0,1,0-1.82,4.38,2.44,2.44,0,0,0,1.82-.74,2.61,2.61,0,0,0,0-3.64Zm-.6,3.13a1.53,1.53,0,0,1-1.22.53,1.82,1.82,0,0,1-1.22-.54h0a1.58,1.58,0,0,1-.53-1.3,1.85,1.85,0,0,1,.54-1.3h0a1.53,1.53,0,0,1,1.22-.53,1.82,1.82,0,0,1,1.22.54h0a1.58,1.58,0,0,1,.53,1.3,1.85,1.85,0,0,1-.54,1.3Z"/><path class="cls-4" d="M104.48,35.44A3.37,3.37,0,0,0,101,38.88a3.41,3.41,0,0,0,3.44,3.44,3.37,3.37,0,0,0,3.44-3.44A3.32,3.32,0,0,0,104.48,35.44Zm0,5.44a2.09,2.09,0,0,1,0-4.16,1.94,1.94,0,0,1,1.92,2.08A2,2,0,0,1,104.48,40.88ZM97,35.44a3.37,3.37,0,0,0-3.44,3.44A3.41,3.41,0,0,0,97,42.32a3.37,3.37,0,0,0,3.44-3.44A3.32,3.32,0,0,0,97,35.44Zm0,5.44a2.09,2.09,0,0,1,0-4.16A1.94,1.94,0,0,1,99,38.8,2,2,0,0,1,97,40.88Zm-8.88-4.4v1.44H91.6a3,3,0,0,1-.8,1.84,3.54,3.54,0,0,1-2.64,1A3.72,3.72,0,0,1,84.4,37a3.77,3.77,0,0,1,3.76-3.84,4,4,0,0,1,2.64,1l1-1a5.13,5.13,0,0,0-3.6-1.44,5.28,5.28,0,1,0,0,10.56,4.6,4.6,0,0,0,3.68-1.52,4.82,4.82,0,0,0,1.28-3.36,3,3,0,0,0-.08-.88Zm36.32,1.12a3.11,3.11,0,0,0-2.88-2.16,3.22,3.22,0,0,0-3.2,3.44,3.35,3.35,0,0,0,3.36,3.44,3.28,3.28,0,0,0,2.8-1.52l-1.12-.8a2,2,0,0,1-1.68,1,1.74,1.74,0,0,1-1.68-1L124.64,38l-.16-.4Zm-4.64,1.12a1.94,1.94,0,0,1,1.76-2,1.42,1.42,0,0,1,1.28.72l-3,1.28ZM116.08,42h1.52V32h-1.52Zm-2.4-5.84a2.63,2.63,0,0,0-1.84-.8,3.44,3.44,0,0,0-3.28,3.44,3.31,3.31,0,0,0,3.28,3.36,2.3,2.3,0,0,0,1.76-.8h.08v.48a1.82,1.82,0,0,1-3.52.8l-1.28.56a3.3,3.3,0,0,0,3,2c1.76,0,3.2-1,3.2-3.52V35.6h-1.44v.56Zm-1.76,4.72a2.09,2.09,0,0,1,0-4.16,2.1,2.1,0,0,1,0,4.16ZM131.44,32h-3.6V42h1.52V38.24h2.08a3.12,3.12,0,1,0,0-6.24Zm.08,4.8h-2.16V33.36h2.16A1.76,1.76,0,0,1,133.28,35a1.83,1.83,0,0,1-1.76,1.76Zm9.2-1.44a2.69,2.69,0,0,0-2.64,1.52l1.36.56a1.41,1.41,0,0,1,1.36-.72A1.5,1.5,0,0,1,142.4,38v.08a3.17,3.17,0,0,0-1.52-.4c-1.44,0-2.88.8-2.88,2.24a2.34,2.34,0,0,0,2.48,2.24,2.25,2.25,0,0,0,1.92-1h.08V42h1.44V38.16a3,3,0,0,0-3.2-2.8Zm-.16,5.52c-.48,0-1.2-.24-1.2-.88,0-.8.88-1,1.6-1a3.09,3.09,0,0,1,1.36.32A1.86,1.86,0,0,1,140.56,40.88ZM149,35.6l-1.68,4.32h-.08l-1.76-4.32h-1.6l2.64,6.08L145,45h1.52l4.08-9.44ZM135.52,42H137V32h-1.52Z"/><path class="cls-6" d="M58.32,24A1.56,1.56,0,0,0,58,25.12V42.8a1.58,1.58,0,0,0,.4,1.12l.08.08,9.92-9.92v-.16Z"/><path class="cls-7" d="M71.6,37.44l-3.28-3.28v-.24l3.28-3.28.08.08L75.6,33a1.22,1.22,0,0,1,0,2.32Z"/><path class="cls-8" d="M71.68,37.36,68.32,34l-10,10c.4.4,1,.4,1.68.08l11.68-6.72"/><path class="cls-9" d="M71.68,30.64,60,24a1.3,1.3,0,0,0-1.68.08l10,9.92,3.36-3.36Z"/><path class="cls-10" d="M71.6,37.28,60,43.84a1.31,1.31,0,0,1-1.6,0l-.08.08.08.08A1.31,1.31,0,0,0,60,44Z"/><path class="cls-11" d="M58.32,43.84A1.56,1.56,0,0,1,58,42.72v.08a1.58,1.58,0,0,0,.4,1.12v-.08ZM75.6,35l-4,2.24.08.08,3.92-2.24A1.33,1.33,0,0,0,76.4,34C76.4,34.4,76.08,34.72,75.6,35Z"/><path class="cls-12" d="M60,24.08,75.6,33c.48.32.8.64.8,1a1.33,1.33,0,0,0-.8-1.12L60,24c-1.12-.64-2-.16-2,1.12v.08C58,24,58.88,23.44,60,24.08Z"/><path d="M58.56,14.28a9.16,9.16,0,0,1-3,.54,5.11,5.11,0,0,1-3.7-1.26,4.71,4.71,0,0,1-1.32-3.48c0-3,2.13-4.9,5.26-4.9a6.21,6.21,0,0,1,2.5.45L57.89,7a5.19,5.19,0,0,0-2.15-.4A3.16,3.16,0,0,0,52.31,10a3.13,3.13,0,0,0,3.28,3.42,3.28,3.28,0,0,0,1.3-.2V10.87H55.22V9.51h3.34Z"/><path d="M61.55,11.79a1.86,1.86,0,0,0,2.1,1.77,5.25,5.25,0,0,0,1.89-.31l.25,1.19a6.35,6.35,0,0,1-2.38.42,3.23,3.23,0,0,1-3.51-3.45,3.38,3.38,0,0,1,3.33-3.67c2.21,0,2.94,1.82,2.94,3.32a4.18,4.18,0,0,1,0,.73Zm3-1.2a1.47,1.47,0,0,0-1.42-1.67,1.69,1.69,0,0,0-1.58,1.67Z"/><path d="M74,11.24a3.38,3.38,0,0,1-3.5,3.63,3.3,3.3,0,0,1-3.42-3.51,3.37,3.37,0,0,1,3.53-3.62A3.27,3.27,0,0,1,74,11.24Zm-5.14.07c0,1.32.65,2.32,1.7,2.32s1.66-1,1.66-2.34c0-1.07-.47-2.29-1.65-2.29S68.9,10.18,68.9,11.31Z"/><path d="M78.42,5.4A16.66,16.66,0,0,1,81,5.21,4.39,4.39,0,0,1,83.94,6a2.4,2.4,0,0,1,.81,1.89A2.52,2.52,0,0,1,83,10.22v0a2.43,2.43,0,0,1,1.32,1.82,19.51,19.51,0,0,0,.74,2.64H83.32a13.72,13.72,0,0,1-.63-2.23c-.26-1.23-.71-1.62-1.69-1.65h-.87v3.88H78.42Zm1.71,4.18h1C82.31,9.58,83,9,83,8s-.73-1.51-1.85-1.51a5.2,5.2,0,0,0-1.06.08Z"/><path d="M92.42,12.67c0,.82,0,1.49.06,2.05H91l-.09-1h0a2.45,2.45,0,0,1-2.18,1.19c-1.25,0-2.38-.74-2.38-3v-4H88v3.71c0,1.13.37,1.86,1.28,1.86a1.45,1.45,0,0,0,1.31-.92,1.53,1.53,0,0,0,.1-.54V7.9h1.72Z"/><path d="M94.28,10.1c0-.93,0-1.59-.06-2.2h1.5l.06,1.3h.06A2,2,0,0,1,97.7,7.74a2.59,2.59,0,0,1,.41,0V9.41a2.38,2.38,0,0,0-.51-.06,1.52,1.52,0,0,0-1.54,1.31,2.67,2.67,0,0,0-.06.53v3.53H94.28Z"/><path d="M99.21,14.72c0-.46.06-1.22.06-1.92v-8H101V8.83h0a2.48,2.48,0,0,1,2.18-1.09c1.67,0,2.86,1.39,2.84,3.46,0,2.45-1.55,3.67-3.09,3.67a2.35,2.35,0,0,1-2.16-1.17h0l-.08,1ZM101,11.9a1.84,1.84,0,0,0,0,.41,1.58,1.58,0,0,0,1.53,1.2c1.08,0,1.73-.86,1.73-2.24,0-1.2-.57-2.18-1.72-2.18A1.62,1.62,0,0,0,101,10.35a2.68,2.68,0,0,0-.05.45Z"/><path d="M111.29,14.72l-.11-.76h0a2.55,2.55,0,0,1-2,.91,2,2,0,0,1-2.14-2c0-1.72,1.52-2.59,4-2.58v-.11c0-.45-.19-1.19-1.39-1.19a3.61,3.61,0,0,0-1.84.51l-.33-1.13a5,5,0,0,1,2.46-.6,2.55,2.55,0,0,1,2.82,2.87v2.47a10.9,10.9,0,0,0,.1,1.64Zm-.22-3.34c-1.22,0-2.38.24-2.38,1.28a.9.9,0,0,0,1,1A1.39,1.39,0,0,0,111,12.7a1.26,1.26,0,0,0,.06-.38Z"/><path d="M114.57,9.93c0-.79,0-1.45-.06-2H116l.09,1h0a2.46,2.46,0,0,1,2.17-1.18c1.19,0,2.42.77,2.42,2.93v4.05H119V10.87c0-1-.36-1.73-1.3-1.73a1.46,1.46,0,0,0-1.35,1,2,2,0,0,0-.07.56v4h-1.73Z"/></svg>