<?xml version="1.0" encoding="utf-8"?>
<!-- Generator: Adobe Illustrator 24.0.0, SVG Export Plug-In . SVG Version: 6.00 Build 0)  -->
<svg version="1.1" id="Layer_1" xmlns="http://www.w3.org/2000/svg" xmlns:xlink="http://www.w3.org/1999/xlink" x="0px" y="0px"
	 viewBox="0 0 108 32" style="enable-background:new 0 0 108 32;" xml:space="preserve">
<style type="text/css">
	.st0{fill:#A7A6A6;}
	.st1{fill:#010101;}
	.st2{fill:#FFFFFF;}
	.st3{fill:url(#SVGID_1_);}
	.st4{fill:url(#SVGID_2_);}
	.st5{fill:url(#SVGID_3_);}
	.st6{fill:url(#SVGID_4_);}
	.st7{opacity:0.2;fill:#010101;enable-background:new    ;}
	.st8{opacity:0.12;fill:#010101;enable-background:new    ;}
	.st9{opacity:0.25;fill:#FFFFFF;enable-background:new    ;}
</style>
<g>
	<path class="st0" d="M104.2,32H3.8C1.7,32,0,30.3,0,28.2V3.8C0,1.7,1.7,0,3.8,0h100.4c2.1,0,3.8,1.7,3.8,3.8v24.4
		C108,30.3,106.2,32,104.2,32L104.2,32z"/>
	<path class="st1" d="M107.2,28.2c0,1.7-1.4,3.1-3.1,3.1H3.8c-1.7,0-3.1-1.4-3.1-3.1V3.8c0-1.7,1.4-3.1,3.1-3.1h100.4
		c1.7,0,3.1,1.4,3.1,3.1L107.2,28.2L107.2,28.2z"/>
	<g>
		<polygon class="st2" points="64.2,5.5 64.2,10.5 63.5,10.5 61.1,6.8 61.1,10.5 60.4,10.5 60.4,5.5 61.2,5.5 61.3,5.6 63.4,9.1 
			63.4,5.5 		"/>
		<path class="st2" d="M38,7.8v0.4c0,0.7-0.2,1.3-0.6,1.7c-0.5,0.5-1.1,0.7-1.8,0.7c-0.7,0-1.3-0.2-1.8-0.7C33.3,9.3,33,8.7,33,8
			c0-0.7,0.2-1.3,0.7-1.8c0.5-0.5,1.1-0.7,1.8-0.7c0.3,0,0.7,0.1,1,0.2c0.3,0.1,0.6,0.3,0.8,0.6l0,0.1l-0.5,0.5l-0.1-0.1
			c-0.3-0.4-0.7-0.5-1.2-0.5c-0.5,0-0.9,0.2-1.2,0.5l0,0c-0.4,0.3-0.5,0.7-0.5,1.3c0,0.6,0.2,1,0.5,1.3c0.4,0.3,0.7,0.5,1.2,0.5
			c0.5,0,0.9-0.2,1.3-0.5c0.2-0.2,0.4-0.5,0.4-0.8h-1.8V7.8H38z"/>
		<polygon class="st2" points="39.5,6.2 39.5,7.6 41.5,7.6 41.5,8.3 39.5,8.3 39.5,9.7 41.7,9.7 41.7,10.5 38.7,10.5 38.7,5.5 
			41.7,5.5 41.7,6.2 		"/>
		<polygon class="st2" points="45.7,5.5 45.7,6.2 44.3,6.2 44.3,10.5 43.5,10.5 43.5,6.2 42.2,6.2 42.2,5.5 		"/>
		<rect x="47.8" y="5.5" class="st2" width="0.8" height="5"/>
		<polygon class="st2" points="52.6,5.5 52.6,6.2 51.3,6.2 51.3,10.5 50.6,10.5 50.6,6.2 49.2,6.2 49.2,5.5 		"/>
		<path class="st2" d="M58.9,6.2c-0.5-0.5-1.1-0.7-1.8-0.7c-0.7,0-1.3,0.2-1.8,0.7c-0.5,0.5-0.7,1.1-0.7,1.8c0,0.7,0.2,1.3,0.7,1.8
			c0.5,0.5,1.1,0.7,1.8,0.7c0.4,0,0.7-0.1,1-0.2c0.3-0.1,0.6-0.3,0.8-0.6c0.5-0.5,0.7-1.1,0.7-1.8C59.7,7.3,59.4,6.7,58.9,6.2z
			 M58.3,9.3c-0.3,0.3-0.7,0.5-1.2,0.5c-0.4,0-0.9-0.2-1.2-0.5l0,0C55.5,9,55.4,8.6,55.4,8c0-0.5,0.2-1,0.5-1.3l0,0
			c0.3-0.3,0.7-0.5,1.2-0.5c0.4,0,0.9,0.2,1.2,0.5l0,0C58.7,7,58.9,7.4,58.9,8C58.9,8.5,58.7,9,58.3,9.3L58.3,9.3z"/>
	</g>
	<path class="st2" d="M54.5,17.4c-1.9,0-3.4,1.4-3.4,3.4c0,1.9,1.5,3.4,3.4,3.4s3.4-1.4,3.4-3.4C57.9,18.8,56.4,17.4,54.5,17.4z
		 M54.5,22.9c-1,0-1.9-0.9-1.9-2.1c0-1.2,0.9-2.1,1.9-2.1c1,0,1.9,0.8,1.9,2.1C56.4,22,55.5,22.9,54.5,22.9z M47,17.4
		c-1.9,0-3.4,1.4-3.4,3.4c0,1.9,1.5,3.4,3.4,3.4s3.4-1.4,3.4-3.4C50.5,18.8,49,17.4,47,17.4z M47,22.9c-1,0-1.9-0.9-1.9-2.1
		c0-1.2,0.9-2.1,1.9-2.1c1,0,1.9,0.8,1.9,2.1C49,22,48.1,22.9,47,22.9z M38.2,18.5v1.4h3.4c-0.1,0.8-0.4,1.4-0.8,1.8
		c-0.5,0.5-1.3,1-2.6,1c-2.2,0-3.8-1.7-3.8-3.8s1.7-3.8,3.8-3.8c1.1,0,2,0.5,2.6,1l1-1c-0.9-0.8-2-1.4-3.6-1.4
		c-2.9,0-5.4,2.4-5.4,5.3s2.5,5.3,5.4,5.3c1.6,0,2.7-0.5,3.7-1.5c1-1,1.3-2.3,1.3-3.4c0-0.3,0-0.6-0.1-0.9H38.2L38.2,18.5z
		 M74.5,19.6c-0.3-0.8-1.1-2.2-2.9-2.2c-1.8,0-3.2,1.4-3.2,3.4c0,1.9,1.4,3.4,3.4,3.4c1.5,0,2.5-1,2.8-1.5L73.4,22
		c-0.4,0.6-0.9,1-1.7,1c-0.8,0-1.3-0.3-1.7-1l4.6-1.9L74.5,19.6L74.5,19.6z M69.8,20.7c0-1.3,1-2,1.8-2c0.6,0,1.1,0.3,1.3,0.7
		L69.8,20.7L69.8,20.7z M66.1,24h1.5V14h-1.5V24z M63.7,18.2c-0.4-0.4-1-0.8-1.8-0.8c-1.7,0-3.3,1.5-3.3,3.4s1.5,3.4,3.3,3.4
		c0.8,0,1.4-0.4,1.8-0.8h0.1v0.5c0,1.3-0.7,2-1.8,2c-0.9,0-1.5-0.6-1.7-1.2l-1.3,0.6c0.4,0.9,1.4,2,3,2c1.8,0,3.2-1,3.2-3.5v-6.1
		h-1.4L63.7,18.2L63.7,18.2z M61.9,22.9c-1,0-1.9-0.9-1.9-2.1c0-1.2,0.9-2.1,1.9-2.1c1,0,1.8,0.9,1.8,2.1C63.8,22,63,22.9,61.9,22.9
		z M81.4,14h-3.6v10h1.5v-3.8h2.1c1.7,0,3.3-1.2,3.3-3.1S83.1,14,81.4,14z M81.5,18.8h-2.2v-3.4h2.2c1.1,0,1.8,1,1.8,1.7
		C83.2,17.9,82.6,18.8,81.5,18.8L81.5,18.8z M90.7,17.4c-1.1,0-2.2,0.5-2.6,1.5l1.4,0.6c0.3-0.6,0.8-0.7,1.4-0.7
		c0.8,0,1.5,0.5,1.6,1.3v0.1c-0.2-0.2-0.9-0.4-1.5-0.4c-1.4,0-2.9,0.8-2.9,2.2c0,1.4,1.2,2.2,2.5,2.2c1,0,1.5-0.5,1.9-1h0.1V24h1.4
		v-3.8C93.8,18.4,92.4,17.4,90.7,17.4L90.7,17.4z M90.6,22.9c-0.5,0-1.2-0.2-1.2-0.9c0-0.8,0.9-1,1.6-1c0.6,0,1,0.2,1.4,0.3
		C92.2,22.2,91.4,22.9,90.6,22.9z M99,17.6l-1.7,4.3h-0.1l-1.8-4.3h-1.6l2.6,6.1L95,27h1.5l4.1-9.4H99L99,17.6z M85.5,24H87V14h-1.5
		V24z"/>
	<g>
		
			<linearGradient id="SVGID_1_" gradientUnits="userSpaceOnUse" x1="-23.6544" y1="2.9091" x2="-24.3795" y2="3.6341" gradientTransform="matrix(18.5185 0 0 18.5185 455.4815 -46.9074)">
			<stop  offset="0" style="stop-color:#4998D3"/>
			<stop  offset="7.000001e-03" style="stop-color:#4A99D3"/>
			<stop  offset="0.26" style="stop-color:#42BAEB"/>
			<stop  offset="0.512" style="stop-color:#41C7F2"/>
			<stop  offset="0.76" style="stop-color:#56C9E9"/>
			<stop  offset="1" style="stop-color:#5BCAE8"/>
		</linearGradient>
		<path class="st3" d="M8.3,6C8.1,6.2,8,6.6,8,7.1v17.7c0,0.5,0.2,0.9,0.4,1.1L8.5,26l9.9-9.9v-0.2L8.3,6z"/>
		
			<linearGradient id="SVGID_2_" gradientUnits="userSpaceOnUse" x1="-23.1344" y1="3.3992" x2="-24.1797" y2="3.3992" gradientTransform="matrix(18.5185 0 0 18.5185 455.4815 -46.9074)">
			<stop  offset="0" style="stop-color:#FEE000"/>
			<stop  offset="0.409" style="stop-color:#FEBD11"/>
			<stop  offset="0.775" style="stop-color:#FAA51A"/>
			<stop  offset="1" style="stop-color:#F99C1C"/>
		</linearGradient>
		<path class="st4" d="M21.6,19.4l-3.3-3.3v-0.2l3.3-3.3l0.1,0.1l3.9,2.2c1.1,0.6,1.1,1.7,0,2.3L21.6,19.4z"/>
		
			<linearGradient id="SVGID_3_" gradientUnits="userSpaceOnUse" x1="-23.524" y1="3.4957" x2="-24.5071" y2="4.4788" gradientTransform="matrix(18.5185 0 0 18.5185 455.4815 -46.9074)">
			<stop  offset="0" style="stop-color:#EF4049"/>
			<stop  offset="1" style="stop-color:#C31E63"/>
		</linearGradient>
		<path class="st5" d="M21.7,19.4L18.3,16l-10,10c0.4,0.4,1,0.4,1.7,0.1L21.7,19.4"/>
		
			<linearGradient id="SVGID_4_" gradientUnits="userSpaceOnUse" x1="-24.2823" y1="2.5421" x2="-23.8433" y2="2.9812" gradientTransform="matrix(18.5185 0 0 18.5185 455.4815 -46.9074)">
			<stop  offset="0" style="stop-color:#32A072"/>
			<stop  offset="6.900000e-02" style="stop-color:#2DA771"/>
			<stop  offset="0.476" style="stop-color:#4BBA71"/>
			<stop  offset="0.801" style="stop-color:#5EBD6B"/>
			<stop  offset="1" style="stop-color:#66BE69"/>
		</linearGradient>
		<path class="st6" d="M21.7,12.6L10,6C9.3,5.6,8.7,5.7,8.3,6.1l10,9.9L21.7,12.6L21.7,12.6z"/>
		<path class="st7" d="M21.6,19.3L10,25.8c-0.6,0.4-1.2,0.3-1.6,0l-0.1,0.1L8.4,26c0.4,0.3,1,0.4,1.6,0L21.6,19.3z"/>
		<path class="st8" d="M8.3,25.8C8.1,25.6,8,25.2,8,24.7v0.1C8,25.3,8.2,25.7,8.3,25.8L8.3,25.8L8.3,25.8L8.3,25.8z M25.6,17l-4,2.2
			l0.1,0.1L25.6,17c0.6-0.2,0.8-0.6,0.8-1C26.4,16.4,26.1,16.7,25.6,17z"/>
		<path class="st9" d="M10,6.1L25.6,15c0.5,0.3,0.8,0.6,0.8,1c0-0.4-0.2-0.8-0.8-1.1L10,6.1c-1.1-0.7-2-0.2-2,1v0.1
			C8,6,8.9,5.4,10,6.1z"/>
	</g>
</g>
</svg>
