<svg xmlns="http://www.w3.org/2000/svg" viewBox="0 0 420 80"><defs><style>.cls-1{fill:#282973;}.cls-2{fill:#231f20;}.cls-3,.cls-4{fill:none;stroke-miterlimit:10;stroke-width:0.25px;}.cls-3{stroke:#35459c;}.cls-4{stroke:#333;opacity:0.5;isolation:isolate;}.cls-5{fill:#1672b9;}.cls-6{fill:#fff;}</style></defs><g id="PPS"><path class="cls-1" d="M123.16,61.21a13.14,13.14,0,0,0-2.17.17V70h1.13V66.52a4.41,4.41,0,0,0,3.59-.88,2.62,2.62,0,0,0,.67-1.87,2.37,2.37,0,0,0-.76-1.84A3.63,3.63,0,0,0,123.16,61.21Zm-.1,4.48a3.7,3.7,0,0,1-.94-.09V62.2a4.27,4.27,0,0,1,1.07-.1c1.24,0,2.06.56,2.06,1.72S124.42,65.69,123.06,65.69Z"/><path class="cls-1" d="M129.71,63.6a3.09,3.09,0,0,0-3,3.39,2.92,2.92,0,0,0,2.65,3.16,2.16,2.16,0,0,0,.44,0,5,5,0,0,0,2.1-.39l-.2-.81a4.14,4.14,0,0,1-1.74.32,2,2,0,0,1-2.16-1.82,2.16,2.16,0,0,1,0-.36h4.42a4.86,4.86,0,0,0,0-.54A2.54,2.54,0,0,0,129.71,63.6Zm-1.84,2.68a1.88,1.88,0,0,1,1.75-1.86,1.63,1.63,0,0,1,1.61,1.65,1.49,1.49,0,0,1,0,.21Z"/><path class="cls-1" d="M136.54,63.6a2.32,2.32,0,0,0-2.08,1.18h0l-.06-1h-1c0,.52,0,1,0,1.71V70h1.15V66.25a1.37,1.37,0,0,1,.08-.53,1.63,1.63,0,0,1,1.53-1.17c1.08,0,1.46.84,1.46,1.86V70h1.14V66.28C138.76,64.12,137.41,63.6,136.54,63.6Z"/><path class="cls-1" d="M142.32,66.38c-.82-.31-1.19-.55-1.19-1.06s.37-.86,1.05-.86a2.52,2.52,0,0,1,1.28.36l.29-.83a3.11,3.11,0,0,0-1.55-.39A1.94,1.94,0,0,0,140,65.26a1.23,1.23,0,0,0,0,.19c0,.75.54,1.37,1.67,1.78.84.31,1.17.61,1.17,1.15s-.39.94-1.22.94a3,3,0,0,1-1.51-.46l-.29.88a3.61,3.61,0,0,0,1.77.42c1.49,0,2.35-.78,2.35-1.88C144,67.34,143.41,66.8,142.32,66.38Z"/><path class="cls-1" d="M145.69,61.26A.69.69,0,0,0,145,62v0a.69.69,0,0,0,.67.71h0a.68.68,0,0,0,.73-.63V62a.67.67,0,0,0-.59-.74Z"/><rect class="cls-1" x="145.12" y="63.74" width="1.14" height="6.29"/><path class="cls-1" d="M150.5,63.6a3.06,3.06,0,0,0-3.13,3c0,.11,0,.22,0,.33a3,3,0,0,0,2.75,3.23h.25a3.08,3.08,0,0,0,3.15-3c0-.11,0-.22,0-.33a3,3,0,0,0-2.75-3.23Zm-.05,5.72c-1.12,0-1.92-1-1.92-2.42,0-1.19.59-2.44,1.94-2.44s1.89,1.35,1.89,2.42C152.36,68.29,151.54,69.32,150.45,69.32Z"/><path class="cls-1" d="M157.78,63.6a2.32,2.32,0,0,0-2.08,1.18h0l-.06-1h-1c0,.52.06,1,.06,1.71V70h1.14V66.25a1.37,1.37,0,0,1,.08-.53,1.63,1.63,0,0,1,1.53-1.17c1.08,0,1.46.84,1.46,1.86V70H160V66.28C160,64.12,158.65,63.6,157.78,63.6Z"/><path class="cls-1" d="M166.18,61.21a13.26,13.26,0,0,0-2.18.17V70h1.14V66.52a4.4,4.4,0,0,0,3.58-.88,2.58,2.58,0,0,0,.68-1.87,2.37,2.37,0,0,0-.77-1.84A3.64,3.64,0,0,0,166.18,61.21Zm-.11,4.48a3.63,3.63,0,0,1-.93-.09V62.2a4.19,4.19,0,0,1,1.06-.1c1.25,0,2.07.56,2.07,1.72s-.83,1.87-2.2,1.87Z"/><path class="cls-1" d="M171.39,65h0V63.76h-1V70h1.13V66.68a3.17,3.17,0,0,1,0-.53,1.61,1.61,0,0,1,1.54-1.47,1.27,1.27,0,0,1,.39,0v-1a.91.91,0,0,0-.33,0A1.87,1.87,0,0,0,171.39,65Z"/><path class="cls-1" d="M176.81,63.6a3.06,3.06,0,0,0-3.13,3c0,.11,0,.22,0,.33a3,3,0,0,0,2.75,3.23h.25a3.08,3.08,0,0,0,3.14-3c0-.11,0-.21,0-.32a3,3,0,0,0-2.75-3.23Zm-.05,5.72c-1.12,0-1.91-1-1.91-2.42,0-1.19.58-2.44,1.93-2.44s1.89,1.35,1.89,2.42C178.67,68.29,177.85,69.32,176.76,69.32Z"/><path class="cls-1" d="M183.88,64.52a2.79,2.79,0,0,1,1.33.3l.26-.88a3.78,3.78,0,0,0-1.59-.33,3.2,3.2,0,0,0-3.38,3,2.41,2.41,0,0,0,0,.38,3,3,0,0,0,2.78,3.21c.12,0,.23,0,.35,0a4.19,4.19,0,0,0,1.81-.36l-.19-.86a3.41,3.41,0,0,1-1.41.31,2.15,2.15,0,0,1-2.19-2.11,1.93,1.93,0,0,1,0-.24,2.18,2.18,0,0,1,1.91-2.42Z"/><path class="cls-1" d="M188.87,63.6a3.09,3.09,0,0,0-3,3.39,2.92,2.92,0,0,0,2.65,3.16,2.26,2.26,0,0,0,.45,0,5,5,0,0,0,2.09-.39l-.19-.81a4.19,4.19,0,0,1-1.75.32A2,2,0,0,1,187,67.41a1.61,1.61,0,0,1,0-.31h4.43v-.54A2.61,2.61,0,0,0,188.87,63.6ZM187,66.28a1.88,1.88,0,0,1,1.75-1.86,1.63,1.63,0,0,1,1.61,1.65,1.49,1.49,0,0,1,0,.21Z"/><path class="cls-1" d="M194.59,66.38c-.82-.31-1.19-.55-1.19-1.06s.37-.86,1-.86a2.56,2.56,0,0,1,1.29.36L196,64a3.07,3.07,0,0,0-1.54-.39,1.94,1.94,0,0,0-2.16,1.67c0,.06,0,.12,0,.18,0,.75.53,1.37,1.66,1.78.84.31,1.17.61,1.17,1.15s-.39.94-1.22.94a3,3,0,0,1-1.51-.46l-.29.88a3.61,3.61,0,0,0,1.77.42c1.5,0,2.35-.78,2.35-1.88S195.69,66.8,194.59,66.38Z"/><path class="cls-1" d="M199.42,66.38c-.82-.31-1.2-.55-1.2-1.06s.38-.86,1.05-.86a2.56,2.56,0,0,1,1.29.36l.29-.83a3.11,3.11,0,0,0-1.55-.39,1.94,1.94,0,0,0-2.16,1.69c0,.06,0,.11,0,.16,0,.75.53,1.37,1.66,1.78.85.31,1.17.61,1.17,1.15s-.39.94-1.22.94a3,3,0,0,1-1.51-.46l-.28.88a3.6,3.6,0,0,0,1.76.42c1.5,0,2.36-.78,2.36-1.88C201.07,67.34,200.51,66.8,199.42,66.38Z"/><rect class="cls-1" x="202.21" y="63.74" width="1.14" height="6.29"/><path class="cls-1" d="M202.78,61.26a.69.69,0,0,0-.71.67v0a.71.71,0,1,0,.71-.71Z"/><path class="cls-1" d="M208.06,63.6A2.32,2.32,0,0,0,206,64.78h0l-.07-1h-1c0,.52,0,1,0,1.71V70h1.14V66.25a1.89,1.89,0,0,1,.08-.53,1.63,1.63,0,0,1,1.53-1.17c1.08,0,1.46.84,1.46,1.86V70h1.14V66.28C210.28,64.12,208.93,63.6,208.06,63.6Z"/><path class="cls-1" d="M216.19,64.69h0a2.09,2.09,0,0,0-2-1.09c-1.45,0-2.84,1.21-2.84,3.34a2.81,2.81,0,0,0,2.56,3H214a2.22,2.22,0,0,0,2-1h0v.7c0,1.58-.86,2.19-2,2.19a3.5,3.5,0,0,1-1.84-.49l-.29.87a4,4,0,0,0,2.09.52,3.33,3.33,0,0,0,2.29-.75,3.64,3.64,0,0,0,.9-2.88V65.47a16.65,16.65,0,0,1,0-1.73h-1Zm-.13,2.67a1.81,1.81,0,0,1-.1.61,1.65,1.65,0,0,1-1.58,1.17c-1.24,0-1.86-1-1.86-2.26,0-1.46.78-2.38,1.87-2.38a1.65,1.65,0,0,1,1.6,1.21,1.79,1.79,0,0,1,.07.51Z"/><path class="cls-1" d="M223.86,65.07c-1.21-.47-1.75-.87-1.75-1.69,0-.6.46-1.32,1.65-1.32a3.6,3.6,0,0,1,1.67.42l.31-.92a4.08,4.08,0,0,0-1.94-.43c-1.7,0-2.83,1-2.83,2.38s.88,2,2.31,2.48c1.19.46,1.65.92,1.65,1.74s-.67,1.5-1.83,1.5a4,4,0,0,1-2-.57l-.28,1a4.55,4.55,0,0,0,2.23.55c2.07,0,3.07-1.17,3.07-2.52S225.34,65.64,223.86,65.07Z"/><path class="cls-1" d="M229.8,67.43c-.16.46-.29.94-.41,1.32h0c-.11-.38-.26-.87-.41-1.29l-1.37-3.72h-1.25l2.33,5.8a1.09,1.09,0,0,1,.07.3.66.66,0,0,1-.09.27,3.48,3.48,0,0,1-1,1.28,3.52,3.52,0,0,1-1,.56l.29,1a3.17,3.17,0,0,0,1.4-.74c.78-.68,1.34-1.79,2.16-3.94l1.71-4.49H231Z"/><path class="cls-1" d="M234.92,66.38c-.82-.31-1.2-.55-1.2-1.06s.38-.86,1.06-.86a2.52,2.52,0,0,1,1.28.36l.29-.83a3.11,3.11,0,0,0-1.55-.39,1.94,1.94,0,0,0-2.16,1.69c0,.06,0,.11,0,.16,0,.75.53,1.37,1.66,1.78.85.31,1.17.61,1.17,1.15s-.38.94-1.22.94a3,3,0,0,1-1.51-.46l-.28.88a3.61,3.61,0,0,0,1.77.42c1.49,0,2.35-.78,2.35-1.88C236.57,67.34,236,66.8,234.92,66.38Z"/><path class="cls-1" d="M239.09,61.93l-1.12.3v1.51h-1v.87h1V68a2.3,2.3,0,0,0,.45,1.64,1.54,1.54,0,0,0,1.23.48,2.82,2.82,0,0,0,1-.15l-.06-.86a2.48,2.48,0,0,1-.66.08c-.64,0-.86-.44-.86-1.22v-3.4h1.64V63.7h-1.64Z"/><path class="cls-1" d="M244.11,63.6a3.09,3.09,0,0,0-3,3.39,2.92,2.92,0,0,0,2.65,3.16,2.16,2.16,0,0,0,.44,0,5,5,0,0,0,2.1-.39l-.2-.81a4.14,4.14,0,0,1-1.74.32,2,2,0,0,1-2.16-1.82,2.16,2.16,0,0,1,0-.36h4.42a4.86,4.86,0,0,0,0-.54,2.67,2.67,0,0,0-2.36-3Zm-1.85,2.68A1.89,1.89,0,0,1,244,64.42a1.61,1.61,0,0,1,1.58,1.86Z"/><path class="cls-1" d="M254.72,63.6a2.12,2.12,0,0,0-1.39.44,2.51,2.51,0,0,0-.7.82h0a1.86,1.86,0,0,0-1.78-1.26,2.18,2.18,0,0,0-2,1.16h0l0-1h-1c0,.52,0,1.05,0,1.71V70H249V66.24a1.77,1.77,0,0,1,.09-.56,1.56,1.56,0,0,1,1.42-1.14c.87,0,1.31.72,1.31,1.72V70h1.12V66.15a1.84,1.84,0,0,1,.09-.57,1.49,1.49,0,0,1,1.35-1c.92,0,1.37.72,1.37,1.93V70h1.12V66.3C256.79,64.14,255.55,63.6,254.72,63.6Z"/><path class="cls-1" d="M262.18,61a9.08,9.08,0,0,0-1.57,5.3,8.79,8.79,0,0,0,1.57,5.25h1.17a10.2,10.2,0,0,1,0-10.55Z"/><path class="cls-1" d="M269.77,64.33a28.2,28.2,0,0,0,.15,3.64h0a22.58,22.58,0,0,0-1.5-2.94l-2.26-3.76h-1.82V70h1.47V66.9c0-1.44,0-2.6-.08-3.73h0a25.19,25.19,0,0,0,1.57,3L269.6,70h1.65V61.27h-1.48Z"/><path class="cls-1" d="M275.82,64.94c-1.17-.46-1.68-.77-1.68-1.44,0-.51.44-1.06,1.46-1.06a3.75,3.75,0,0,1,1.74.42l.39-1.29a4.65,4.65,0,0,0-2.11-.44c-1.9,0-3.09,1.09-3.09,2.52,0,1.26.92,2,2.36,2.55,1.12.4,1.56.79,1.56,1.46s-.57,1.19-1.6,1.19a4.46,4.46,0,0,1-2.11-.56l-.36,1.33a5.41,5.41,0,0,0,2.37.54c2.26,0,3.33-1.22,3.33-2.62S277.34,65.51,275.82,64.94Z"/><path class="cls-1" d="M281.35,61.27,278.55,70h1.65l.75-2.48h2.78l.8,2.48h1.71l-2.84-8.76Zm-.14,5.07.68-2.16c.15-.52.28-1.13.41-1.63h0c.13.5.27,1.1.44,1.63l.69,2.16Z"/><path class="cls-1" d="M289.58,61.21a14.24,14.24,0,0,0-2.44.18V70h1.58V66.7a5.08,5.08,0,0,0,.78,0,3.83,3.83,0,0,0,2.77-.93,2.66,2.66,0,0,0,.76-2,2.5,2.5,0,0,0-.86-1.94A4,4,0,0,0,289.58,61.21Zm-.08,4.33a3.43,3.43,0,0,1-.78-.07v-3a4.18,4.18,0,0,1,.93-.08c1.1,0,1.78.52,1.78,1.49A1.7,1.7,0,0,1,289.5,65.54Z"/><rect class="cls-1" x="293.35" y="66.02" width="3.32" height="1.11"/><path class="cls-1" d="M300.1,61.21a14.24,14.24,0,0,0-2.44.18V70h1.58V66.7a5.08,5.08,0,0,0,.78,0,3.89,3.89,0,0,0,2.77-.93,2.65,2.65,0,0,0,.75-2,2.49,2.49,0,0,0-.85-1.94A4,4,0,0,0,300.1,61.21Zm-.1,4.33a3.43,3.43,0,0,1-.78-.07v-3a4,4,0,0,1,.92-.08c1.11,0,1.79.52,1.79,1.49S301.22,65.54,300,65.54Z"/><path class="cls-1" d="M307,61.21a14.24,14.24,0,0,0-2.44.18V70h1.58V66.7a5.08,5.08,0,0,0,.78,0,3.83,3.83,0,0,0,2.77-.93,2.66,2.66,0,0,0,.76-2,2.5,2.5,0,0,0-.86-1.94A4,4,0,0,0,307,61.21Zm0,4.33a3.43,3.43,0,0,1-.78-.07v-3a4.18,4.18,0,0,1,.93-.08c1.1,0,1.78.52,1.78,1.49A1.72,1.72,0,0,1,307,65.54Z"/><path class="cls-1" d="M314.58,64.94c-1.17-.46-1.68-.77-1.68-1.44,0-.51.45-1.06,1.46-1.06a3.64,3.64,0,0,1,1.74.42l.39-1.29a4.64,4.64,0,0,0-2.1-.44c-1.9,0-3.1,1.09-3.1,2.52,0,1.26.92,2,2.37,2.55,1.12.4,1.56.79,1.56,1.46s-.57,1.19-1.6,1.19a4.5,4.5,0,0,1-2.12-.56l-.35,1.33a5.27,5.27,0,0,0,2.37.54c2.26,0,3.32-1.22,3.32-2.62S316.1,65.51,314.58,64.94Z"/><path class="cls-1" d="M317.4,61a10.24,10.24,0,0,1,0,10.55h1.16a8.94,8.94,0,0,0,1.59-5.27A8.79,8.79,0,0,0,318.56,61Z"/><rect class="cls-1" x="322.8" y="67.01" width="2.47" height="0.65"/><path class="cls-1" d="M330.23,66.12c-.9-.35-1.28-.59-1.28-1.11s.34-.81,1.11-.81a2.94,2.94,0,0,1,1.34.32l.3-1a3.5,3.5,0,0,0-1.62-.34c-1.45,0-2.37.84-2.37,1.94s.71,1.56,1.82,2c.85.31,1.19.61,1.19,1.12s-.43.92-1.22.92a3.57,3.57,0,0,1-1.63-.43l-.27,1a4,4,0,0,0,1.82.42c1.73,0,2.55-.94,2.55-2S331.4,66.56,330.23,66.12Z"/><path class="cls-1" d="M334.16,63.78l-1.2.29v1.1h-.7v.92h.7v2.29a2,2,0,0,0,.37,1.35,1.5,1.5,0,0,0,1.06.4,2.7,2.7,0,0,0,.89-.12v-.93a1.93,1.93,0,0,1-.48,0c-.47,0-.62-.3-.62-.89v-2.1h1.16v-.92h-1.16Z"/><path class="cls-1" d="M339.78,67.11a1.82,1.82,0,0,0-1.62-2,2.41,2.41,0,0,0-.38,0,3.61,3.61,0,0,0-1.76.43l.24.8a2.63,2.63,0,0,1,1.31-.36c.85,0,1,.53,1,.85v.08c-1.79,0-2.88.61-2.88,1.84a1.43,1.43,0,0,0,1.44,1.44h.09a1.76,1.76,0,0,0,1.43-.65h0l.08.54h1.1a7.45,7.45,0,0,1-.07-1.16Zm-1.2,1.22a.57.57,0,0,1,0,.26,1,1,0,0,1-1,.67.65.65,0,0,1-.7-.57v-.12c0-.74.83-.93,1.69-.91Z"/><path class="cls-1" d="M342.19,63.78l-1.2.29v1.1h-.7v.92h.7v2.29a1.93,1.93,0,0,0,.38,1.35,1.41,1.41,0,0,0,1.05.4,2.7,2.7,0,0,0,.89-.12v-.93a1.93,1.93,0,0,1-.48,0c-.47,0-.62-.3-.62-.89v-2.1h1.16v-.92h-1.16Z"/><path class="cls-1" d="M346,65.06a2.41,2.41,0,0,0-2.38,2.44,1.09,1.09,0,0,0,0,.18,2.29,2.29,0,0,0,2.11,2.45,2.54,2.54,0,0,0,.39,0,4.48,4.48,0,0,0,1.7-.3l-.18-.85a3.46,3.46,0,0,1-1.35.23A1.32,1.32,0,0,1,344.85,68v0h3.25a4.51,4.51,0,0,0,0-.52,2.12,2.12,0,0,0-1.8-2.4Zm-1.19,2A1.21,1.21,0,0,1,346,65.9a1,1,0,0,1,1,1,1.49,1.49,0,0,1,0,.21Z"/><path class="cls-1" d="M353.09,66.12c-.9-.35-1.29-.59-1.29-1.11s.34-.81,1.12-.81a2.94,2.94,0,0,1,1.34.32l.3-1a3.5,3.5,0,0,0-1.62-.34c-1.45,0-2.37.84-2.37,1.94s.71,1.56,1.81,2c.86.31,1.2.61,1.2,1.12s-.44.92-1.23.92a3.53,3.53,0,0,1-1.62-.43l-.27,1a4,4,0,0,0,1.81.42c1.74,0,2.56-.94,2.56-2S354.26,66.56,353.09,66.12Z"/><path class="cls-1" d="M358.14,66a2.12,2.12,0,0,1,.93.19l.22-.92A3.23,3.23,0,0,0,358.1,65a2.51,2.51,0,0,0-2.69,2.33,2.44,2.44,0,0,0,0,.27,2.31,2.31,0,0,0,2.16,2.47,1.93,1.93,0,0,0,.34,0,3.63,3.63,0,0,0,1.38-.25l-.17-.91a2.29,2.29,0,0,1-1,.2,1.58,1.58,0,0,1,0-3.15Z"/><path class="cls-1" d="M362.65,65.06a1.67,1.67,0,0,0-.84.22,1.61,1.61,0,0,0-.6.56h0v-2.9H360V70h1.24V67.1a.92.92,0,0,1,.05-.37,1,1,0,0,1,.94-.69c.68,0,.94.53.94,1.24V70h1.23V67.17C364.35,65.61,363.48,65.06,362.65,65.06Z"/><path class="cls-1" d="M367.48,65.06a2.39,2.39,0,0,0-2.38,2.42,1.34,1.34,0,0,0,0,.2,2.29,2.29,0,0,0,2.11,2.45,2.54,2.54,0,0,0,.39,0,4.48,4.48,0,0,0,1.7-.3l-.18-.85a3.46,3.46,0,0,1-1.35.23,1.31,1.31,0,0,1-1.48-1.11s0-.07,0-.1h3.25a4.51,4.51,0,0,0,0-.52,2.12,2.12,0,0,0-1.8-2.4Zm-1.19,2a1.19,1.19,0,0,1,1.12-1.19,1,1,0,0,1,1,1,1.49,1.49,0,0,1,0,.21Z"/><path class="cls-1" d="M375.87,65.06a1.61,1.61,0,0,0-1,.29,1.75,1.75,0,0,0-.6.61h0a1.39,1.39,0,0,0-1.35-.9,1.7,1.7,0,0,0-1.5.83h0l-.06-.72h-1V70h1.2V67.16a.91.91,0,0,1,.06-.4,1,1,0,0,1,.88-.7c.57,0,.84.48.84,1.16V70h1.2V67.12a1.4,1.4,0,0,1,.06-.41.93.93,0,0,1,.86-.65c.59,0,.87.48.87,1.29V70h1.2V67.17C377.5,65.61,376.68,65.06,375.87,65.06Z"/><path class="cls-1" d="M380.62,65.06a2.39,2.39,0,0,0-2.38,2.42,1.34,1.34,0,0,0,0,.2,2.29,2.29,0,0,0,2.11,2.45,2.54,2.54,0,0,0,.39,0,4.48,4.48,0,0,0,1.7-.3l-.18-.85a3.46,3.46,0,0,1-1.35.23,1.33,1.33,0,0,1-1.49-1.15.37.37,0,0,1,0-.11h3.26a4.51,4.51,0,0,0,0-.52,2.12,2.12,0,0,0-1.85-2.36Zm-1.2,2a1.2,1.2,0,0,1,1.13-1.19,1,1,0,0,1,1,1,1.49,1.49,0,0,1,0,.21Z"/><path class="cls-1" d="M387.35,65.06A2.41,2.41,0,0,0,385,67.52s0,.11,0,.16a2.29,2.29,0,0,0,2.13,2.45,2.41,2.41,0,0,0,.38,0,4.48,4.48,0,0,0,1.7-.3L389,69a3.46,3.46,0,0,1-1.35.23,1.32,1.32,0,0,1-1.49-1.13s0-.09,0-.13h3.26a4.51,4.51,0,0,0,0-.52,2.12,2.12,0,0,0-1.83-2.37Zm-1.2,2a1.2,1.2,0,0,1,1.13-1.19,1,1,0,0,1,1,1,1.49,1.49,0,0,1,0,.21Z"/><path class="cls-1" d="M392.87,65.06a1.75,1.75,0,0,0-1.55.84h0l-.06-.73h-1.07V70h1.24V67.18a1.07,1.07,0,0,1,.05-.4,1,1,0,0,1,1-.72c.67,0,.93.53.93,1.23V70h1.23V67.15C394.6,65.61,393.72,65.06,392.87,65.06Z"/><path class="cls-1" d="M399.44,67.11a1.82,1.82,0,0,0-1.62-2,2.41,2.41,0,0,0-.38,0,3.61,3.61,0,0,0-1.76.43l.24.8a2.63,2.63,0,0,1,1.31-.36c.86,0,1,.53,1,.85v.08c-1.8,0-2.89.61-2.89,1.84a1.43,1.43,0,0,0,1.44,1.44h.09a1.8,1.8,0,0,0,1.44-.65h0l.08.54h1.11a7.45,7.45,0,0,1-.07-1.16Zm-1.2,1.22a1.13,1.13,0,0,1,0,.26,1,1,0,0,1-1,.67.65.65,0,0,1-.7-.57v-.12c0-.74.83-.93,1.7-.91Z"/><path class="cls-1" d="M403.3,65.06a1.77,1.77,0,0,0-1.56.78h0v-2.9h-1.23V70h1l.06-.73h0a1.67,1.67,0,0,0,1.54.84,2.33,2.33,0,0,0,2.22-2.43,1.09,1.09,0,0,0,0-.18C405.34,66.05,404.49,65.06,403.3,65.06Zm-.46,4.11a1.14,1.14,0,0,1-1.09-.85,1.41,1.41,0,0,1,0-.29v-.79a1.71,1.71,0,0,1,0-.32,1.14,1.14,0,0,1,1.09-.9c.82,0,1.23.7,1.23,1.56S403.61,69.17,402.84,69.17Z"/><rect class="cls-1" x="406.09" y="62.94" width="1.24" height="7.1"/><path class="cls-1" d="M410.48,65.06a2.41,2.41,0,0,0-2.39,2.43,1.21,1.21,0,0,0,0,.19,2.29,2.29,0,0,0,2.13,2.45,2.41,2.41,0,0,0,.38,0,4.48,4.48,0,0,0,1.7-.3l-.18-.85a3.46,3.46,0,0,1-1.35.23,1.32,1.32,0,0,1-1.49-1.13s0-.09,0-.13h3.26a4.51,4.51,0,0,0,0-.52,2.12,2.12,0,0,0-1.85-2.36Zm-1.2,2a1.2,1.2,0,0,1,1.13-1.19,1,1,0,0,1,1,1,1.49,1.49,0,0,1,0,.21Z"/><path class="cls-1" d="M417.81,68.67V62.94h-1.23V65.7h0a1.53,1.53,0,0,0-1.37-.64A2.32,2.32,0,0,0,413,67.5a.86.86,0,0,0,0,.16,2.23,2.23,0,0,0,2,2.47h.12a1.74,1.74,0,0,0,1.59-.88h0l.05.77h1.1C417.83,69.7,417.81,69.17,417.81,68.67Zm-1.23-.74a1,1,0,0,1-1.06,1.22c-.78,0-1.22-.65-1.22-1.53s.4-1.62,1.19-1.62a1.07,1.07,0,0,1,1.06.87,1.71,1.71,0,0,1,0,.32Z"/></g><g id="NSAP"><path class="cls-2" d="M128.84,46.53a39.61,39.61,0,0,0,.2,5h0A34.57,34.57,0,0,0,127,47.46l-3.13-5.2h-2.52V54.43h2V50.1c0-2,0-3.61-.1-5.17h0a38.7,38.7,0,0,0,2.18,4.19l3.17,5.33h2.28V42.3h-2Z"/><path class="cls-2" d="M132.74,52a2.59,2.59,0,0,0,2.59,2.61h.17a3.23,3.23,0,0,0,2.59-1.17h.06l.14,1h2a13.46,13.46,0,0,1-.13-2.1V49.16c0-1.91-.81-3.69-3.62-3.69a6.36,6.36,0,0,0-3.17.77l.44,1.44a4.56,4.56,0,0,1,2.36-.65c1.54,0,1.78,1,1.78,1.54v.14C134.71,48.69,132.74,49.81,132.74,52ZM138,50.15v1.21a1.59,1.59,0,0,1-.07.48,1.8,1.8,0,0,1-1.73,1.21,1.16,1.16,0,0,1-1.26-1,.74.74,0,0,1,0-.21C134.94,50.46,136.44,50.11,138,50.15Z"/><path class="cls-2" d="M144.93,43.16l-2.16.53v2h-1.26v1.65h1.26v4.13a3.55,3.55,0,0,0,.68,2.44,2.6,2.6,0,0,0,1.91.72A5,5,0,0,0,147,54.4V52.71a3.55,3.55,0,0,1-.86.1c-.85,0-1.14-.55-1.14-1.62V47.32h2V45.67h-2.11Z"/><rect class="cls-2" x="148.71" y="45.67" width="2.23" height="8.77"/><path class="cls-2" d="M149.81,44.41a1.2,1.2,0,1,0-1.23-1.19,1.18,1.18,0,0,0,1.17,1.19Z"/><path class="cls-2" d="M157.3,45.47a4.34,4.34,0,0,0-4.55,4.1,4.87,4.87,0,0,0,0,.54,4.23,4.23,0,0,0,4,4.51,3.2,3.2,0,0,0,.44,0,4.34,4.34,0,0,0,4.51-4.16,4.13,4.13,0,0,0,0-.5,4.2,4.2,0,0,0-3.89-4.49A3.53,3.53,0,0,0,157.3,45.47ZM157.23,53c-1.35,0-2.18-1.28-2.18-3,0-1.46.63-3,2.19-3s2.13,1.57,2.13,2.93C159.37,51.79,158.49,53,157.23,53Z"/><path class="cls-2" d="M165.7,54.43V49.29a2.19,2.19,0,0,1,.09-.72,1.87,1.87,0,0,1,1.73-1.3c1.21,0,1.68.95,1.68,2.21v5h2.21v-5.2c0-2.77-1.58-3.76-3.11-3.76A3.2,3.2,0,0,0,165.5,47h-.05l-.11-1.31H163.4c0,.75.07,1.6.07,2.61v6.15Z"/><path class="cls-2" d="M173.15,52a2.59,2.59,0,0,0,2.59,2.61h.17a3.23,3.23,0,0,0,2.59-1.17h.06l.14,1h2a13.46,13.46,0,0,1-.13-2.1V49.16c0-1.91-.81-3.69-3.62-3.69a6.36,6.36,0,0,0-3.17.77l.44,1.44a4.62,4.62,0,0,1,2.35-.65c1.55,0,1.79,1,1.79,1.54v.14C175.12,48.69,173.15,49.81,173.15,52Zm5.26-1.87v1.21a1.59,1.59,0,0,1-.07.48A1.8,1.8,0,0,1,176.61,53,1.16,1.16,0,0,1,175.35,52a.74.74,0,0,1,0-.21c0-1.31,1.49-1.66,3.06-1.62Z"/><rect class="cls-2" x="182.91" y="41.65" width="2.23" height="12.78"/><path class="cls-2" d="M194.23,52.8a6,6,0,0,1-2.93-.8l-.49,1.84a7.3,7.3,0,0,0,3.28.75c3.13,0,4.61-1.69,4.61-3.63,0-1.75-1-2.81-3.14-3.6-1.62-.63-2.32-1.07-2.32-2,0-.7.61-1.46,2-1.46a5,5,0,0,1,2.41.58l.54-1.79a6.39,6.39,0,0,0-2.92-.61c-2.62,0-4.28,1.51-4.28,3.49,0,1.75,1.28,2.81,3.28,3.53,1.54.56,2.16,1.1,2.16,2S195.65,52.8,194.23,52.8Z"/><path class="cls-2" d="M209.05,50a4.21,4.21,0,0,0-3.91-4.49,3.38,3.38,0,0,0-.45,0,4.34,4.34,0,0,0-4.55,4.1,4.87,4.87,0,0,0,0,.54,4.23,4.23,0,0,0,3.95,4.51,3.38,3.38,0,0,0,.45,0,4.34,4.34,0,0,0,4.51-4.16A4.13,4.13,0,0,0,209.05,50Zm-4.43,3c-1.35,0-2.18-1.28-2.18-3,0-1.46.63-3,2.2-3s2.12,1.57,2.12,2.93C206.76,51.79,205.88,53,204.62,53Z"/><path class="cls-2" d="M215.26,47.2a4,4,0,0,1,1.67.34l.4-1.66a5.63,5.63,0,0,0-2.15-.41,4.54,4.54,0,0,0-4.87,4.18,4.67,4.67,0,0,0,3.93,5,3.74,3.74,0,0,0,.58,0,6.43,6.43,0,0,0,2.49-.45L217,52.53a4.32,4.32,0,0,1-1.74.34,2.84,2.84,0,0,1,0-5.67Z"/><path class="cls-2" d="M220,44.41a1.2,1.2,0,1,0-1.22-1.19,1.17,1.17,0,0,0,1.15,1.19Z"/><rect class="cls-2" x="218.95" y="45.67" width="2.23" height="8.77"/><path class="cls-2" d="M222.94,52a2.59,2.59,0,0,0,2.59,2.61h.17a3.23,3.23,0,0,0,2.59-1.17h.05l.15,1h2a13.46,13.46,0,0,1-.13-2.1V49.16c0-1.91-.81-3.69-3.62-3.69a6.36,6.36,0,0,0-3.17.77l.43,1.44a4.65,4.65,0,0,1,2.36-.65c1.55,0,1.78,1,1.78,1.54v.14C224.9,48.69,222.94,49.81,222.94,52Zm5.26-1.87v1.21a1.59,1.59,0,0,1-.07.48A1.8,1.8,0,0,1,226.4,53,1.16,1.16,0,0,1,225.14,52a.74.74,0,0,1,0-.21c0-1.31,1.49-1.66,3.06-1.62Z"/><rect class="cls-2" x="232.7" y="41.65" width="2.23" height="12.78"/><path class="cls-2" d="M250.9,54.43,247,42.3h-2.82l-3.89,12.13h2.28l1-3.43h3.85l1.1,3.43Zm-7-5.11.94-3c.21-.72.39-1.56.57-2.27h0c.18.71.38,1.53.61,2.27l.95,3Z"/><path class="cls-2" d="M255.77,49.2c-1.11-.4-1.53-.67-1.53-1.23s.43-.92,1.23-.92a3.86,3.86,0,0,1,1.85.51l.43-1.57a5.18,5.18,0,0,0-2.32-.52c-2,0-3.31,1.2-3.31,2.75,0,1,.7,2,2.41,2.56,1.08.38,1.44.68,1.44,1.28s-.43,1-1.4,1a4.82,4.82,0,0,1-2.25-.63l-.44,1.6a5.63,5.63,0,0,0,2.67.61c2.32,0,3.56-1.15,3.56-2.73C258.1,50.58,257.36,49.77,255.77,49.2Z"/><path class="cls-2" d="M262.07,53a4.94,4.94,0,0,1-2.25-.63l-.43,1.6a5.59,5.59,0,0,0,2.66.61c2.33,0,3.57-1.15,3.57-2.73,0-1.3-.76-2.11-2.34-2.68-1.12-.4-1.53-.67-1.53-1.23S262.18,47,263,47a3.93,3.93,0,0,1,1.86.51l.43-1.57a5.18,5.18,0,0,0-2.32-.52c-2,0-3.32,1.2-3.32,2.75,0,1,.71,2,2.42,2.56,1.08.38,1.44.68,1.44,1.28S263,53,262.07,53Z"/><rect class="cls-2" x="267.44" y="45.67" width="2.23" height="8.77"/><path class="cls-2" d="M267.31,43.22A1.24,1.24,0,1,0,268.57,42h0a1.17,1.17,0,0,0-1.24,1.1Z"/><path class="cls-2" d="M277.73,51.88c0-1.3-.75-2.11-2.34-2.68-1.11-.4-1.53-.67-1.53-1.23s.43-.92,1.23-.92a3.86,3.86,0,0,1,1.85.51l.43-1.57a5.18,5.18,0,0,0-2.32-.52c-2,0-3.31,1.2-3.31,2.75,0,1,.7,2,2.41,2.56,1.08.38,1.44.68,1.44,1.28s-.43,1-1.4,1a4.82,4.82,0,0,1-2.25-.63L271.5,54a5.63,5.63,0,0,0,2.67.61C276.49,54.61,277.73,53.46,277.73,51.88Z"/><path class="cls-2" d="M284.2,47.32V45.67h-2.11V43.16l-2.16.53v2h-1.26v1.65h1.26v4.13a3.45,3.45,0,0,0,.68,2.44,2.6,2.6,0,0,0,1.91.72,4.83,4.83,0,0,0,1.6-.21V52.73a3.63,3.63,0,0,1-.87.1c-.84,0-1.13-.55-1.13-1.62V47.32Z"/><path class="cls-2" d="M288.68,47c1.54,0,1.78,1,1.78,1.54v.14c-3.24,0-5.2,1.1-5.2,3.31a2.6,2.6,0,0,0,2.56,2.64H288a3.23,3.23,0,0,0,2.59-1.17h.06l.14,1h2a13.46,13.46,0,0,1-.13-2.1v-3.2c0-1.91-.81-3.69-3.62-3.69a6.35,6.35,0,0,0-3.16.77l.43,1.44A4.6,4.6,0,0,1,288.68,47Zm1.83,4.33a1.55,1.55,0,0,1-.07.48A1.8,1.8,0,0,1,288.71,53,1.16,1.16,0,0,1,287.45,52a.74.74,0,0,1,0-.21c0-1.33,1.5-1.68,3.06-1.64Z"/><path class="cls-2" d="M299.06,47.27c1.21,0,1.68.95,1.68,2.21v5H303v-5.2c0-2.77-1.58-3.76-3.11-3.76A3.16,3.16,0,0,0,297.05,47H297l-.11-1.31H295c.05.75.07,1.6.07,2.61v6.15h2.23V49.29a2.19,2.19,0,0,1,.09-.72A1.88,1.88,0,0,1,299.06,47.27Z"/><path class="cls-2" d="M309.27,54.61a6.2,6.2,0,0,0,2.48-.45l-.3-1.63a4.37,4.37,0,0,1-1.75.34,2.84,2.84,0,0,1,0-5.67,4,4,0,0,1,1.68.34l.39-1.66a5.43,5.43,0,0,0-2.14-.41,4.52,4.52,0,0,0-4.88,4.68,4.21,4.21,0,0,0,3.94,4.46A3.74,3.74,0,0,0,309.27,54.61Z"/><path class="cls-2" d="M317,45.47c-2.8,0-4.28,2.28-4.28,4.72a4.15,4.15,0,0,0,3.83,4.43,5.3,5.3,0,0,0,.69,0,8.2,8.2,0,0,0,3.06-.54L320,52.54a6.5,6.5,0,0,1-2.43.4c-1.41,0-2.65-.68-2.71-2.27h5.87a4.87,4.87,0,0,0,.08-.93C320.74,47.81,319.8,45.47,317,45.47Zm-2.16,3.65a2.17,2.17,0,0,1,2-2.14,1.9,1.9,0,0,1,1.84,1.94c0,.07,0,.13,0,.2Z"/><path class="cls-2" d="M328.53,49.86a5.6,5.6,0,0,0,1.08.07,5.35,5.35,0,0,0,3.83-1.29,3.67,3.67,0,0,0,1.05-2.76,3.4,3.4,0,0,0-1.19-2.68,5.45,5.45,0,0,0-3.58-1,20.21,20.21,0,0,0-3.39.25v12h2.2Zm0-5.85a6.09,6.09,0,0,1,1.28-.11c1.53,0,2.46.72,2.46,2.07s-1,2.24-2.66,2.24a4.93,4.93,0,0,1-1.08-.09Z"/><path class="cls-2" d="M336.09,48.49v5.94h2.21V49.9a5.38,5.38,0,0,1,.07-.69,2,2,0,0,1,2-1.67,3.5,3.5,0,0,1,.65.07V45.52a3.05,3.05,0,0,0-.52-.05,2.62,2.62,0,0,0-2.4,1.87H338l-.07-1.67H336C336.07,46.46,336.09,47.3,336.09,48.49Z"/><path class="cls-2" d="M346.31,45.47a4.34,4.34,0,0,0-4.55,4.1,4.87,4.87,0,0,0,0,.54,4.23,4.23,0,0,0,4,4.51,3.38,3.38,0,0,0,.45,0,4.34,4.34,0,0,0,4.51-4.16,4.13,4.13,0,0,0,0-.5,4.21,4.21,0,0,0-3.91-4.49A3.38,3.38,0,0,0,346.31,45.47ZM346.24,53c-1.35,0-2.18-1.28-2.18-3,0-1.46.63-3,2.2-3s2.12,1.57,2.12,2.93C348.38,51.79,347.5,53,346.24,53Z"/><path class="cls-2" d="M355.91,45.47c-2.11,0-4,1.74-4,4.63,0,2.48,1.55,4.28,3.72,4.28a2.94,2.94,0,0,0,2.56-1.3h0v.76a2.34,2.34,0,0,1-2,2.64,2.44,2.44,0,0,1-.54,0,5.2,5.2,0,0,1-2.56-.67l-.49,1.68a6.25,6.25,0,0,0,3.06.7,5,5,0,0,0,3.39-1.06c.92-.83,1.3-2.15,1.3-4v-5a23.49,23.49,0,0,1,.07-2.52h-1.93l-.09,1.17h0A2.77,2.77,0,0,0,355.91,45.47Zm2.3,3.71V50.6a3.48,3.48,0,0,1-.09.79,1.88,1.88,0,0,1-1.8,1.33c-1.39,0-2.14-1.2-2.14-2.7,0-1.78.92-2.86,2.16-2.86a1.85,1.85,0,0,1,1.8,1.42A2.46,2.46,0,0,1,358.21,49.18Z"/><path class="cls-2" d="M367,47.54a3.5,3.5,0,0,1,.65.07V45.52a3.05,3.05,0,0,0-.52-.05,2.62,2.62,0,0,0-2.4,1.87h-.07l-.07-1.67h-1.93c.06.79.08,1.63.08,2.82v5.94H365V49.9a5.38,5.38,0,0,1,.07-.69A2,2,0,0,1,367,47.54Z"/><path class="cls-2" d="M369.42,47.68a4.65,4.65,0,0,1,2.36-.65c1.55,0,1.78,1,1.78,1.54v.14c-3.24,0-5.2,1.1-5.2,3.31A2.59,2.59,0,0,0,371,54.63h.17a3.23,3.23,0,0,0,2.59-1.17h.05l.15,1h2a14.79,14.79,0,0,1-.12-2.1v-3.2c0-1.91-.81-3.69-3.62-3.69a6.36,6.36,0,0,0-3.17.77Zm4.2,3.68a1.59,1.59,0,0,1-.07.48,1.8,1.8,0,0,1-1.73,1.21,1.16,1.16,0,0,1-1.26-1,.74.74,0,0,1,0-.21c0-1.33,1.49-1.68,3.06-1.64Z"/><path class="cls-2" d="M385.66,54.43V49.18a2.65,2.65,0,0,1,.11-.74,1.68,1.68,0,0,1,1.55-1.17c1.06,0,1.56.86,1.56,2.32v4.84H391V49.27c0-2.81-1.47-3.8-2.93-3.8a2.91,2.91,0,0,0-1.76.52,3.08,3.08,0,0,0-1.08,1.1h0a2.53,2.53,0,0,0-2.43-1.62A3,3,0,0,0,380.1,47H380V45.67h-2c.06.75.08,1.6.08,2.61v6.15h2.16V49.25a1.76,1.76,0,0,1,.12-.72A1.74,1.74,0,0,1,382,47.27c1,0,1.51.86,1.51,2.09v5.07Z"/><path class="cls-2" d="M398.06,45.47a3,3,0,0,0-2.7,1.49h-.05l-.09-1.29h-1.91c.05.75.07,1.6.07,2.61v6.15h2.16V49.25a2,2,0,0,1,.13-.72,1.73,1.73,0,0,1,1.58-1.26c1,0,1.51.86,1.51,2.09v5.07h2.16V49.18a3.67,3.67,0,0,1,.11-.74,1.7,1.7,0,0,1,1.55-1.17c1.06,0,1.57.86,1.57,2.32v4.84h2.16V49.27c0-2.81-1.48-3.8-2.94-3.8a2.91,2.91,0,0,0-1.76.52,3.25,3.25,0,0,0-1.08,1.1h0A2.51,2.51,0,0,0,398.06,45.47Z"/><path class="cls-2" d="M415.34,52.54a6.3,6.3,0,0,1-2.43.4c-1.4,0-2.65-.68-2.7-2.27h5.87a4.86,4.86,0,0,0,.07-.93c0-1.93-.93-4.27-3.78-4.27s-4.28,2.28-4.28,4.72a4.15,4.15,0,0,0,3.83,4.43,5.3,5.3,0,0,0,.69,0,8.2,8.2,0,0,0,3.06-.54ZM412.25,47a1.88,1.88,0,0,1,1.83,1.93,1.49,1.49,0,0,1,0,.21h-3.85A2.16,2.16,0,0,1,412.25,47Z"/></g><g id="GoI"><path class="cls-2" d="M143.32,25.78v.58H142V33h-.75V28.32h-2.6a1.32,1.32,0,0,0-.44.08.69.69,0,0,0-.47.48l-.06.35a3.64,3.64,0,0,0,.59,1.92,4.39,4.39,0,0,0,1,1.26.5.5,0,0,0,.27.08l-.49.5H139a.28.28,0,0,1-.1-.09l-.4-.38-.52-.66-.24-.34-.21-.35a5.2,5.2,0,0,1-.43-1,3.76,3.76,0,0,1-.13-1,1.74,1.74,0,0,1,.32-1.06,1,1,0,0,1,.38-.31,1.18,1.18,0,0,1,.55-.14h3.06v-1.3H135v1.82a1.31,1.31,0,0,1-.95,1.27,1.54,1.54,0,0,1-.56.1h-.27a.72.72,0,0,1-.25-.07l1,1.44.39.49.73.8.31.31-.52.47a2.54,2.54,0,0,1-.78-.75,18.45,18.45,0,0,1-1.36-1.8l-.44-.64-.4-.67-.3-.51-.28-.5.58-.42.57,1a.89.89,0,0,0,.8.35,1,1,0,0,0,.68-.2,1.33,1.33,0,0,0,.3-.71V26.36h-5V33h-.74V26.36h-2.76V33H125v-3.5h-2.2v1.36l-.12.1h-.15a.82.82,0,0,1-.36-.18,3.65,3.65,0,0,1-.62-.56l-.53-.63a1.46,1.46,0,0,1-.18-.38v-.12L121,29l.13-.07H122V26.94a.58.58,0,0,0-.18-.43.63.63,0,0,0-.45-.18.67.67,0,0,0-.28.06l-.24.12-.15.22-.06.29v.2l.08.2v.1l.07.13h-.7l0-.09V27.1a1.19,1.19,0,0,1,.41-1,1.52,1.52,0,0,1,1-.34,1.22,1.22,0,0,1,1.24.71,1.55,1.55,0,0,1,.1.52v1.88H125V26.33h-1.37v-.55Z"/><path d="M178.39,29.56a.72.72,0,0,1-.25-.07l1,1.44.39.49.73.8.31.31-.52.47a2.54,2.54,0,0,1-.78-.75,18.45,18.45,0,0,1-1.36-1.8l-.44-.64-.4-.67-.3-.51-.28-.5.58-.42.57,1a.89.89,0,0,0,.8.35,1,1,0,0,0,.68-.2,1.33,1.33,0,0,0,.3-.71V26.36h-5V33h-.74V26.36h-5.49v2.11l.25-.24.17-.14a1.58,1.58,0,0,1,1-.35,2,2,0,0,1,1.37.53,1.63,1.63,0,0,1,.55,1.27,2.85,2.85,0,0,1-.73,1.71l-.31.37-.42.46-.6-.46a.48.48,0,0,0,.22-.15,4.11,4.11,0,0,0,.91-1.31,1.73,1.73,0,0,0,.16-.67,1.59,1.59,0,0,0-.14-.68,1,1,0,0,0-.93-.49,1.38,1.38,0,0,0-1.06.61,3,3,0,0,0-.31.55,1.62,1.62,0,0,0-.11.53v3h-.74V30.92a1.75,1.75,0,0,1-1.3.52,2,2,0,0,1-1.4-.55,1.88,1.88,0,0,1-.08-2.66l.08-.08a2.11,2.11,0,0,1,1-.5l.38,0h.38a1.26,1.26,0,0,1,.38.1v.62h-.14l-.07-.06-.21-.08h-.21a1.15,1.15,0,0,0-.93.42,1.51,1.51,0,0,0-.33,1,1.26,1.26,0,0,0,.68,1.23,1.55,1.55,0,0,0,.52.1,1.45,1.45,0,0,0,1-.52.82.82,0,0,0,.3-.56V26.36H162v1.82a1.3,1.3,0,0,1-1,1.27,1.54,1.54,0,0,1-.56.1h-.26a.55.55,0,0,1-.25-.07l1,1.44.4.49.72.8.31.31-.52.47a2.54,2.54,0,0,1-.78-.75,18.45,18.45,0,0,1-1.36-1.8l-.43-.64-.41-.67-.29-.51-.28-.5.57-.42.58,1a.86.86,0,0,0,.79.35,1,1,0,0,0,.68-.2,1.19,1.19,0,0,0,.3-.71V26.36H156.3V33h-.74V29.35h-2l-.49-.57h2.47V26.36H153V28.8l-.09.31a.79.79,0,0,1-.47.46l-.3.08a.25.25,0,0,0-.17,0h-.3a.46.46,0,0,1-.2,0l.87,1.31.38.49.67.77.29.3-.57.47c-.17,0-.39-.29-.67-.71l-1.71-2.48-.39-.64-.26-.43-.25-.44.61-.39.41.77a.87.87,0,0,0,.84.49H152a.28.28,0,0,0,.18-.14l.1-.2V26.36H149v-.58h32.35v.58h-1.12v1.82a1.31,1.31,0,0,1-1,1.27,1.54,1.54,0,0,1-.56.1Z"/><path class="cls-2" d="M193.55,33.06a6.31,6.31,0,0,0,2.07-.37V29.46H193.4v.7h1.37v2a2.88,2.88,0,0,1-1.16.18A2.47,2.47,0,0,1,191,30a2.54,2.54,0,0,1,0-.39,2.52,2.52,0,0,1,2.31-2.71,2.67,2.67,0,0,1,.4,0,3.63,3.63,0,0,1,1.49.29l.21-.71a4.18,4.18,0,0,0-1.68-.31,3.38,3.38,0,0,0-3.64,3.1c0,.12,0,.25,0,.38a3.4,3.4,0,0,0,.94,2.5A3.48,3.48,0,0,0,193.55,33.06Z"/><path class="cls-2" d="M199.83,33.1c1.72,0,3.13-1.23,3.13-3.54,0-2-1.19-3.41-3-3.41s-3.13,1.4-3.13,3.54S198.05,33.1,199.83,33.1Zm.06-6.24c1.45,0,2.15,1.4,2.15,2.74,0,1.52-.78,2.79-2.16,2.79s-2.15-1.29-2.15-2.72S198.45,26.86,199.89,26.86Z"/><path class="cls-2" d="M206.78,33l2.41-6.73h-.93l-1.14,3.3c-.3.88-.58,1.72-.77,2.5h0c-.18-.78-.43-1.6-.72-2.51l-1-3.32h-.94l2.2,6.73Z"/><polygon class="cls-2" points="213.96 32.26 211.04 32.26 211.04 29.84 213.66 29.84 213.66 29.12 211.04 29.12 211.04 26.99 213.81 26.99 213.81 26.26 210.17 26.26 210.17 32.99 213.96 32.99 213.96 32.26"/><path class="cls-2" d="M216.21,30.08H217c.79,0,1.15.38,1.35,1.31a8.84,8.84,0,0,0,.45,1.6h.9a10.82,10.82,0,0,1-.52-1.85,1.68,1.68,0,0,0-1-1.35h0a1.77,1.77,0,0,0,1.27-1.72,1.67,1.67,0,0,0-.45-1.31,2.76,2.76,0,0,0-2-.55,8.5,8.5,0,0,0-1.67.14V33h.87Zm0-3.12a3.53,3.53,0,0,1,.86-.08c.92,0,1.55.39,1.55,1.26s-.59,1.28-1.52,1.28h-.89Z"/><path class="cls-2" d="M221.79,30.12c0-1.12,0-1.93-.07-2.78h0A21.28,21.28,0,0,0,223,29.56L225.14,33H226V26.26h-.82v2.82a24,24,0,0,0,.1,2.76h0a20.15,20.15,0,0,0-1.21-2.18l-2.16-3.41H221V33h.82Z"/><path class="cls-2" d="M228.63,30.11c.06-1,.11-2.14.13-3h0c.19.8.46,1.67.78,2.62l1.09,3.2h.66l1.19-3.26c.34-.93.62-1.77.85-2.56h0c0,.84,0,2,.1,2.91L233.6,33h.85L234,26.24h-1l-1.23,3.32c-.3.85-.54,1.58-.71,2.26h0c-.17-.7-.4-1.43-.68-2.26l-1.18-3.3h-1.11L227.62,33h.83Z"/><polygon class="cls-2" points="239.88 32.26 236.96 32.26 236.96 29.84 239.58 29.84 239.58 29.12 236.96 29.12 236.96 26.99 239.73 26.99 239.73 26.26 236.09 26.26 236.09 32.99 239.88 32.99 239.88 32.26"/><path class="cls-2" d="M242.08,30.12c0-1.12,0-1.93-.07-2.78h0a22.14,22.14,0,0,0,1.29,2.22L245.44,33h.88V26.26h-.82v2.82a24,24,0,0,0,.1,2.76h0a20.15,20.15,0,0,0-1.21-2.18l-2.16-3.41h-1V33h.82Z"/><polygon class="cls-2" points="249.37 32.99 250.25 32.99 250.25 27 252.31 27 252.31 26.26 247.32 26.26 247.32 27 249.37 27 249.37 32.99"/><path class="cls-2" d="M258.31,33.1c1.72,0,3.13-1.23,3.13-3.54,0-2-1.19-3.41-3-3.41s-3.13,1.4-3.13,3.54S256.53,33.1,258.31,33.1Zm.06-6.24c1.45,0,2.15,1.4,2.15,2.74,0,1.52-.78,2.79-2.16,2.79s-2.15-1.29-2.15-2.72S256.93,26.86,258.37,26.86Z"/><polygon class="cls-2" points="263.69 29.95 266.24 29.95 266.24 29.23 263.69 29.23 263.69 26.99 266.45 26.99 266.45 26.26 262.82 26.26 262.82 32.99 263.69 32.99 263.69 29.95"/><rect class="cls-2" x="270.31" y="26.26" width="0.87" height="6.74"/><path class="cls-2" d="M273.77,30.12c0-1.12,0-1.93-.07-2.78h0a20.45,20.45,0,0,0,1.3,2.22L277.14,33H278V26.26h-.82v2.82a24,24,0,0,0,.1,2.76h0a20.15,20.15,0,0,0-1.21-2.18l-2.17-3.4H273V33h.82Z"/><path class="cls-2" d="M284.34,32.08a3.53,3.53,0,0,0,1-2.61,3.1,3.1,0,0,0-.95-2.42,3.86,3.86,0,0,0-2.73-.84,12.7,12.7,0,0,0-1.85.14V33a13.82,13.82,0,0,0,1.58.08A4.17,4.17,0,0,0,284.34,32.08ZM280.65,27a5.55,5.55,0,0,1,1-.09,2.4,2.4,0,0,1,2.72,2,2.61,2.61,0,0,1,0,.56,2.59,2.59,0,0,1-2.3,2.85,2.72,2.72,0,0,1-.57,0,5.2,5.2,0,0,1-.88-.05Z"/><rect class="cls-2" x="286.69" y="26.26" width="0.87" height="6.74"/><path class="cls-2" d="M290.42,30.88h2.39l.72,2.11h.93l-2.3-6.73h-1.05L288.82,33h.9Zm.84-2.63c.13-.41.24-.82.34-1.22h0c.1.39.2.79.35,1.23l.66,1.94h-2Z"/><line class="cls-3" x1="185.92" y1="25.5" x2="185.92" y2="34.5"/></g><g id="MoRD"><path class="cls-2" d="M121.91,14.66c.07-1.21.13-2.57.15-3.58h0a32.36,32.36,0,0,0,.93,3.15l1.31,3.85h.79l1.43-3.93c.41-1.11.74-2.12,1-3.07h0c0,1,.06,2.37.12,3.49l.21,3.55h1L128.34,10H127L125.57,14c-.36,1-.64,1.91-.85,2.72h0c-.21-.84-.48-1.72-.82-2.72L122.52,10h-1.33l-.56,8.08h1Z"/><rect class="cls-2" x="130.56" y="10.04" width="1.04" height="8.08"/><path class="cls-2" d="M135.87,14l2.57,4.1h1.06V10h-1v3.38a29,29,0,0,0,.12,3.32h0a23.13,23.13,0,0,0-1.45-2.63L134.58,10h-1.14V18.1h1V14.67c0-1.34,0-2.32-.08-3.33h0A26.22,26.22,0,0,0,135.87,14Z"/><rect class="cls-2" x="141.32" y="10.04" width="1.04" height="8.08"/><path class="cls-2" d="M145.92,17.38a3.72,3.72,0,0,1-1.87-.53l-.27.88a4.26,4.26,0,0,0,2.07.51c1.9,0,2.83-1.08,2.83-2.32s-.7-1.85-2.07-2.38c-1.11-.43-1.6-.8-1.6-1.56,0-.55.42-1.21,1.52-1.21a3,3,0,0,1,1.53.39l.29-.86a3.65,3.65,0,0,0-1.78-.39c-1.58,0-2.62.93-2.62,2.19s.82,1.83,2.14,2.29c1.09.42,1.52.86,1.52,1.61S147,17.38,145.92,17.38Z"/><polygon class="cls-2" points="152.7 18.12 152.7 10.93 155.17 10.93 155.17 10.04 149.18 10.04 149.18 10.93 151.64 10.93 151.64 18.12 152.7 18.12"/><path class="cls-2" d="M161.05,12.18a2,2,0,0,0-.64-1.54,3.23,3.23,0,0,0-2.34-.66,10.32,10.32,0,0,0-2,.17v8h1v-3.5h1c1,0,1.38.46,1.62,1.57a9.4,9.4,0,0,0,.54,1.93h1.08a13.24,13.24,0,0,1-.63-2.21,2,2,0,0,0-1.15-1.65h0A2.14,2.14,0,0,0,161.05,12.18Zm-2.87,1.65h-1.07V10.88a3.74,3.74,0,0,1,1-.1c1.1,0,1.85.47,1.85,1.52s-.66,1.53-1.78,1.53Z"/><path class="cls-2" d="M165.25,18.12V14.68L168,10h-1.19l-1.2,2.25c-.31.61-.59,1.14-.82,1.67h0c-.25-.57-.49-1.06-.8-1.67l-1.14-2.23h-1.19l2.55,4.65v3.43Z"/><path class="cls-2" d="M178.34,14c0-2.4-1.43-4.09-3.63-4.09S171,11.59,171,14.15s1.5,4.11,3.64,4.11S178.34,16.78,178.34,14Zm-6.27.13c0-1.78.86-3.37,2.59-3.37s2.58,1.68,2.58,3.29c0,1.83-.94,3.35-2.59,3.35s-2.58-1.54-2.58-3.27Z"/><polygon class="cls-2" points="179.7 18.12 180.74 18.12 180.74 14.47 183.8 14.47 183.8 13.6 180.74 13.6 180.74 10.92 184.05 10.92 184.05 10.04 179.7 10.04 179.7 18.12"/><path class="cls-2" d="M189.13,14.62h1c1,0,1.38.46,1.62,1.57a10.85,10.85,0,0,0,.54,1.93h1.08a13.2,13.2,0,0,1-.62-2.21,2,2,0,0,0-1.21-1.62h0a2.14,2.14,0,0,0,1.52-2.06,2,2,0,0,0-.63-1.54,3.28,3.28,0,0,0-2.34-.66,10.32,10.32,0,0,0-2,.17v8h1Zm0-3.74a3.74,3.74,0,0,1,1-.1c1.11,0,1.86.47,1.86,1.52s-.71,1.53-1.82,1.53H189.1Z"/><path class="cls-2" d="M195.59,10h-1.06V14.8c0,2.51,1.25,3.46,2.9,3.46s3.06-1,3.06-3.51V10h-1.05v4.79c0,1.78-.77,2.57-2,2.57s-1.88-.76-1.88-2.57Z"/><path class="cls-2" d="M207.28,12.18a2,2,0,0,0-.63-1.54,3.28,3.28,0,0,0-2.34-.66,10.32,10.32,0,0,0-2,.17v8h1v-3.5h1c.95,0,1.38.46,1.62,1.57a10.85,10.85,0,0,0,.54,1.93h1.08a13.2,13.2,0,0,1-.62-2.21,2,2,0,0,0-1.17-1.65h0A2.14,2.14,0,0,0,207.28,12.18Zm-2.86,1.65h-1.07V10.88a3.74,3.74,0,0,1,1-.1c1.1,0,1.86.47,1.86,1.52S205.53,13.83,204.42,13.83Z"/><path class="cls-2" d="M211,10l-2.75,8.08h1.08l.84-2.54H213l.86,2.54H215L212.25,10Zm-.62,4.73.8-2.34c.15-.49.28-1,.4-1.47h0c.12.47.24.95.42,1.48l.79,2.33Z"/><polygon class="cls-2" points="216.17 10.04 216.17 18.12 220.66 18.12 220.66 17.25 217.21 17.25 217.21 10.04 216.17 10.04"/><path class="cls-2" d="M224.37,18.1c.63.06,1.27.1,1.9.1A5,5,0,0,0,229.84,17,4.26,4.26,0,0,0,231,13.89a3.71,3.71,0,0,0-1.14-2.9,4.64,4.64,0,0,0-3.28-1,13.75,13.75,0,0,0-2.22.17Zm1-7.18a5.54,5.54,0,0,1,1.22-.11c2.21,0,3.29,1.21,3.28,3.12a3.11,3.11,0,0,1-2.75,3.43,4.09,4.09,0,0,1-.7,0,9.24,9.24,0,0,1-1-.06Z"/><polygon class="cls-2" points="233.41 14.33 236.55 14.33 236.55 13.47 233.41 13.47 233.41 10.92 236.73 10.92 236.73 10.04 232.37 10.04 232.37 18.12 236.91 18.12 236.91 17.25 233.41 17.25 233.41 14.33"/><path class="cls-2" d="M237.51,10l2.64,8.08h1.15L244.19,10h-1.11l-1.37,4c-.36,1.06-.69,2.08-.92,3h0c-.21-.94-.51-1.93-.86-3l-1.26-4Z"/><polygon class="cls-2" points="249.44 10.92 249.44 10.04 245.07 10.04 245.07 18.12 249.62 18.12 249.62 17.25 246.12 17.25 246.12 14.33 249.26 14.33 249.26 13.47 246.12 13.47 246.12 10.92 249.44 10.92"/><polygon class="cls-2" points="250.98 10.04 250.98 18.12 255.47 18.12 255.47 17.25 252.02 17.25 252.02 10.04 250.98 10.04"/><path class="cls-2" d="M263.08,14c0-2.4-1.43-4.09-3.63-4.09s-3.76,1.68-3.76,4.24,1.5,4.11,3.64,4.11S263.08,16.78,263.08,14Zm-3.69,3.4c-1.65,0-2.58-1.54-2.58-3.27s.86-3.37,2.59-3.37,2.6,1.68,2.6,3.29c0,1.83-1,3.35-2.61,3.35Z"/><path class="cls-2" d="M264.44,10.14v8h1V14.89a4,4,0,0,0,.84.07,3.36,3.36,0,0,0,2.47-.89,2.41,2.41,0,0,0,.63-1.73,2.2,2.2,0,0,0-.71-1.69A3.27,3.27,0,0,0,266.4,10,10.73,10.73,0,0,0,264.44,10.14Zm3.94,2.25c0,1.12-.77,1.73-2,1.73a4.28,4.28,0,0,1-.87-.09V10.89a3.72,3.72,0,0,1,1-.08C267.62,10.81,268.38,11.29,268.38,12.39Z"/><path class="cls-2" d="M271.83,11.08h0a32.36,32.36,0,0,0,.93,3.15l1.31,3.85h.79l1.43-3.93c.41-1.11.74-2.12,1-3.07h0c0,1,.06,2.37.12,3.49l.21,3.55h1L278.11,10h-1.33L275.34,14a28.1,28.1,0,0,0-.85,2.72h0c-.2-.84-.47-1.72-.81-2.72L272.3,10H271l-.56,8.08h1l.22-3.46C271.75,13.45,271.81,12.09,271.83,11.08Z"/><polygon class="cls-2" points="284.87 17.25 281.37 17.25 281.37 14.33 284.51 14.33 284.51 13.47 281.37 13.47 281.37 10.92 284.69 10.92 284.69 10.04 280.33 10.04 280.33 18.12 284.87 18.12 284.87 17.25"/><path class="cls-2" d="M287.22,14.67c0-1.34,0-2.32-.09-3.33h0a26.52,26.52,0,0,0,1.51,2.7l2.57,4.1h1.05V10h-1v3.38a29,29,0,0,0,.12,3.32h0A21,21,0,0,0,290,14.13L287.41,10h-1.14v8.08h1Z"/><polygon class="cls-2" points="295.66 18.12 296.72 18.12 296.72 10.93 299.19 10.93 299.19 10.04 293.21 10.04 293.21 10.93 295.66 10.93 295.66 18.12"/></g><g id="Sep"><line class="cls-4" x1="117" x2="117" y2="80"/></g><g id="Logo"><circle class="cls-5" cx="80" cy="40" r="32"/><path class="cls-6" d="M104.73,35a3.46,3.46,0,0,0-2.34-2.6,10.75,10.75,0,0,0-3.7-.41h-2c-.34,0-.55,0-.4.48a6,6,0,0,1,.17,1.11,83.72,83.72,0,0,1,.22,9.1,12.74,12.74,0,0,1-.39,3.42c-.12.44,0,.47.38.46h2.26c.38,0,.48-.08.39-.48a24.14,24.14,0,0,1-.45-4.48c0-.74.25-.92.9-1a12.41,12.41,0,0,0,2-.31,3.54,3.54,0,0,0,3-2.94A5.81,5.81,0,0,0,104.73,35Zm-5.38,4.56c-.37,0-.44-.12-.43-.44V36.51h0V34c0-.41.1-.57.55-.58a2.72,2.72,0,0,1,3,2.42c0,.07,0,.13,0,.2.21,2.29-.82,3.46-3.12,3.56Z"/><path class="cls-6" d="M87.76,31.89c-2.55,4.84-4.48,10-7.43,14.68h3c.4,0,.53-.13.57-.51a14.89,14.89,0,0,1,1-3.58c.13-.34.28-.48.65-.47h4.31a.61.61,0,0,1,.64.41,13,13,0,0,1,1.26,3.64c0,.18,0,.48.31.48h3.24C92.17,41.9,90.36,36.73,87.76,31.89Zm-1.59,8.32c-.38,0-.26-.22-.18-.43.54-1.24,1.07-2.49,1.66-3.88.12.27.19.39.24.52l1.56,3.79Z"/><path class="cls-6" d="M76,46.55a6.41,6.41,0,0,1-4.08-.22.63.63,0,0,1-.5-.73V43.37A4.33,4.33,0,0,0,73.73,45a2.84,2.84,0,0,0,2.16-.43,2,2,0,0,0,.68-2.75,1.93,1.93,0,0,0-.28-.36,22.27,22.27,0,0,0-3.12-2.53,4,4,0,0,1-1.57-2.36A3.79,3.79,0,0,1,74.42,32h0a6.16,6.16,0,0,1,3.68.11.66.66,0,0,1,.55.75v1.91a2.21,2.21,0,0,1-.85-.59,2.61,2.61,0,0,0-3.46.08,1.67,1.67,0,0,0-.11,2.25A7.75,7.75,0,0,0,75.87,38,18.24,18.24,0,0,1,78,39.7a4,4,0,0,1-2,6.85Z"/><path class="cls-6" d="M68.74,45.57c.19,1,.19,1-.79,1-1.43.3-2.12-.48-2.87-1.61-1.81-2.72-3.82-5.31-5.76-7.94a1.07,1.07,0,0,0-.19-.18c-.21.08-.15.25-.15.38A63.13,63.13,0,0,0,59.19,45a5.67,5.67,0,0,0,.18,1c.13.4.07.55-.38.54H56.5c.68-2.8.4-5.59.46-8.36a15.22,15.22,0,0,1,0-1.91,4.12,4.12,0,0,0-1.45-3.94A2.39,2.39,0,0,1,55.3,32h3.08c.31,0,.37.25.5.44,2,3.07,4.27,6,6.37,9l.11.08a6.1,6.1,0,0,0,1,1.37c0-.12.09-.18.09-.24a74.2,74.2,0,0,0-.24-9.43C66.06,32,66,32,67.28,32c.52,0,1.2-.17,1.5.09s-.06.94-.11,1.44v.21c-.32,3.12-.13,6.24-.15,9.37A11.26,11.26,0,0,0,68.74,45.57Z"/></g><g id="Emblem"><path d="M9.27,21c-1.2,2.74-2.66.84-4.3-1.82-.71-.87-1.94-.76-1.72-3C6,12,9.37,5.61,16.13,10c3.91-1.4-4-6.17,9.8-5.64.83.41,3.83-.64,4.65,1.57,1.34,11,5.56-2.47,10,5.38,2.23.83,2.87,1.67,4.48,4.81,1.17.4-3,6.77-5.54,6.22-.17-.31-.79-2.12-1-.81,5.86,8.17-6.1,14.07-2.44,25.91.74,1.68,4,.35,4,4,.45,1.86,3.43,4.22,2.47,7-.72,2.13-1.46,5.48-5.11,6.1A2.13,2.13,0,0,1,36,67.17a1.89,1.89,0,0,1-.53.08C32.61,66.66,7.71,69.73,11,64.41,6.08,65.6,3.58,56.33,7.35,52.76c1-1,.6-2.74,2.36-4.58,2.69.43,3.15-3.53,2.42-8.07C12.62,32.41,5.22,33.33,9.27,21Zm7.51,38.57h0c0,.76,1.33.85,1.42,1.47a7.14,7.14,0,0,0,1.18,1.55c-.21,0-.81.73.93.49.3-.46-1.94-2.22-1.53-2.51-1-.79.25-2.7-2-2.09-.31.33-.19,0,0,1.05Zm-2.65-12.9c-2.5,2.88-2.48,2.63-2.22,3.24,2.29-2,2.44-.93-.26-.61.48,1-1.13,1-.28,1.76.53-1-.21,1.91,3.28-1.32-.32.17-.55.5-1,.44a11.23,11.23,0,0,0,2.14-5.31c.18-.35.22-.47.21.74,1.86-3.32,1.68-8.61,0-12.83a10.56,10.56,0,0,1-2.57,3c.79,3.66-.44,7-.85,11.5.29-.21,0-1.49.52-1.5.18.54-.64,1.28-.37,2.47.49,0,.37-.81.77-1.93.58.68.57.83.68.39C13.9,46.05,12.79,50.28,14.13,46.67Zm21.23,2.91c.71-.33.3,2.41.8,1.57,2.54.55-.33-.76-1.83-3.64-1.36-3.6,2.09-10.85-3.12-13.34.77,2.75-.68,5.22-.06,8.87C31.13,42.43,35,55.77,35.36,49.58ZM20.18,9.47c1.24-1.8,4.43-2.32,3.69,1.85.32,0,.38.49,1.6.07.45-.68-1.18-3.37,2.18-3.21.41.06,1.43,1.32,1,1.27-.26-.88-3-1.43-2.75.86.77.77,1.67.13,3.15-.3-.74.29-2.29,2-.13,2.28,3-2.46-2-4.43-3.09-6.2.44-.62-.93-2.77-.71.78-.91.69.52-2.71-1.07-1.53-.41.27,1.26,1.74-.6,1.56.95-1.12-1.07-3.71-.52.1-1.64,0-4.76,2.07-3.56,4.62,1.73.7-.56,3,.82,4.6.47.24,2.53,1.49,1-.22-1.19,0-.46-1.08-1.31-2.25,1.92.92-.76-.81,2-2.76-.71,0-1-.5-2.26-.82.67-.25,4.24,1.36,3.12-1.36C22.15,8.39,21.6,8.53,20.18,9.47Zm5.28,30.24c.38-1.26-.62-3.43-2.29-1.9.19,3.58-1.19,8.84.12,13.24C27.43,52.37,25.71,45.24,25.46,39.71Zm-9.74,18.5A2.09,2.09,0,0,0,18,55.34c.9-1.12,1-3.8-1,.44,1.09,2.48-2,1.73-4.37,1.34.44,0,.87-.58,0-.33.15-.16,1-.8-.23-.61.2.12.47-1.82-.17-.94-.25,0,.56-1.3-.16-.67.12-.37,0-2-.74-.75.37-2.62-3.56.63-1.72,2.45.41-.38.23-1.24.27-1.94.83.52-.27,2.33.36,3.26.77,1.3-3.14,4.46.07,5.33-2.35-2.05.88-1.47,1.09-4.1.35,2.44,5.1-.46,6.64,4.18C20.18,63.3,16.47,60.51,15.72,58.21Zm6-13.61c-1.81-2.3,1.47-8.71-2.85-9.7-1.73.12.79,7.15,0,12.65-.62-2-.87,3.27.63-1.57.44,1.14-.67,2.05-1.36,3.09.8-.25.7,1.73.33,1.08-1.41-1.91-.91,2.87-.79,0,.11-.1.14-.48.55-.13,0,2.21,1.36-.05,1.87-4.41.23.24,0,0,.23.88.44.79.15.89.64.26-.61-.26-.58,0-.49.63.29-1.55.42-2.27,1-.07.46-.71.27-1-.21-3.42.14.11.21.18.41.71Zm12,15.79c-.32.28,1.1,2.1-.06,1.61.18,3.39,1.12-.68,2-4.09.28.92-1.07,4.11,2.1,1.64.68.11-3,3.63-1,3.49.42-1.33,3.32-3.41,1.22-5.31-2.11-2.11-2-1.93-2.63-2.2,1.7,1.51-.49,3.59.68.27-1.32.11-1.4.32-2.67,1.25,0-1-.13-.45,1-1.44.14-.12-.08-3.1-.62-2.29.28.82-1.71.83-1-.54-1.1.42-.14,2.46-1.06,3.23.39-.17,1.16.9-.16.58.26.47.32-.4,1.64.2-.15.13-.61-.12-1.11.44.16.05.23.12.72-.06-.09.3-.17.2-.71.75a1,1,0,0,0,.67-.08c-.08.24-.27.06-.65.61.64,0,.82-.45,1.77-1.44,0,.5-1.37,1.26-1.57,1.91.56-.23.58-.18,1.67-1.57-.86,1-2.61,4.21.23.45.2,0-2.11,3-.73,2.28a14.19,14.19,0,0,1,.88-1.74,8,8,0,0,1-.4,1.37,19,19,0,0,0-2.36,3.58c1.21.51,1.33-1.59,2.09-2.9ZM30.45,50.3c-.52-2.58-1.73-5-1.44-9.15.26-1.09,3.1-9.22-1.59-5.66.15,3.47-1.09,9.68-1,13.94C26.69,47.52,27,45,27.61,42c-.1,2.86,1.35,7.42,3,9.08,0-.56.2-1.49.56,0C31.56,51.06,30.93,49.27,30.45,50.3Zm10-33.76c-.68,1.4-2.5-.15-1.94,3.29.5.36,2,3.06,2.59,1.45.37-2-4.59-.1-.19-4.63a2.12,2.12,0,0,1,1.57,2.16c-.21,0-.8-1.43-1-1-.16-.31,2.05,3.45,1.17.34,0-.16-.09,0-.18-.46.11.35,2.18,2.18.25-.28.14-.5,1.78,1.8,1.35.38a12.69,12.69,0,0,1-2.88-2.33c-.19-.9,2.75-3.9,1.85.49-.23.06-.21-.12-.76-.33,6.56,7.28-2-9.45-3.21-1.33.38-.12,2-.1,1.73.77-.43.07-.71-.65-2.12,0-.08,1.14-.25,2.25,1.72,1.48ZM8,14c3.93-.07.36-6.34-4.25,2.33-.32,1.39,2,.4,2.32-1.68-.29-.33-1.09-.7.2-1.5,2.26.34.47,1.33-.82,3.16.6.12,1.2-1.11,3-.58A.91.91,0,0,1,8,16c1.69-.61,2.16.86-.38.36.37.93,2.87,2.73.5,3.86-1.15-.49-1.18,2.86.34.57C9.19,21.87,12.49,13.67,8,14Zm26.38-2.52c1.11,1.27-3.54,1.24-1.94,2.79.73-.81,2.42-.3,2.52-2.85.26-.12-.14,1.64.65,1.22-.1-.2.44-.74.23.17-.13,2.3-.41,2.3,0,1.85.06-1.38-1.64-.64-.39.45.18-1.6,1.74-1,2.18-2.34.15,0,0,.12.31.44-.06-1.78,1.71,0,1.88-2.34-.21-.26.08-.14-.73,0,.35-.5.35-.77-.65,0,1.46-1.71-2.84-2.67-3.16.3-.66,0-1.11-.85-2.42.24-1.69,1.07-.77,2.46,1.48.07Zm-22,1.83c1.23-.78,2.28-5.51-2.88-3.8,0,.32.65.09.33.87-.84-1.12-2.51,1.15.77,1.73.72.27-.59,1.34-.25,1.65a1.38,1.38,0,0,0,.2-2.67c1.71.44,1.76,2.27,0,3.36,2.39.5-1.21,1.05.81,1.66.8-.33.25,1.65,1,1,.57-.57,0-1.6-.68-2.44.76.68,2.11.13.63-1.36Zm6.36,44.32c.29,7.83,11.47,7.64,11.87.11-.27-8-11.68-7.67-11.94-.11Zm-6.25-4.1c.35.65.36,3.15,1.74,3.29.23-.71,3.64,2.21,2.17-1.31.16,0,.31.13.69-.71-.29-.17-.38-.06.56-.78-.39.08-.13-.53.09-.1,2-1.68-5-1.36-5.32-.39ZM31,14.83c.62.84,1.12-5.1-1.07-5.65.55-.51,1-1.54-.19-2.71-1-.17.71,1.64-.12,1.25.39-.55-2.65.07,0-1.58.79-1.42-3.39-.76-2.06.46,0,0,.76-1.5,1.25-.33-2.85.65,1.18.71.82,2.89,1.09,1.44.34,3.38.48,5.4.54,1.53.52,1.84.41.91-1.28-2.18-1.22,1.17.11.93-.61-1.85.94.07.3-1.57ZM13.22,22.56c2.15,1.16,1.42-3-.58-2.28-.58.48,1.84,1.84.75,2-.18-.22-1.14-.62-1.14.62.12,0,1.89,2,.35,1.24-.27-.26-.46-.55-.9.19,3,3.43-1.73-.43.58,3.69-.46.74-.42-.51-1.29-.25,0,.15-.5.58.58,1.19.75-.06.42.93.89,1.35.25-.11,1-1.08-.39-1.73.56-.17,1.83-.6.55-1.81.48-.06,1.92-1,.27-2C14,24.68,14.84,23.8,13.22,22.56Zm5.47-9c1,.16-.45-1.15.37-4.5-.18-.72,2.05-1.14.74-2.49,0,.24.3.8-.73.9C18.35,4.94,22.3,8.4,20.25,6c3.23,3-.05-3.45-2.05,1,.25.33.77,1,.2,3,.26-1.19-1.19-1.58-1,.74.12.57,1.65,1.19.88,2.26-.85-1.07-1.18-2.86-1,.95-.28.05.23,1.29,1.41-.38Zm6.46-.67c.56.58,3.73.27,2.26-1.47-.06.09-.11.07-.08.53-.36,1-2.87,1.14-4.45.17.26-1-1.18-2-.17.34,2.56,1.07-.43,1.28-1.78.47.74,1,1,1.13,3.38.36-.45.61-.93.79-2.81.77-.5,0-.75.21.54.45.55.17-.08,0-.61.49.58.35.82.22,2.32-.6,1.05-1.82,1.37.93,3.59.4.39.41,1.42-1.85,1.77-.79.55-1.95-1.31,1.07-3.66-.12,0,.08-1.3-1.16-.42-.64.21.85,3.95.77,2.95-.54a1.85,1.85,0,0,1-2.57.42l-.26-.23ZM10.43,62.67c-.7.87,10.36.68,4.65-1.07,0-.81-1-.63-2.54-.61.39-1.06-3.08-.42-2.57,1.07,0-.12,0,0,.35-.11C10.08,62.4,10.39,62.06,10.43,62.67Zm.06-38.57c1.49-.21,1.78-.78.25-2.54,1,.11-.39-1.95-.79.27,0,.48,1.22.82,1.09,1.78-1.15-.07-2.33-1.46-.42,1.55-.3.23-.24.59-1.14-.61,0,.05-.3-.33-.5.21-.22.13,2.18,3.39.33,2.34-1.36-1.31.26.7.15,1.93.29-.14.17,0,.62-.47-.63-1.06,1.76-.84-.13-2.88C10.64,26.21,12.66,25.3,10.49,24.1Zm4.57-12.67c.35-.93,1.4,2.54,1.79,1-.06-.8-2.32-2.43-3.27-1-1.23,1.28,3.86,1.72,1.17,2-.62,0-.84-.35-1.48-1,.1.94.07,2.22,1.88,2.81,0,.36-.06,1.12.71.19.23-.28-.41-.59-.68-1.63C16.38,14,16.41,12.49,15.06,11.43ZM35.94,48.26c-1.67-3.09-.27-6.4-.73-11,0-.24-1-1-.57.43.79,2.87-2.24,8.08,1.18,11.18A5.25,5.25,0,0,1,35,47.11C35.37,47.35,35.11,47.37,35.94,48.26ZM34.6,23.57c.39.66,2.09,4.48,3.12,1.94.33-.38,1.16-.54.13-1.2-4.15,4.39,1.83-4.12-2.35.18-1.22-.65,2.11-2.35.61-2.36-.07-.18-1.2.83-1.53.19C37.26,21,32.72,19.38,34.6,23.57Zm-7,39.84c1.48.06,4.87.16,4.26-1.92.18.1,1.21-.79.12-1.22A1.21,1.21,0,0,0,31.4,59a2.24,2.24,0,0,0-.08-2,8.49,8.49,0,0,0-.22,2.56c-.23,0-.28.28-.13.75-.73.31-1.07,1.4-2.44,2.59.16.49.23-.09-.89.53ZM21.71,41.93c0,3.13,2.08-3.92.65-6.33C20.48,35.67,21.65,39,21.71,41.93ZM32,21.49c-.56-1,.52-.59.63-3-.41-.75-1.05.41-1.11,1.63-.35-1.2.15-1,.59-3.11-.18-.25,0-.25-.69.34.21-.82.83-.68.75-2.74-1.86,0-.43,13.74,1.27,7.38-.32.2-.39.18-.91,1.21-.07-.36,0-.7-.28-1a1.48,1.48,0,0,0,.57-1.2C33.28,20.55,32.58,20,32,21.49Zm-6.41-3.41c1.34,1.29,2.55-3.39.9-2.23-.64,2.18-3.17.69-4.24-.16-.19.64-.46,3.93,2,1.83-.54.55,1.09,1.13.89.12l.91.1a3.39,3.39,0,0,1-.5.34Zm-12.43-.59c.63,1.89,5.46,2.51.53-.52-.35-.37-.6-.64-1,.57s1,2.15,1.81,3.26c-.28.33,1.33.53.8-1-.41-.56-2.6-.44-2.18-2.31Zm13.66,19.4c-.92-3.13-1.84,3.48-.2,5.19.2-1.49.79-2.74.16-5.19ZM37,54c-.31-.28,0,0-1.06-.6-.16.44-.16.09-.56-.2,0,.15.11.32-.34.25-.4-1.41-.89,1.47,0,1.24a2.29,2.29,0,0,1,1.51,2.49c.53.19,1.7-.16,1-1.15a1.19,1.19,0,0,0-.33-2C37.32,54.5,36.53,54.26,37,54Zm.3-38c-1.49-.48,2-1.91.51-2.43-.81.79-3.22,1.64-.36,2.87-.71.64-2.88-.81-2,1.88.74.35,1.12.25.47-.68.49-.48,2.13,0,2.25-2.17C38.32,15,37.41,15,37.3,16ZM28.62,49.73c.52-.64.4-1.61-.67-.26-.27-1.23.23-3-.44-4.82-.46,1.29-.27,2.64-.07,4.67-.64-.91-.49-.56-.6,1.68.37.57.5-2.21.8,0,.25-.17.46-.26.11-1.26.62-.08.64,2.16,1.14,1.11-.14-.35-.66-.6.3-.78C29,52.11,30.82,50.11,28.62,49.73ZM23.8,27.38c.11.05,2.89,4.29,3.25,2.36-1.14-.28-2.66-4.25-4.06-2.65.12.23-1.82,2.86-.13,2.46C22.64,28.89,23.74,28.69,23.8,27.38ZM11.66,20.05c3.4-1-4.67-6.65.22-1.33,0,.27.48,1.89-1-.16-.82-.24-.67,1,.59,1.92.07.16.49.65-.33,1.38C11.86,22.58,13.65,20.81,11.66,20.05Zm17.89,23.4c.84-1.35,2.12-5.72.87-8A79.51,79.51,0,0,0,29.55,43.45Zm-13.9-22c-.54-1.05-.42,1-.37,2.27-1.47-1.67-.17.59-.35,1.37-1.29,0,.13.78-.47,1.83.07,1.73,2.2-3.24,1.19-5.44Zm24.76,32.4c-.22,2.15.08,4.68.11,8.23A13,13,0,0,0,40.41,53.85ZM27.27,26c-.6-.42-.94-1.49-2.55-2.47-1,1.55-.3.76,1.88,3.38C26.78,26.81,27,26.68,27.27,26ZM21.58,48.79c-.59.12-.64-2.54-1.07-.41-.68-.48-1.52.92-1.05,2.76-.1-.56.92-1.94.75,0,1.16-.57-1.05-1.07.29-2.32a4.51,4.51,0,0,1,.56,2.3c-.11-.46.79-1.43,1-2C21.77,49.09,21,49.91,21.58,48.79Zm-3.45-6.36c-.59-1.47.14,1.74-1.48,5.63C19.27,47.8,17.82,45.57,18.13,42.43ZM19.9,18.35c-.44-.38.08-2.29-1.26-.74-1.49-1-.09.19.48,1.85.31,1.5,2.7-2.22,1.29-1.06C20.5,18,20.1,17.13,19.9,18.35Zm8.88.14c-1.39-.95,0,.11-.21,1.26-.35.22.39.6.9-.45.59-.21,2.12-2.13.18-2.77,0,0-.37.21.09.4.18.2.49.49-.4.2.3.4.45,3.17-.31.13a2.5,2.5,0,0,1-.11.9l-.25-.59C28.51,17.91,28.75,18.19,28.78,18.49Zm1.31,27.39c-.14,3.21,2.05,3,.69-1.87C30.31,43.64,30.12,44.75,30.09,45.88Zm9,7.84c-.44,2.52-.13,5.43.16,9A31.93,31.93,0,0,0,39.09,53.72Zm-20-38c.5-1-1.47-1.77-1.65,0,.67,1.33,2.27,2.1,2.18-.84-.49-.28-.15.12-.56.81Zm14,12.41c.54-.82-.06-1.7-.79-1,.32.4.58,2.56,1.22.82.52.66-1.6,2,0,3.14-.56-1.46.52-.23.7-2.62-.06-.42-.54-1.61-1.14-.37ZM16.92,18.89c-1.3-2.2-.85-.54-.41,1.78-.92-1.32-1-.22-.38,1.55.49-1,1.47-2.17.91-4.06C16.9,18.39,17,18.25,16.92,18.89ZM13.18,37.14a3.26,3.26,0,0,0-.7-1.74c-.26.88-.45,3.9.47,5.18.21-.55,0,0,.17-1.31A18.94,18.94,0,0,1,13.18,37.14Zm22.4-10.91c-.36-1-.41-.05-1.25.67-.23-.1-.62-.7.23-1.7-.77-1.77-1.43,2.05.33,3.5C34.77,27.8,35.06,27.78,35.58,26.23Zm-13-1.14c-.74-1.23,1.47-.86,1.51-2.68-.38-.35-.06-.22-1.14,0,.11.14-2.33,2.12-.34,2.68Zm16.2,3.55c2.43-4-1.73.44,0-2.14,1.22-2-2.9-.31,0,2.14ZM24.16,25c.25-1.6-4,1.38-1.61,2.44.13,0,.23-.07,0-.55C22.68,25.85,23.39,26.49,24.16,25ZM39.74,53.89a63.59,63.59,0,0,0,.16,8.73A29.71,29.71,0,0,0,39.74,53.89Zm-15.31-39c-2.4.34.19,3.79,1.62.8-.5-.14-.66,1.13-1.44.56C25.39,15.93,26.22,15.53,24.43,14.89Zm11.73,6c.16,0,0,0,.33-.1-1.21-.92,2.84-1.79,1.28-3.25C37.82,17.88,34.82,19.55,36.16,20.89Zm-2.89-3.22c-.87-.89,1-.46,2-1.38C35.61,14.62,30.54,16.65,33.27,17.67Zm-19.6-2.84c-1.9,1.23,4.12,4.36,1.08,1C14.81,15.51,14,15.68,13.67,14.83ZM27.29,28.05c.29.18-3.42-3.81-2.57-1,.31.49.7.12,1.55.8.09.16,0,.17-.14.88C26.47,28.71,26.6,29.05,27.29,28.05ZM7.72,53.77c-.18,2.52.62,5.78-.16,9.35C8.67,61,8.34,57.19,7.72,53.77Zm17.13-31.5c.4.83.46,1.09,1.91,2.11-.05.31-.48,1.27.45.52C27.42,24.24,26.53,22,24.85,22.27Zm6.86,31.18c.12-.87-3.26-.65-1.22.36,0,.26-.29.38.24.62-.22.76.74,3,1-.36C31.21,54,31.78,54,31.71,53.45Zm3.07-39.9c-1.12-.18-4.06,3.09-1.34,1.64C34.09,15.23,34.59,15.33,34.78,13.55Zm-13.72,6c-1.4-2.49.5,5.17,1.62-.11-.52.1-.33,1.17-.75.1-.36.25-.4.66-.5-.45ZM6.73,18.9c-.19.07,0,.09-.13.63.18-.21-.87-1.75-.66-.57.2.12.42,1.06-.33.07-.43,2.3,5.45-.18,1.71-2,.11.91,2.24,1.4-.34,2.47C6.81,19.36,7,19.51,6.73,18.9Zm17.9,12.5c1.23,3.52,2.79-.6-1,.05C22.44,32.93,22.49,34.79,24.63,31.4ZM41.74,20.54c.41-.07,1.59-1.66-.22-.34.1-.62,1.08-1.66-.34-.48,0,0,.32-.88-.37-.28-.5-.85-1.36.45.18-2.37-.22.44-2.65,2.48-.52,2.71C40.65,19.4,41.72,21.48,41.74,20.54ZM10.37,33.05c.27.05,1.41-1,1.6-2-.17.19-.92-2-1.45-1.46-.35.48,2.58,2.9-.27,1.72-.05,0-.6-.4-.3.23C10.15,31.78,11.32,32.34,10.37,33.05ZM33,19c-.35,1,2.13.09,1.64-1.5C34.11,17.13,33.26,17.8,33,19Zm2.13,41.69-.27,1c.16.06.36-.1.28.37-.12,0-.25.07-.34-.12,0,1.43.59,1.91,1.65-.74-.53-.37.1.1.79-.58a7,7,0,0,1-2.1.1Zm-7.3-32.48c-.75.35.55.6.73,2.15,1.32-.58.32-2.11-1.17-3.18C27.4,27.68,27.29,27.34,27.83,28.21Zm.71-1.73c2.26.76-.3-3.79-.81-1.75C27.32,25.27,29.2,25.26,28.54,26.48ZM17.68,39.27c-.11-.73.71-3.49-.11-4.48C17.05,35.92,17,37.2,17.68,39.27Zm-3.62-7c.3,0-1.35-2.07-1.29-1,.08.34,1.23.77.53,1.63-1.44-2-1.2,3.82.76-.72Zm7.14-5.49c-.53.4-2.25,2.14-.52,2.67-.61-1.38,1.63-.45.52-2.71Zm3.57-7c.52.32.12,1,.14,1.66.58.08,2.44.22,1.18-1.71-.16.23-.08.06-.23.68a.89.89,0,0,0-1-.72h-.06ZM7,62.08c.72-1.62,1.4-6.48-.37-8.27A14.56,14.56,0,0,1,7,62.08ZM21.84,21.85c-.48-.41-2.39,2.79-.86,2.07C20.74,23.43,23.25,22.59,21.84,21.85Zm4.8-2.22c-.12.69.4.24-.07,1.66.27.09,1.95,0,1.45-1.64.17,0,.46-.23-.19-.87-.1.37,0,.75-.18,1.11C26.83,18.7,27.86,20.94,26.64,19.63ZM4.93,18.51c.56-1.12.8-.09,2.09-2.09.19-.19.18-.73-.49-.15-.18.3-2.14.46-2,1.72C5.07,17.53,5.48,16.74,4.93,18.51Zm22.69,6.86c1.59,2.68,1.28,2.84,1.69,2.09-2-1.7-1.32.25-.41.75C29.07,27,28.48,26.6,27.62,25.37ZM38.91,24c-.61,0,0-1.67-.84-1.69-.46.19-.92.1-.53-1,.63-.34-.51-2.18-.65.73-.27.66,2.23.3.87,1.19C38,23.27,37.86,23.71,38.91,24Zm-5.5-3.23c.13.33.47,1.25,1-.3,0-.19,1.43-.4.69-1.31-.51-.16-1.2.6-1.69,1.59ZM23,19.68c-.77.18-.1,2.78,1.45,1.44-.07-.21-.71-.09-.4-.91.15-.33.45-.88-.48.09-.05-.2,0-1-.45,0Zm4.27,2.45C26.21,22,28.54,24.93,29.2,24,29.23,23.26,28.46,23,27.27,22.13Zm8.63,8.2c-.78-.74,1.86-3,.26-3.4C35.74,27.82,34.89,28.54,35.9,30.33ZM29.06,14.5c.56-1-2.19,1.33-1.39,2.31C27.93,16,29.78,16.12,29.06,14.5ZM41.71,54.61c-.36,1.15-.1,3.56-.17,6A13.08,13.08,0,0,0,41.71,54.61ZM8.41,59.23c.93-1.15.24-3.17-.22-5.12C8.19,55.25,8.28,57.1,8.41,59.23ZM19.53,30.86c-1-.15.46-2.41-.74-1.82-.87.73.84,1.63-.06,2.23C18.45,31.69,19.09,33,19.53,30.86Zm13.07-.28c-.09.62-1.53,2.46-.79,2.89C32.28,32.9,33.29,32.17,32.6,30.58Zm1.16,3.78c-.25.73,1.17.53,1.33,1-.16.2-.29.94.58.92C35,35,37.22,34.57,34,34.65,34.06,34.62,35.19,32,33.76,34.36ZM24.12,30c.25-1.21-2.46.68-1.37,1.79C23,31.12,23.34,31.3,24.12,30Zm13.4,18.74c.59.4,1.13,2.55,1.72,3.14-.27-.73.28-1.72.5-.22.68-.86-.41-.84-1.27-2,0-.32.12-1.27-.95-.93Zm-18.91-23c-.32-.57,2.44-1.62.65-2.06-.19.14-1.76,1.19-.65,2Zm2.19,1c-.8-.21,1.71-2-.18-2-.24.06-1.3,1.35.18,1.93Zm6.63,5.65c-.12,1,2,2.7.57-.54.12,0-1.1-1.7-.57.47Zm7.31-2.81c-.16.2-2,2-.09,2.63-1-.71,1-1.3.09-2.7Zm2.91,22.13c.2-.1,1-2.54-1-2.74-.37.27,0,.63.66,1.44.17.08.38.15.34,1.23ZM14.27,31.08c.44,0-.09-1.08,1.12-1.26.09.13-.12-1.32-.69-.44C13.47,29.78,13.52,29.27,14.27,31.08ZM21.37,35c-.7-.58,1.23-1.62.39-2.32C21.37,33,19.62,34.64,21.37,35ZM26.08,6.24c-.14,1.82,2.39-1.77.58-1.24C26.44,5.19,26.24,5.34,26.08,6.24Zm-5.71,25c-.19-.57,0-.85,0,0,.51-1.49.73-1.82,0-.85C21.05,31.27,22.41,29.58,20.37,31.24Zm15,2.36c-.36-.71.64-1.58.31-2.75-.29.6-1.74,1.64-.29,2.75ZM18.86,28.21c.34-.58,1.19-3.63-.63-.68C18.3,27.54,18.09,28.25,18.86,28.21Zm5.41,4.72c-.08.8-2.54,1.31-1.23,2.52C23.22,34.57,24,34.78,24.27,32.93Zm.06-3.66c-.52,0,2.06,3.47,1.45,1ZM11.63,48.91c-.41-.85-2,.52-.79,1.47C11.4,50.06,11.06,50,11.63,48.91ZM38.4,31.67c-1.48-.94,1.26-.77-.06-2.46C38.79,29.5,36.15,31.65,38.4,31.67Zm-19.79-9c.13.81,2.39-1,1.21-1.28-.18.49-.82.1-1.21,1.32Zm-1.83,28.4c-.1.09,1.71-3.65.44-2.42.19,1.09-2,1-1.08,2.45C15.79,50.2,17,49.52,16.78,51.07Zm-.07-38c.26.61-1.55.82-.84,1.43.31-.31.39,1.72,1,.91A10.8,10.8,0,0,1,16.71,13.07ZM28.57,31.74c.61-.34-.07-1.32-1.06-2.56C26.78,30.15,28.29,30.41,28.57,31.74Zm8.47-.8c-.26-.65,1.12-2,.24-2.51A2,2,0,0,0,37,30.94ZM8,63c.26,0,1.16-2.63,1.09-3.16C7.73,59.59,8.78,61.16,8,63ZM22.52,6c.15-.93-2-1.29-.39.83C22.49,6.6,22.29,6.85,22.52,6ZM9.15,58.53c.36-.6.89-1.61-.25-2.36A4.53,4.53,0,0,0,9.15,58.53Zm11.6-25c-.6-1,1.16-1.13.85-2.45-.39.11-1.94,1.31-.85,2.48Zm3.89-.3c-.51.78,1.77,2.52.77,1.2.43-.17.42-.76-.77-1.17ZM6.57,54.9v5.68C6.93,60.31,6.93,55.79,6.57,54.9Zm7.2-25.8c1.09.29,1-2.18-.06-1.71C15.25,29.11,11.82,28.38,13.77,29.1ZM8.84,50.05c-.87,1.54,2.21-.34,1.09-1.69C9.63,48.4,9.93,50,8.84,50.05Zm22.71-27c0-.74-2.36-1.52-.78.25.36.32.13.3.78-.22ZM15.48,50.29c.15-.53,1.36-.38,1.2-2C16.41,49.35,14.93,48.37,15.48,50.29Zm15.07-26.8c-.43-.67-1.29-1.89-.95.64C30.18,24.13,29.9,24.31,30.55,23.49ZM8.67,28.3c-.23.28.68,1.4.6,2.25C10,30.22,10.15,29.75,8.67,28.3Zm21.67-2.12c.88-.1,0-2.89-.69-1.1C29.73,25.31,30.38,25.3,30.34,26.18Zm2,24c-.12,0-.05-.28-.51,0,.07-.84-1.55-2.81-.28.39.45.93,0,.36.8-.42ZM30.5,28c.63,0,.74-2-.74-1.33C29.55,27.22,30.62,27.1,30.5,28ZM14.36,33.78c.55.13,1.72-1.66.26-1.61C14.68,32.49,14.26,33.29,14.36,33.78Zm21.54-.4c.27,1.12.62.52,1.15-1.57C36.79,32.34,36.59,31.93,35.9,33.38ZM15.86,61c.32.41,1.93.78.79,2.18C17.93,63.54,17.9,61.29,15.86,61Zm2.23-39.17c.8-.3.89-2.59-.25-.86-.1.22-.18.41.25.89Zm13,3.28c1,.62,1.26-2.18-.16-1-.21.22.69.49.07,1ZM30.48,30c.87-.37-.94-2.94-.87-1.08A2.62,2.62,0,0,1,30.48,30Zm7.69,31.1c.17.09-.88,2.16.11,2C38.29,62.69,39.33,62,38.17,61.1ZM21.08,63.55c-.21-.68-3.09,1.07-.9,1.07C20,64.18,20,64,21.08,63.55ZM31.31,27.61c.67.14.57,2.15.88,1.91C32.13,29.62,33,27.28,31.31,27.61Zm-14.38-10c.08-.21-.29-2.51-1-1.33a2,2,0,0,0,1,1.35Zm.54,34.92c.16.13.75-.76.77-1.29-.24-.24-2.07,1-.77,1.31Zm5-3.23a34.07,34.07,0,0,0-.26-4.4,9.07,9.07,0,0,0,.24,4.42Zm-6.4,3.18c1.06-.06.9-2.4-.4-.29-.08.19,0,.21.38.31Zm3.74,11c.19-.23-2.25-.23-1.27,1,.76.14-.19-.38,1.25-1ZM27,33.73c-.11-1-1.57-.37-.6.71.23-.16.43,0,.58-.68ZM23.2,13.07c-.62.28-1.49-2-1.78-.62C21.66,12.78,21.87,13.1,23.2,13.07ZM16.91,28.65c-.21-.51-.11-.75,0,0C17.63,28.34,18.08,25.7,16.91,28.65ZM33.3,24.94c0,.11,1.46-1.64.27-1.45C33.68,23.74,32.74,23.75,33.3,24.94ZM25.68,12.31c.35.86,1.86-.63.8-1.23C26.06,11.34,26.86,12,25.68,12.31ZM17,29.88c-.2,1.19,1.72-.87.65-1A1.58,1.58,0,0,0,17,29.88ZM41.37,15.25h0C41.68,15.93,43.55,14.24,41.37,15.25ZM32.21,26.31c-.17.47-.38.55,0,0C32.4,25.61,30.14,25.59,32.21,26.31Zm1.32,5.42c-.23.3-1.36,1.81,0,2.18C32.91,33.12,33.58,33.31,33.53,31.73ZM18.31,31c-.19.49-.31.7,0,0C18.3,29.76,16.5,32.06,18.31,31Zm-1.14-6.8c-.3-.34-.16-.56,0,0,.76-.2,1.28-2.2,0,0ZM15.12,10.51c-.83.18-1.25.08,0,0,0-.14,0,0-.26-.25C15,10.36,12.9,9.24,15.12,10.51Zm5.24,56.23c-.39,0-.48-.37,0,0C21.39,66.76,19.63,64.61,20.36,66.74ZM12.08,34.55h0C12.12,32.24,10.49,36.33,12.08,34.55ZM22,51.24c-.76-1.31.06-.91.5-.32C23.05,49.38,20.18,49.85,22,51.24Zm6.4,15.11c.27-.63-1.44-.95-.63.38.48.17.08,0,.67-.38Zm4.5-14.72c.74,0,1,.28,0,0a3.89,3.89,0,0,1,.76,1C34,52.81,34.47,52.91,32.9,51.63ZM30,31.05c.52,1.41.83-1.4-.56-.26C29.47,30.91,29.56,31,30,31.05ZM9.93,51.65c1.42.48,0-2.61-.13-.55C9.77,50.52,10.7,50.68,9.93,51.65ZM29.46,65.84h0C29.27,66.68,31,67.25,29.46,65.84Zm-7.79,0c-.82-.27-.45,1.94.38.41.07-.25.05-.06-.38-.37Zm5.12,0c-1-.19.27,1.79.53.47-.05-.17,0-.38-.53-.44ZM17,26.52c.34.06,1.06-2.1.1-1.31C17,25.49,16.91,25.35,17,26.52Zm1.33,37.06c-.15-.47-2.4.62-.5.92.24-.32-.53-.45.51-.92Zm7.38,2.29c-1.24-.12.65,1.86.48.09a3.55,3.55,0,0,0-.47-.09Zm3.74-32.31c.22.16,1.27-1.24.06-1.63-.39.55.34.23-.05,1.63ZM18.21,52.37c.21-.73.48-1,0,0C18.68,52.76,20.16,50.82,18.21,52.37ZM28.9,65.74c-.55-.15-.19,1.75.5.76C29.28,66.4,29.53,65.85,28.9,65.74Zm6-13c.35.09.41-1.29-.75-1,.22.2.05.66.75,1ZM13.48,52.6c.31-.09.27-.3.82-1.12C14.12,51.27,12.62,52,13.48,52.6Zm5.64,14.06c.63.13.24-1.43-.52-.77C18.69,66.29,18.46,66.33,19.12,66.66ZM24.06,35.2c-.48.76.68,1.65.52-.23C24.52,35,24.31,34.69,24.06,35.2Zm-4.68-1.26c-.55,0,.57-1.29.09-1.65C19.16,32.62,18.19,33.54,19.38,33.94Zm9.87,17.61c.7,0,.92.3,0,0C29.22,51.66,31.06,53.86,29.25,51.55Zm-.71-29.22c.08.32,1.73-.61.2-1C28.58,21.48,28.74,21.52,28.54,22.33Zm2.61,43.48c-.74,0,.09,2,.51.24C31.63,66,31.68,65.86,31.15,65.81ZM8.78,19.49a2.24,2.24,0,0,0-2.14,1.22C7.2,20.57,7.39,20.08,8.78,19.49Zm4.51,32.13c-.26-.54-1.85.69-.84,1C12.86,52.55,12.37,52.16,13.29,51.62Zm2.38,0c-1,.86-1.27.86-.64.85.43-.81-.09-1.36-.63,0,.88-.47.6-.11,1.27-.9Zm19.49.22c.08.29.81,1.51,1.15.9-.25-.1,0-.8-1.15-1Zm-3.4-.25c-.28,0,1.14,1.86,1.05.66-.31-.32-.19-.67-1.05-.71Zm-3.57,0c.85.37.53.25,0,0,.24.3.32.15.54.83.12.22,1.27.51-.54-.93Zm.89,12.34c.67-.06.9.2,0,0,0,.17.78,1.73,0-.1Zm-6.85,2.4c-.28.9,1.79.24.39-.35-.36-.09,0-.11-.39.25Zm-.54-2.55c-.5-.4-2.18,1.16-.4.92-.23-.7-.22-.7.4-1Zm10.24.15c.08.54,1.33,1.41.89.14-.3-.24-.22-.36-.89-.24Zm-15.75.43c-.61.13-.74-.06,0,0-.09-.67-.37-1.89,0-.1Zm10.91-.49c.43-.14.61,0,0,0,0,.48,1.84,1.53,0-.1ZM9.71,58.66c-.21-.19-1.6.51-.82,1C9.36,59.62,9.2,59.19,9.71,58.66ZM33,26.58c-.17,0,.63-1.6-.16-1.44A1.08,1.08,0,0,0,33,26.58Zm3.2,25.35c0-.33.92,1.92,1.15.54C37.22,52.21,37.12,52,36.2,51.93ZM23.36,64.07c.59.05.88.1,0,0C23,64.52,24.88,65.24,23.36,64.07Zm7.1-12.48c.17-.13.74,1.66,1.18.72C31.29,51.94,31.51,51.67,30.46,51.59ZM18.3,32.71c-.09-.9-1.27.27-.31,1A7.21,7.21,0,0,1,18.3,32.71ZM18,66.64c.69.34,0-1.69-.5-.6C17.55,66.41,17.39,66.36,18,66.64Zm14.12-.28c-.16.8,1.6,0,.11-.61-.13.08-.23,0-.16.61ZM23.25,64c-.31-.38-1.67.43-.22.77C23.24,64.7,23.06,64.76,23.25,64Zm8.4-18.7c.15.46-.55.53.64,2.28a7.78,7.78,0,0,0-.64-2.26Zm-14.92-34c-.07-.64-.76-1.28-1.24-1.11.34.45,0,.55,1.24,1.12ZM17,66.63c-.59,0-.69-.34,0,0C17.28,66.3,16.14,65,17,66.63Zm9.45-1.91c.71.36,1-1.22-.26-.83a1.46,1.46,0,0,1,.29.83Zm-11-33.24c.22,0-.72-1.64-.58-.6.13.18.29,1.63.65.6Zm7.92,34.85c-.43,1,1.88-.42.1-.42,0,0,0,.09,0,.42Zm-9.87-3c-.23-.36-1.92.66-.38.79.27-.28-.52-.38.45-.76Zm11.48,3c.19-.7-1.35-.5-.43.36.24,0,.45.09.5-.37Zm-4.46-15c-.36-.59-1.9,1.64-.54.68.12-.18,0-.24.61-.71ZM12,51.58h0C11.86,51.13,10.52,53.07,12,51.58ZM30.36,64.69c.54.35,1.25-.87-.29-.88C30.32,64.09,30.44,64,30.36,64.69Zm-8-.84c-.14-.44-1.69.85-.11.74C22.21,64.23,22.16,64.5,22.36,63.85ZM9,52c.37.25.72-1.66.09-.86C9.31,51.39,8.12,51.58,9,52Zm7.85-19.86c.19.09.31-1.07-.55-.86,0,.18-.17.46.53.86Zm7.84,32.2c-.18.57,1.53.39.46-.27-.15.06-.36-.07-.48.27Zm6.1-42.74c.05-.34-1-2-.47.08C30.31,21.71,30.53,22,30.79,21.6Zm0,12c-.28-.1-.31-.29,0,0,.51-.23.21-2,0,0ZM16.27,47.14l.48-2.33A2.52,2.52,0,0,0,16.27,47.14ZM28.38,64.77c.76.19.73-1-.3-1C28.34,64.17,28.28,63.85,28.38,64.77Zm3.3-33.32c-.08-.33-1.11-1.41-.45.35C31.36,31.94,31.46,32.09,31.68,31.45ZM16.18,23.8c0-.28.05-.41,0,0C16.18,25.13,17.42,22.87,16.18,23.8ZM14.52,63.36c-.19,0-.21-.25-.9.33-.08.46-.12.15.69.45C14.29,64,13.79,63.72,14.52,63.36ZM24.2,65c-.21.51-.55.51,0,0C24.13,64.76,22.17,65.41,24.2,65ZM9.63,52.73c.27,0,1.14-1.71-.23-.5C9.45,52.28,9.13,52.49,9.63,52.73Zm5.59,12.93c-.35,0,.1,1.58.51.73C15.61,66.31,15.83,66.05,15.22,65.66Zm5.22-13.59c-.19.51,1.3-.41.67-.82C20.94,51.32,20.77,51.41,20.44,52.07Zm-9.3-.39c-.1.51-.17.75,0,0C10.76,51.36,9.91,53,11.14,51.68ZM31,29c.34-.15-.09,1.35.68,1.08A.88.88,0,0,0,31.06,29ZM25.18,65c-.06.15-.86-.39-1,.5C24.32,65.4,25,65.78,25.18,65ZM17.1,63.5c0-.35-1.66.6-.19.86C16.81,64.12,16.6,63.91,17.1,63.5Zm17.33,2.6c-.11,0-.08-.32-.63-.18C33.75,66.29,33.62,67.28,34.43,66.1ZM32.77,49.81c-.08.1,0,0,0,.33.12-.11-.05,1.84.56.65C33.25,50.49,33.43,50.71,32.77,49.81ZM16,30.23c0,.2.66-1.42-.2-.89A1.25,1.25,0,0,0,16,30.23Zm-2.88,4.43c.38-.49.45-.79,0,0,.47.34,1.31-.66,0,0ZM25.64,64.73c.16-.34.07-.52,0,0C26.57,65.13,26.24,63.36,25.64,64.73ZM15.35,63.37c-.32-.06,0,0-.82.43,0,.39-.06.07.66.42C15.2,64.07,14.75,63.77,15.35,63.37Zm23-10.62c.34-.19-1.26-1.18-.64-.46C37.9,52.21,37.88,53.46,38.35,52.75Zm-3.59,11.6c.3-.12-1-1-.47-.08C34.38,64.42,34.58,65.09,34.76,64.35ZM17.39,22c-.15.34-.26.5,0,0C17.3,21.24,16.34,22.08,17.39,22ZM16.2,27.1c.25.18.45-1.53-.14-1A2.27,2.27,0,0,0,16.2,27.1ZM31.13,63.76c.2-.07.05,1.45.76.79A1,1,0,0,0,31.13,63.76Zm4.11,0c-.44-.21,0,1.42.38.48C35.53,64,35.67,64,35.24,63.76Zm-1.79.94c.34.21.68-1.12-.48-.9C33.35,64,33.63,64.25,33.45,64.7ZM14.36,66.64c-.08,0,.42-1.26-.4-.81C14,66,13.82,66.17,14.36,66.64ZM33,34.37c.43.24.32.48,0,0C32.53,34.29,32.92,35.56,33,34.37ZM27.06,32c.13,0-.67-1-.62-.3C26.51,31.65,26.66,32.71,27.06,32Zm-1,33c-.08.14-.7-.4-.89.48C25.82,65.56,26,65.49,26.06,65Zm-3.73.45c.63.21.86-1.1-.23-.18C22.05,65.35,22.11,65.41,22.33,65.45Zm9.74-31.74c-.23.17,1.19.92.41-.17C32.45,33.48,32.26,33.34,32.07,33.71ZM16.39,28c0-.55-.93-.6-.35.17C16.07,28.13,16.26,28.45,16.39,28Zm5.26,37c-.76-.12-.52,1.06.31.08A1.57,1.57,0,0,0,21.65,65ZM35,66.58c.26.19,1.08-.6.41-.91A2.35,2.35,0,0,1,35,66.58Zm7.22-8.34c0-.11.67-.44,0-1.23ZM37.4,63.15c-.13-.4.71-1,0-1.13-.13.33-.25.1,0,1.13Zm-4.09-9.81c-.12.33-.28.34,0,0s-1.13-.45,0,0ZM6,58.72s.88-.47,0-1.2A2,2,0,0,1,6,58.72ZM17.2,33.25c.25-.49-.95-.5,0,.48C17.28,33.66,17.33,33.64,17.2,33.25ZM12.91,65.77c.31.06.27.27,0,0C12.44,65.58,13.07,67.27,12.91,65.77ZM20.56,65c-.76-.1-.3,1,.38.06C20.86,65.09,20.88,65,20.56,65Zm-9.9-1.09h0c.13-.41-.54-1.25,0,0ZM31.5,48.17a.94.94,0,0,0,1-.37.75.75,0,0,0-1,.36ZM9.86,63.23c0-.23-1.46.25,0,.61C9.72,63.66,9.33,63.61,9.86,63.23Zm2.5.17c-.65.42-.83.08-.24.4,0-.58.24-.4-.59-.32C12.05,63.62,11.84,63.6,12.36,63.4Zm14.16,1.65c-.6-.18-.28.9.37.18C26.88,65.13,26.85,65.1,26.52,65.05ZM39.45,52.33c.11.07-.11.36.32.73C40,52.78,40.18,52.76,39.45,52.33Zm-12,12.74h0c-1.06,0,.71.93,0,0Zm-21-46.63A6,6,0,0,0,7.23,18c-.17-.25,0-.18-.84.26a.16.16,0,0,0,.07.18ZM28.39,65.09h0C27.26,65.05,29.09,66,28.39,65.09ZM25.86,35.72c.08-.28.09-.42,0,0C26.05,36.13,26.63,34.39,25.86,35.72Zm2.45,16.51h0C28.86,51.84,26.1,51.07,28.31,52.23ZM36,64.53c.15-.06.22-.34-.16-.83C35.77,64,35.8,63.75,36,64.53ZM9,52.11c-.3-.13-.8.72-.08.65A.62.62,0,0,1,9,52.11Zm23.3-3.85c.23.07-.17,1.21.3,1.15C32.67,49.2,32.71,49,32.3,48.26ZM25,36.58c.11-.36.17-.54,0,0C25,36.81,25.88,35.85,25,36.58ZM36.69,64.4c.21-.08.45-.17,0-.68C36.44,63.79,36.44,63.73,36.69,64.4Zm-25.26-1c-.26.23-.11.45,0,0-.07-.33-1.1.32,0,0ZM16,25.2c.14-.3.23-.45,0,0C16,25.62,16.8,25.11,16,25.2ZM38.72,52.25c-.12.22,0,0,.23.61C39.23,53,39.5,52.85,38.72,52.25ZM15.21,27.72c.08-.4-.92-.08-.13.39C15.12,28,15.21,28.08,15.21,27.72ZM32.57,51c.1-.14-.62-1.43-.22,0C32.34,51,32.46,51.29,32.57,51Zm6,.62c0-.21.47-.58-.76-1.26.11.5.74,0,.8,1.26Zm-33.24-33c.1,0,.23,0,.45-.8-.32.18-.28,0-.41.84ZM37.73,64c-.19-.39-.38-.5-.66-.42C37.21,63.53,37.1,64.37,37.73,64ZM7,17.45c-.14-.06-.49-.15-.83.58C6.43,18,6.35,17.91,7,17.45Zm9.16,31.14a1.15,1.15,0,0,0,0-.89.58.58,0,0,0-.12.8l.09.09ZM29.27,33.41c-.1.25-.23.21,0,0C29.22,33.15,28.56,32.72,29.27,33.41ZM19.72,65c.22.06.23.11,0,0C19.28,64.93,19.33,65.93,19.72,65ZM30.47,48.46c-.11,0-.1-.56-.57-.57C29.9,48.09,29.89,48.29,30.47,48.46ZM18.58,65.39c.09-.08.22.21.62-.23C19,64.88,19.16,65,18.58,65.39ZM6.05,13.86a2.29,2.29,0,0,0,.62.17C6.83,13.79,6.87,13.64,6.05,13.86ZM18.19,65c-.4-.09-.48.92.23.1ZM41.61,18.81c.33,0-.77-.84-.62-.48A2.4,2.4,0,0,1,41.61,18.81ZM29.91,65.07c.26,0,.25.18,0,0S29.63,65.78,29.91,65.07ZM17,65.34c.2.1,0,0,.59-.11C17.53,64.92,17.64,65,17,65.34Zm15-16h0c.52-.12-.38-1.59,0,0ZM30.68,65.08c.22,0,.22.14,0,0C30.24,64.94,30.37,65.83,30.68,65.08Zm-1.51,0c-.07.08-.42.07-.07.38C29.14,65.53,29.8,65.16,29.17,65.08ZM8,18.51c0-.28-1-.64-.21.13C7.85,18.64,7.93,18.75,8,18.51Zm8.25,46.88c.09-.08.2.16.61-.2-.17-.27,0-.19-.62.2ZM27.88,34.9c-.1.12-.18.14,0,0S27,34.35,27.88,34.9Zm9.83,28.62.27.35C38.22,64,38.51,63.87,37.71,63.52Zm.63-.24s.1.8.45.46C38.73,63.62,38.82,63.46,38.34,63.28Zm-4-27.48c-.08.28-.23.27,0,0s-.74-.09,0,0Zm-3,29.28c0,.06-.48,0-.09.35C31.25,65.49,31.92,65.26,31.3,65.08ZM27.74,34c-.37-.09-.42-.27,0,0C27.75,34.06,27.51,33.09,27.74,34ZM38.22,51.72c.23-.22.27-.64,0-.78A1.16,1.16,0,0,0,38.22,51.72ZM16.06,65.09c-.46-.06-.54,0-.57.25C15.82,65.43,16,65.35,16.06,65.09ZM7.27,18.91c.07-.16.19-.12-.19-.4C7,18.63,6.67,18.73,7.27,18.91ZM32.16,65.42c-.22,0-.29-.07,0,0C32.64,65.31,31.7,64.8,32.16,65.42ZM19.84,50.26c-.05.19,0,0,0,.54C20.13,50.84,20.09,50.93,19.84,50.26ZM14.76,65.31c.33.08.52,0,.51-.23C14.81,65,14.79,65.08,14.76,65.31ZM39.48,51.75c.13-.06.11-.11,0-.66C39.33,51.05,39.27,51,39.48,51.75ZM33.39,61.82c.08.23,0,.34,0,0C33.14,61.84,33.14,63,33.39,61.82ZM8.72,51.27c-.09-.11.29-.21-.05-.6C8.49,50.84,8.5,50.7,8.72,51.27ZM32.81,65.1c-.09.09-.08,0-.26.13S33.39,65.52,32.81,65.1ZM16.47,50.82c.09-.09,0,0,.17-.46C16.45,50.29,16.36,50.21,16.47,50.82Zm12.67,0c-.08-.1.17-.19-.12-.55-.17.13-.15,0,.12.5ZM14,65.31c.34,0,.43,0,.47-.21C14.2,65,14.08,65.06,14,65.31Zm4.12-14.82-.21-.22c0,.08-.25.11,0,.46ZM33.47,65.15c-.07-.05,0,0-.2.08C33.36,65.46,34,65.24,33.47,65.15Zm-20.19,0c-.28-.09-.43,0-.48.16a.4.4,0,0,0,.48-.19Zm.13.16c.3.07.46,0,.45-.2-.34-.11-.38,0-.45.17Zm8.73-14.72c-.14.14-.19.14,0,0,0-.16-.6-.4,0,0Zm14.16.91h0c0,.09.57.34,0,0ZM34.38,65.35h0C34.67,65.35,33.85,65,34.38,65.35Zm1-.17s-.05-.06-.21.07c.08,0,0,.17.41,0-.08,0,0-.09-.23-.07ZM5.7,58.36a.41.41,0,0,0,0-.49A.38.38,0,0,0,5.7,58.36Zm28.89,6.81c0,.08-.08.18.37.15C34.87,65.19,35,65.14,34.59,65.17ZM24.75,20.52l-.16-.18c0,.07-.22.07,0,.36ZM12.64,65.13c-.29,0-.34,0-.39.14C12.51,65.32,12.59,65.3,12.64,65.13ZM27.35,50.82a.55.55,0,0,0-.08-.59A1.09,1.09,0,0,0,27.35,50.82Zm3.59-.32c-.13,0-.12,0-.11.28C31,50.74,30.94,50.81,30.94,50.5Zm4.78,14.71h0C35.63,65.31,36.16,65.39,35.72,65.21Zm-23.64-.07c-.13,0-.25,0-.28.13S12,65.31,12.08,65.14Zm19.66-8.65H32C32,56.35,32,56.35,31.74,56.49Z"/><path d="M20.22,9.82c.41-.47,2.5-1.82,2.65.1C22.06,9.05,21.89,9.57,20.22,9.82Z"/><path d="M28.57,9.81c-.66-.54-1.73,0-2.34.08C26.6,9.52,27.3,8.14,28.57,9.81Z"/><path d="M11.5,56.93c0-.14-.33-.25.37-1C11.88,56.19,12.05,56.19,11.5,56.93Z"/><path d="M12.05,56.63c-.1,0,.15.72-.3.74C11.68,57.2,11.64,57,12.05,56.63Z"/><path d="M12.3,57c-.09,0,.27.86-.16.87C12.09,57.71,12.05,57.56,12.3,57Z"/><path d="M11.69,55.47c.14.41-.25.53-.38.81C11.17,55.87,11.46,55.7,11.69,55.47Z"/><path d="M10.87,55.25c-.25-.09-.22-.37.1-.82C11,54.58,11.11,54.55,10.87,55.25Z"/><path d="M11.41,55c.07,0-.38,1.16-.36.32C11.16,55.24,11,55.22,11.41,55Z"/><path d="M10.84,54c-.32,0-.38.12,0,0C10.76,53.91,10.45,54.91,10.84,54Z"/><path d="M10.3,53.69l-.06.51C10.19,54.2,9.94,53.78,10.3,53.69Z"/><path d="M12.71,57.54c0-.1.47.26.19.3C12.9,57.77,12.71,57.81,12.71,57.54Z"/><path d="M10.05,53.47,9.92,54C9.89,53.78,9.7,53.75,10.05,53.47Z"/><path d="M32.9,55.48c-.23,0-.27-.14-.17-.38l-.35.19c.2-.17-.15-.77,1.22-.8-.57.47.6.88-.7,1.07C33.22,55.54,33.15,54.83,32.9,55.48Z"/><path d="M35,56.81c.15-.15.19-.22,0,0C34.91,56.81,34.91,56.3,35,56.81Z"/><path d="M24.61,52.13c7.34.33,7,10.81-.08,11C17.51,62.91,17.43,52.41,24.61,52.13Zm4.74,7.47-2.49-1-1.25-.48c.16.45,0,0,1,.91C27.52,59.43,28.62,61.52,29.35,59.6Zm-7.76,2.21c.37,0,.25-.24,1,.57A35.69,35.69,0,0,0,24,58.6Zm2-3.64L19.9,59.75c.34.19.33-.08.59,1a35,35,0,0,0,3.12-2.58Zm-2.17,3.52,2.41-3.21-.07-.07c-.34.78-4.1,1.91-2.32,3.28Zm3.67-5.06c.63-.42,1.28-1.7,2.48-3.18-.32,0-.28.22-1-.58Zm-4.69-2c0,.41.24.24-.56,1A26,26,0,0,0,23.66,57a40,40,0,0,1-3.24-2.4Zm2.23-1.74,1.6,3.71c.15-.75-.3-2.11-.49-4-.21.23,0,.3-1.09.26Zm1.2,4c-.63-.77-1.29-1.52-2.51-3.19-.1.41.18.3-.81.86a27.88,27.88,0,0,0,3.34,2.25Zm-2.37-3.28L24,56.7l.09-.05L22.5,52.94c-.19.33.05.33-1,.59Zm3.87,4.94c1,.48,1.8,4.18,3.3,2.35a26.74,26.74,0,0,0-3.28-2.43Zm-1.46,4.27c.06-.53.11-1,.32-2.67l.16-1.33c-.37.29,0,0-.59,1.22-.18,1-1.76,2.28.13,2.7Zm-.41-5.13-4-.49c-.15,1.63,1.75.88,4,.41Zm5.22-3.1L25.54,57c.76,0,2-.83,3.75-1.51-.29-.13-.29.07-.59-1Zm-2.17,7.9a25.81,25.81,0,0,0-1.69-3.66c.15,1,.34,2,.55,4,.37-.36,0-.41,1.16-.42Zm-1.39-3.78,1.56,3.72c.23-.36-.09-.28,1-.6a32.72,32.72,0,0,0-2.54-3.2ZM24,52.54l.59,4c.34-.69.26-2.12.56-4C24.79,52.75,25,52.76,24,52.54ZM29.7,57l-4,.6c.69.34,2.11.25,4,.55C29.49,57.87,29.47,58,29.7,57Zm-4.29-.11,3.16-2.49c-.33-.07-.31.13-.82-.82a37.57,37.57,0,0,0-2.34,3.28Zm-.18,5.89-.57-4c-.34.69-.27,2.11-.59,4,.34-.2.1-.36,1.16,0Zm4.15-7.09-3.71,1.62c.76.14,2.11-.3,4-.5-.25-.24-.34-.08-.29-1.15Zm.32,2.65-4-.45c.57.5,2,.79,3.73,1.57-.18-.34-.18-.61.27-1.15Zm-4.41-5.8a27,27,0,0,0-.29,4c.35-.93.66-1.88,1.5-3.76-.39.1-.3.36-1.21-.29Zm-5.45,7.07L23.54,58c-.75-.15-2.11.29-4,.47.29.29.28,0,.3,1.11ZM19.53,57a21.47,21.47,0,0,1,2.4.26l1.41.19c.16-.26.18-.07-1.06-.61C21.28,56.62,19.77,55.06,19.53,57Zm5.9.67c0-1.53-3.05-.33-.84.82.26-.06.51-.09.84-.84Z"/><path d="M14.17,56.22h0C14.21,56.12,14.89,56.41,14.17,56.22Z"/><path d="M14.6,56.41h0C14.5,56.36,14.8,55.93,14.6,56.41Z"/><path d="M15.76,55.52h0C15.79,55.42,16.49,55.71,15.76,55.52Z"/><path d="M15.26,54.77h0C15.15,54.7,15.49,54.27,15.26,54.77Z"/><path d="M16.32,54.56h0C16.35,54.46,17,54.74,16.32,54.56Z"/><path d="M15.57,55.53h0C15.68,55.6,15.34,56,15.57,55.53Z"/><path d="M14.07,55.73h0C14,55.65,14.3,55.23,14.07,55.73Z"/><path d="M13.49,55.75c.21,0,.29-.06,0,0C13.37,55.63,13.69,55.28,13.49,55.75Z"/><path d="M16,54c.11-.09.12-.15,0,0S15.7,53.56,16,54Z"/><path d="M16.54,53.79c.14.09-.33.34-.29,0Z"/><path d="M16.68,54h0C16.57,53.92,16.91,53.5,16.68,54Z"/><path d="M16.08,56.41h0C16.08,56.59,15.56,56.15,16.08,56.41Z"/><path d="M13.91,56.23v.19C13.73,56.41,13.38,56.36,13.91,56.23Z"/><path d="M14.89,55.73h0C14.85,55.83,14.17,55.54,14.89,55.73Z"/><path d="M14.86,53.4h0C14.83,53.5,14.13,53.22,14.86,53.4Z"/><path d="M13.23,54.63h0C13.35,54.7,13,55.12,13.23,54.63Z"/><path d="M16.68,53.33h0C16.57,53.26,16.89,52.87,16.68,53.33Z"/><path d="M12.94,53.31h0C13,53.21,13.65,53.49,12.94,53.31Z"/><path d="M14.9,54.6h0C15,54.66,14.68,55.07,14.9,54.6Z"/><path d="M16.68,56.94h0C16.65,57,16,56.75,16.68,56.94Z"/><path d="M12.93,54h0C12.82,54,13.15,53.56,12.93,54Z"/><path d="M15.26,56.4h0C15.15,56.34,15.48,55.94,15.26,56.4Z"/><path d="M13.55,54h0C13.43,54,13.77,53.57,13.55,54Z"/><path d="M14.59,53.85h0C14.59,53.66,15.33,54,14.59,53.85Z"/><path d="M15.24,54h0C15.13,54,15.45,53.57,15.24,54Z"/><path d="M15.26,53.17h0C15.29,53.08,16,53.35,15.26,53.17Z"/><path d="M17.86,53.1h0C17.89,53,18.56,53.27,17.86,53.1Z"/><path d="M17.5,53.15h0C17.61,53.21,17.29,53.6,17.5,53.15Z"/><path d="M14.07,54h0C14,54,14.27,53.57,14.07,54Z"/><path d="M15.6,56.74h0C15.71,56.81,15.38,57.2,15.6,56.74Z"/><path d="M14.07,53.51h0C14,53.44,14.29,53,14.07,53.51Z"/><path d="M13.8,53.31h0C13.91,53.37,13.58,53.79,13.8,53.31Z"/><path d="M15.77,53.33h0C15.66,53.27,16,52.86,15.77,53.33Z"/><path d="M16.55,53.15h0C16.66,53.21,16.34,53.6,16.55,53.15Z"/><path d="M13.86,54.83h0C13.86,55,13.12,54.66,13.86,54.83Z"/><path d="M16.07,54.59h0C16.19,54.65,15.86,55.07,16.07,54.59Z"/><path d="M16.07,56.9h0C16,57,15.35,56.72,16.07,56.9Z"/><path d="M14.38,54.83h0C14.38,55,13.63,54.65,14.38,54.83Z"/><path d="M13.05,62.34v-.23C13.16,61.94,13.58,62.43,13.05,62.34Z"/><path d="M14.56,62.33v-.22C14.66,61.93,15.13,62.43,14.56,62.33Z"/><path d="M13.86,62.36h0C13.63,62.48,13.43,62,13.86,62.36Z"/><path d="M12.8,62.35h0C12.68,62.52,12.26,62,12.8,62.35Z"/><path d="M14.1,62.13h0C14.14,62,14.86,62.32,14.1,62.13Z"/><path d="M15.46,62.13h0C15.58,62.2,15.22,62.73,15.46,62.13Z"/><path d="M16.06,62.13h0C16.18,62.2,15.83,62.74,16.06,62.13Z"/><path d="M12,62.09h0C12,62,12.69,62.28,12,62.09Z"/><path d="M11.14,62.9h0C11.11,63,10.4,62.71,11.14,62.9Z"/><path d="M13.86,63h0C13.82,63.12,13.09,62.82,13.86,63Z"/><path d="M13.05,62.75h0C13.08,62.64,13.81,63,13.05,62.75Z"/><path d="M14.87,61.65h0C14.84,61.76,14.11,61.46,14.87,61.65Z"/><path d="M14.56,63h0C14.44,62.91,14.81,62.41,14.56,63Z"/><path d="M13.36,61.38h0C13.48,61.44,13.12,61.94,13.36,61.38Z"/><path d="M12.49,61.37h0C12.53,61.26,13.26,61.56,12.49,61.37Z"/><path d="M13.79,61.45h0C13.92,61.52,13.54,62,13.79,61.45Z"/><path d="M11.67,61.57h0C11.52,61.69,11,61.31,11.67,61.57Z"/><path d="M11.67,60.73V61C11.47,60.94,11.12,60.89,11.67,60.73Z"/><path d="M12.32,61.33h0C12.43,61.4,12.1,61.9,12.32,61.33Z"/><path d="M10.84,61.56h0C10.72,61.5,11.07,61,10.84,61.56Z"/><path d="M10.24,61.52h0C10.12,61.46,10.47,60.94,10.24,61.52Z"/><path d="M15.76,62.75h0C15.79,62.65,16.51,62.94,15.76,62.75Z"/><path d="M14.41,62.78h0C14.53,62.86,14.17,63.35,14.41,62.78Z"/><path d="M12.84,63h0C12.8,63.09,12.1,62.79,12.84,63Z"/><path d="M12.32,62.75h0C12.44,62.82,12.08,63.31,12.32,62.75Z"/><path d="M15.46,62.78h0C15.58,62.85,15.22,63.35,15.46,62.78Z"/><path d="M11.44,62.24h0C11.31,62.15,11.78,61.67,11.44,62.24Z"/><path d="M14,61.44h.31C14.3,61.69,14.29,61.81,14,61.44Z"/><path d="M11.82,63h0C11.79,63.09,11.08,62.8,11.82,63Z"/><path d="M11.15,62.2h0C11.11,62.31,10.39,62,11.15,62.2Z"/><path d="M12.24,60.72h0C12.37,60.79,12,61.32,12.24,60.72Z"/><path d="M29.22,63h0C29.33,63,29,63.44,29.22,63Z"/><path d="M29.48,62.46v-.18C29.57,62.14,30,62.55,29.48,62.46Z"/><path d="M31,61.6h0C31,61.7,30.3,61.44,31,61.6Z"/><path d="M30.72,62.89h0C30.75,62.79,31.44,63.08,30.72,62.89Z"/><path d="M31,60.74h0C31.13,60.8,30.79,61.22,31,60.74Z"/><path d="M29.85,62.9h0C30,63,29.63,63.38,29.85,62.9Z"/><path d="M30.09,63.09h0C30,63,30.32,62.61,30.09,63.09Z"/><path d="M30.42,61.41h0C30.53,61.47,30.2,61.88,30.42,61.41Z"/><path d="M31.54,61.61h0C31.54,61.81,30.81,61.45,31.54,61.61Z"/><path d="M32.2,60.74h0C32.31,60.81,32,61.23,32.2,60.74Z"/><path d="M31.16,62.37h0C31,62.31,31.38,61.89,31.16,62.37Z"/><path d="M31.44,59.29h0C31.47,59.19,32.16,59.47,31.44,59.29Z"/><path d="M31.64,60.11h0C31.76,60.16,31.44,60.57,31.64,60.11Z"/><path d="M30.94,62.18h0C31.05,62.25,30.72,62.66,30.94,62.18Z"/><path d="M31.61,60.74h0C31.73,60.8,31.39,61.22,31.61,60.74Z"/><path d="M30.11,62.28h0C30.11,62.08,30.85,62.44,30.11,62.28Z"/><path d="M26.29,17.75c0-.33.36-.12.55-1.38C26.86,16.66,27.39,17.32,26.29,17.75Z"/><path d="M22.56,16.74c0,.32,0,.2.34,1C22.47,17.45,22.5,17.73,22.56,16.74Z"/><path d="M37.25,56.89h0C37.19,57,36.52,56.67,37.25,56.89Z"/><path d="M35.08,54h0C35.14,53.83,35.81,54.18,35.08,54Z"/><path d="M35.92,55h0C35.81,55.14,35.22,54.77,35.92,55Z"/><path d="M35.56,54h.29C35.81,54.21,35.76,54.42,35.56,54Z"/><path d="M34.62,53.57h0C34.5,53.51,34.85,52.88,34.62,53.57Z"/><path d="M36.17,54.32h0C36.05,54.26,36.39,53.67,36.17,54.32Z"/><path d="M36.87,55.09h0C36.75,55,37.1,54.42,36.87,55.09Z"/><path d="M37.82,54.88h0C37.94,54.94,37.59,55.52,37.82,54.88Z"/><path d="M37.25,55.51h0C37.37,55.58,37,56.19,37.25,55.51Z"/><path d="M37.25,56.34h0C37.19,56.46,36.52,56.13,37.25,56.34Z"/><path d="M36.17,54.77h0C36.23,54.65,36.9,55,36.17,54.77Z"/><path d="M18.17,59.4h0C18.13,59.51,17.41,59.2,18.17,59.4Z"/><path d="M17.61,59.15h0C17.74,59.22,17.38,59.76,17.61,59.15Z"/><path d="M18,59.82h0C18.07,59.71,18.77,60,18,59.82Z"/><path d="M16.69,58.87h0C16.56,58.8,16.93,58.31,16.69,58.87Z"/><path d="M17.39,60h0C17.42,59.85,18.17,60.15,17.39,60Z"/><path d="M17.61,58.88h0C17.57,59,16.86,58.69,17.61,58.88Z"/><path d="M18.69,61.37h0C18.73,61.26,19.44,61.56,18.69,61.37Z"/><path d="M24.45,16c.1.52-.84.63-.67-.22.2.23.28.59.57-.08C24.36,15.73,24.44,15.67,24.45,16Z"/><path d="M30.31,53.43h0C30.18,53.37,30.54,52.74,30.31,53.43Z"/><path d="M31,55.47h0C30.89,55.41,31.24,54.79,31,55.47Z"/><path d="M30.86,54.09h0C30.74,54,31.09,53.41,30.86,54.09Z"/><path d="M31.16,53.15h0C31.28,53.21,30.93,53.84,31.16,53.15Z"/><path d="M31.22,54.71h0C31.16,54.83,30.5,54.49,31.22,54.71Z"/><path d="M35.55,61.05h0C35.61,60.92,36.29,61.28,35.55,61.05Z"/><path d="M35.7,61.73h0C35.82,61.79,35.47,62.37,35.7,61.73Z"/><path d="M35.63,62.59h0C35.59,62.7,34.9,62.41,35.63,62.59Z"/><path d="M25.14,57.64c-.24-.54-.53-.54,0,0-1.06-.3-1.07,0-.53-.54C25.18,57.61,24.66,58.8,25.14,57.64Z"/><path class="cls-2" d="M13.47,74.59a1.89,1.89,0,0,1-.55-1.27.34.34,0,0,1,0-.2A.25.25,0,0,1,13,73a.57.57,0,0,1,.38-.11H15v-.31H12.87a.61.61,0,0,0-.5.23.91.91,0,0,0-.17.57,1.93,1.93,0,0,0,.36,1.06c.12.18.21.3.26.36l.26.28.37.33h.32l.28-.26a.56.56,0,0,1-.2-.14Z"/><path class="cls-2" d="M21.15,71.33l-1.64-2h-.32l-.28.31,1.66,1.71H7v.33H8.92v1.38l-.06.12H8.79l-.19-.09L8.42,73l-.23-.44H7.87l-.34.22.14.25.14.25.23.37,1,1.42a1.07,1.07,0,0,0,.38.41h.32l.33-.28L9.88,75l-.38-.43-.22-.29-.47-.71h.35a.43.43,0,0,0,.43-.31h0l.12.14h1.13v2.08h.74v-3.8H15l.2.26a1,1,0,0,1,.2.56.66.66,0,0,1-.2.53l-.2.07-.17.05h-.45a1.42,1.42,0,0,0,.47,1.09,1.6,1.6,0,0,0,1,.39h.67a1.66,1.66,0,0,0,.31-.12v1h.74v-3.8h1.18v1.42h-.42a.16.16,0,0,0-.09.07v.1a.85.85,0,0,0,.21.37c.09.11.18.22.28.32l.12.12a.5.5,0,0,0,.2.08h.43l.06,0h0v-.65H20.7v2h.74v-3.8H24v2.08a.55.55,0,0,1-.17.2l-.22.15h-.33L23.07,74a.5.5,0,0,1-.17-.15.92.92,0,0,1-.2-.59.79.79,0,0,1,.18-.53.47.47,0,0,1,.35-.21H24l-.09-.42H23a1,1,0,0,0-.78.37,1.1,1.1,0,0,0-.3.79,1.12,1.12,0,0,0,.09.44,1.18,1.18,0,0,0,1.12.67h.56l.26-.09h0v1h.74v-3.8h.74v-.33ZM10.84,73.05H9.64V71.66h1.18Zm6.07.6-.18.25-.1.1a.45.45,0,0,1-.14.1l-.21.12a.67.67,0,0,1-.24.07,1,1,0,0,1-.72-.57h0v-.21l.28-.07.2-.08a.9.9,0,0,0,.46-.81V72.3L16,71.94l-.06-.12-.1-.16h1.09Zm3.79-.57H19.56V71.66H20.7Z"/><path class="cls-2" d="M40.35,71.33l-1.64-2h-.32l-.28.31,1.66,1.71H27.89v.33H32v1H30.05a.53.53,0,0,1,.12.14l.21.3a1.6,1.6,0,0,1,.31.89.8.8,0,0,1-.14.45l-.1.09h-.12a1.39,1.39,0,0,1-.72-.63,3.73,3.73,0,0,1-.43-.9l-.18-.4a.17.17,0,0,1,0-.1v-.06h-.3l-.34.25v.18l.15.41a4.91,4.91,0,0,0,.28.62,1.59,1.59,0,0,0,1.33,1h.32a1.09,1.09,0,0,0,.4-.07.8.8,0,0,0,.53-.73v-.36l-.08-.28-.14-.36a.34.34,0,0,0-.1-.16H32v2.48h.74v-3.8H34l.2.26a1,1,0,0,1,.2.56.69.69,0,0,1-.2.53l-.15.09-.17,0h-.45a1.42,1.42,0,0,0,.47,1.09,1.6,1.6,0,0,0,1,.39h.67a1.66,1.66,0,0,0,.31-.12v1h.74v-3.8H39.7v.8h-2a.82.82,0,0,0-.41.79,2.23,2.23,0,0,0,.32,1.1l.12.2a1.33,1.33,0,0,0,.14.19l.32.36.23.22.1.07h.32l.28-.29c-.18,0-.44-.26-.76-.76-.06-.1-.11-.2-.15-.28a1.88,1.88,0,0,1-.18-.81v-.2a.34.34,0,0,1,.27-.27,1,1,0,0,1,.25,0h1.17v2.66h.75v-3.8h.73v-.33ZM36,73.65l-.18.25-.1.1a.45.45,0,0,1-.14.1l-.21.12a.67.67,0,0,1-.24.07,1,1,0,0,1-.72-.57h0v-.21l.28-.07.2-.08a.9.9,0,0,0,.46-.81V72.3L35,71.94v-.12l-.1-.16H36Z"/></g></svg>