<svg id="NRLM_Logo" data-name="NRLM Logo" xmlns="http://www.w3.org/2000/svg" viewBox="0 0 300 80"><defs><style>.cls-1{fill:#1c3664;}.cls-2{fill:#231f20;}.cls-3{fill:#1572ba;}.cls-4{fill:none;stroke:#333;stroke-miterlimit:10;stroke-width:0.25px;opacity:0.4;isolation:isolate;}.cls-5{fill:#1672b9;}.cls-6{fill:#fff;}</style></defs><g id="PPS"><path class="cls-1" d="M120.54,66.58a4.2,4.2,0,0,1,1-.11,1.83,1.83,0,0,1,1.34.45,1.66,1.66,0,0,1,.45,1.25,1.86,1.86,0,0,1-.37,1.24,1.77,1.77,0,0,1-1.43.67h-.31v2.48h-.69Zm.69,2.91a1.22,1.22,0,0,0,.27,0c.69,0,1.15-.45,1.15-1.31,0-.62-.26-1.18-1-1.18a1.27,1.27,0,0,0-.39,0Z"/><path class="cls-1" d="M124.34,70.45c0,1.33.53,1.62,1,1.62a1.51,1.51,0,0,0,.72-.18l.11.52a2.16,2.16,0,0,1-1,.2c-1,0-1.59-.85-1.59-2.18s.6-2.3,1.47-2.3,1.24.94,1.24,1.93v.39Zm1.37-.52c0-.87-.32-1.26-.65-1.26s-.69.67-.71,1.26Z"/><path class="cls-1" d="M127.12,69.33V68.2h.61v.53h0a1.1,1.1,0,0,1,1-.6c.6,0,1,.45,1,1.5v2.93H129V69.75c0-.51-.1-1-.6-1-.29,0-.57.24-.66.71a2.41,2.41,0,0,0,0,.38v2.75h-.69Z"/><path class="cls-1" d="M130.65,71.84a1.36,1.36,0,0,0,.7.23.59.59,0,0,0,.64-.54v-.09c0-.34-.12-.56-.56-.86a1.7,1.7,0,0,1-.87-1.24,1.17,1.17,0,0,1,1.13-1.21h.06a1.48,1.48,0,0,1,.79.23l-.19.52a1,1,0,0,0-.58-.19.53.53,0,0,0-.56.5v0c0,.3.1.46.54.76a1.57,1.57,0,0,1,.9,1.32,1.22,1.22,0,0,1-1.14,1.29h-.17a1.45,1.45,0,0,1-.86-.25Z"/><path class="cls-1" d="M134.11,67.08a.4.4,0,0,1-.35.45h-.07a.4.4,0,0,1-.4-.42v0a.42.42,0,0,1,.39-.45h0a.41.41,0,0,1,.41.41Zm-.74,5.48V68.2h.69v4.36Z"/><path class="cls-1" d="M137.69,70.38c0,1.69-.78,2.25-1.44,2.25s-1.42-.71-1.42-2.24.71-2.26,1.46-2.26S137.69,68.86,137.69,70.38Zm-2.17,0c0,.72.13,1.7.76,1.7s.71-1,.71-1.7-.11-1.69-.73-1.69S135.52,69.72,135.52,70.38Z"/><path class="cls-1" d="M138.47,69.33V68.2h.6v.53h0a1.1,1.1,0,0,1,1-.6c.6,0,1,.45,1,1.5v2.93h-.69V69.75c0-.51-.1-1-.6-1-.29,0-.57.24-.66.71a2.41,2.41,0,0,0,0,.38v2.75h-.69Z"/><path class="cls-1" d="M143.58,66.58a4.2,4.2,0,0,1,1-.11,1.83,1.83,0,0,1,1.34.45,1.66,1.66,0,0,1,.45,1.25,2,2,0,0,1-.37,1.24,1.77,1.77,0,0,1-1.43.67h-.31v2.48h-.69Zm.69,2.91a1.22,1.22,0,0,0,.27,0c.69,0,1.15-.45,1.15-1.31,0-.62-.26-1.18-1-1.18a1.28,1.28,0,0,0-.39,0Z"/><path class="cls-1" d="M147.05,69.33V68.2h.62v.69h0a1.06,1.06,0,0,1,.92-.76h.15v.71h-.15a1,1,0,0,0-.84.91v2.81h-.7Z"/><path class="cls-1" d="M151.84,70.38c0,1.69-.78,2.25-1.45,2.25S149,71.92,149,70.39s.71-2.26,1.46-2.26S151.84,68.86,151.84,70.38Zm-2.17,0c0,.72.13,1.7.76,1.7s.71-1,.71-1.7-.12-1.69-.73-1.69S149.67,69.72,149.67,70.38Z"/><path class="cls-1" d="M154.74,72.45a1.49,1.49,0,0,1-.72.16c-1,0-1.59-.76-1.59-2.2,0-1.25.63-2.27,1.72-2.27a1.3,1.3,0,0,1,.61.14l-.14.56a1.17,1.17,0,0,0-.49-.11c-.7,0-1,.82-1,1.68s.39,1.63,1,1.63a1.26,1.26,0,0,0,.5-.12Z"/><path class="cls-1" d="M155.77,70.45c0,1.33.53,1.62,1,1.62a1.51,1.51,0,0,0,.72-.18l.11.52a2.16,2.16,0,0,1-1,.2c-1,0-1.58-.85-1.58-2.18s.59-2.3,1.47-2.3,1.24.94,1.24,1.93v.39Zm1.36-.52c0-.87-.31-1.26-.64-1.26s-.69.67-.72,1.26Z"/><path class="cls-1" d="M158.43,71.84a1.36,1.36,0,0,0,.7.23.59.59,0,0,0,.64-.54v-.09c0-.34-.12-.56-.56-.86a1.7,1.7,0,0,1-.87-1.24,1.18,1.18,0,0,1,1.15-1.21h0a1.42,1.42,0,0,1,.78.23l-.19.52a1,1,0,0,0-.58-.19.53.53,0,0,0-.56.5v0c0,.3.11.46.54.76a1.57,1.57,0,0,1,.9,1.32,1.22,1.22,0,0,1-1.14,1.29h-.17a1.45,1.45,0,0,1-.86-.25Z"/><path class="cls-1" d="M161,71.84a1.36,1.36,0,0,0,.7.23.59.59,0,0,0,.64-.54v-.09c0-.34-.12-.56-.56-.86a1.7,1.7,0,0,1-.87-1.24,1.18,1.18,0,0,1,1.15-1.21h.05a1.42,1.42,0,0,1,.78.23l-.19.52a1,1,0,0,0-.57-.19.54.54,0,0,0-.57.49v.06c0,.3.11.46.54.76a1.57,1.57,0,0,1,.9,1.32,1.22,1.22,0,0,1-1.14,1.29h-.17a1.45,1.45,0,0,1-.86-.25Z"/><path class="cls-1" d="M164.5,67.08a.41.41,0,0,1-.37.45h-.06a.41.41,0,0,1-.39-.43v0a.41.41,0,0,1,.82,0Zm-.75,5.48V68.2h.69v4.36Z"/><path class="cls-1" d="M165.4,69.33V68.2h.6v.53h0a1.09,1.09,0,0,1,1-.6c.61,0,1.06.45,1.06,1.5v2.93h-.7V69.75c0-.51-.09-1-.6-1-.29,0-.57.24-.66.71v3.13h-.7Z"/><path class="cls-1" d="M171.71,68.2V72c0,1.15-.15,1.58-.43,1.89a1.51,1.51,0,0,1-1.17.47,2,2,0,0,1-1-.22l.16-.54a1.64,1.64,0,0,0,.81.19c.55,0,.89-.34.89-1.33V72h0a.9.9,0,0,1-.84.53c-.78,0-1.28-.87-1.28-2.15,0-1.6.73-2.27,1.37-2.27a.86.86,0,0,1,.81.57h0v-.5ZM171,69.71a1.71,1.71,0,0,0,0-.32c-.08-.3-.24-.66-.63-.66s-.78.67-.78,1.63c0,1.12.35,1.62.78,1.62.2,0,.47-.09.62-.62a2.54,2.54,0,0,0,0-.39Z"/><path class="cls-1" d="M174,71.76a1.93,1.93,0,0,0,.88.24.94.94,0,0,0,1-.88V71a1.52,1.52,0,0,0-.8-1.26A2.27,2.27,0,0,1,173.91,68a1.53,1.53,0,0,1,1.47-1.59h.13a1.72,1.72,0,0,1,.86.22l-.17.6a1.29,1.29,0,0,0-.72-.21.85.85,0,0,0-.88.8v.07c0,.6.32.83.89,1.25a2.1,2.1,0,0,1,1.06,1.74,1.62,1.62,0,0,1-1.54,1.7h-.16a2,2,0,0,1-1-.26Z"/><path class="cls-1" d="M177.57,68.2l.58,2.51c.08.34.12.63.18.9h0a4.41,4.41,0,0,1,.19-.9L179,68.2h.68L179,71a7.89,7.89,0,0,1-1.08,2.81,2.51,2.51,0,0,1-.78.67l-.25-.6a2,2,0,0,0,.61-.55,2.52,2.52,0,0,0,.39-.72.54.54,0,0,0,.05-.22.43.43,0,0,0,0-.16l-1.1-4Z"/><path class="cls-1" d="M180.21,71.84a1.36,1.36,0,0,0,.7.23.59.59,0,0,0,.64-.54v-.09c0-.34-.12-.56-.56-.86a1.7,1.7,0,0,1-.87-1.24,1.18,1.18,0,0,1,1.15-1.21h0a1.42,1.42,0,0,1,.78.23l-.19.52a1,1,0,0,0-.58-.19.53.53,0,0,0-.56.5v0c0,.3.11.46.54.76a1.57,1.57,0,0,1,.9,1.32,1.22,1.22,0,0,1-1.14,1.29h-.17a1.45,1.45,0,0,1-.86-.25Z"/><path class="cls-1" d="M183.77,67.05V68.2h.84v.53h-.84v2.59c0,.57.21.72.46.72h.28v.53a1.52,1.52,0,0,1-.52.07.87.87,0,0,1-.68-.26,1.58,1.58,0,0,1-.26-1.1V68.73h-.53V68.2h.53v-1Z"/><path class="cls-1" d="M185.64,70.45c0,1.33.53,1.62,1,1.62a1.51,1.51,0,0,0,.72-.18l.11.52a2.16,2.16,0,0,1-1,.2c-1,0-1.58-.85-1.58-2.18s.59-2.3,1.47-2.3,1.24.94,1.24,1.93v.39Zm1.36-.52c0-.87-.31-1.26-.64-1.26s-.69.67-.71,1.26Z"/><path class="cls-1" d="M188.42,69.33V68.2h.6v.54h0a1.1,1.1,0,0,1,1-.61.91.91,0,0,1,.91.67h0a1.38,1.38,0,0,1,.43-.5,1.16,1.16,0,0,1,.6-.17c.59,0,1,.43,1,1.54v2.89h-.69V69.83c0-.56-.08-1.11-.61-1.11-.29,0-.54.24-.64.64a2.67,2.67,0,0,0,0,.4v2.8h-.68V69.71c0-.49-.09-1-.6-1-.28,0-.57.24-.65.7a2.41,2.41,0,0,0,0,.38v2.76h-.68Z"/><path class="cls-1" d="M197.09,66.33a6.7,6.7,0,0,0-1,3.67,6.77,6.77,0,0,0,1,3.64h-.84a6.1,6.1,0,0,1-1-3.64,6.41,6.41,0,0,1,1-3.67Z"/><path class="cls-1" d="M197.77,72.56V66.49h1.08l.93,2.38c.18.47.48,1.25.65,1.77h0c0-.64-.12-1.69-.12-2.81V66.49h1v6.07h-1.08l-.93-2.3a17.07,17.07,0,0,1-.61-1.83h0c0,.61.07,1.55.07,2.76v1.37Z"/><path class="cls-1" d="M202.28,71.35a2.17,2.17,0,0,0,1,.24c.55,0,.82-.29.82-.69s-.27-.65-.78-1a2,2,0,0,1-1.14-1.69,1.74,1.74,0,0,1,1.69-1.79h.22a2.14,2.14,0,0,1,1,.21l-.19,1a1.4,1.4,0,0,0-.77-.21.65.65,0,0,0-.74.56.22.22,0,0,0,0,.08c0,.36.18.54.84.94a2,2,0,0,1,1.09,1.74,1.81,1.81,0,0,1-1.78,1.84h-.22a2.57,2.57,0,0,1-1.16-.24Z"/><path class="cls-1" d="M206.92,71.17l-.27,1.39h-1.14l1.31-6.07h1.41l1.18,6.07h-1.14L208,71.17Zm1-.91L207.7,69c-.06-.37-.14-1-.19-1.38h0c-.06.4-.15,1-.22,1.39L207,70.26Z"/><path class="cls-1" d="M210.08,66.58a6.39,6.39,0,0,1,1.23-.11,2.32,2.32,0,0,1,1.65.46,1.73,1.73,0,0,1,.52,1.34,1.88,1.88,0,0,1-2,2h-.23v2.26h-1.18Zm1.18,2.76h.19c.59,0,.86-.43.86-1s-.21-1-.76-1a1.41,1.41,0,0,0-.29,0Z"/><path class="cls-1" d="M215.54,69.65v.85h-1.79v-.85Z"/><path class="cls-1" d="M216.33,66.58a6.43,6.43,0,0,1,1.24-.11,2.25,2.25,0,0,1,1.64.46,1.73,1.73,0,0,1,.53,1.34,2,2,0,0,1-.52,1.45,2.07,2.07,0,0,1-1.47.58h-.24v2.26h-1.18Zm1.18,2.76h.19c.6,0,.87-.43.87-1s-.22-1-.77-1a1.41,1.41,0,0,0-.29,0Z"/><path class="cls-1" d="M220.45,66.58a6.39,6.39,0,0,1,1.23-.11,2.32,2.32,0,0,1,1.65.46,1.73,1.73,0,0,1,.52,1.34,1.88,1.88,0,0,1-2,2h-.23v2.26h-1.18Zm1.18,2.76h.19c.59,0,.86-.43.86-1s-.22-1-.77-1a1.31,1.31,0,0,0-.28,0Z"/><path class="cls-1" d="M224.42,71.35a2.17,2.17,0,0,0,1,.24c.56,0,.83-.29.83-.69s-.27-.65-.78-1a2,2,0,0,1-1.14-1.69A1.73,1.73,0,0,1,226,66.42h.24a2.14,2.14,0,0,1,1,.21l-.19,1a1.43,1.43,0,0,0-.78-.21.67.67,0,0,0-.74.57v.07c0,.36.18.54.83.94a2,2,0,0,1,1.1,1.74,1.82,1.82,0,0,1-1.8,1.84h-.2a2.64,2.64,0,0,1-1.17-.24Z"/><path class="cls-1" d="M227.74,73.64a6.76,6.76,0,0,0,.95-3.67,6.66,6.66,0,0,0-.95-3.64h.84a6,6,0,0,1,1,3.64,6.41,6.41,0,0,1-1,3.67Z"/><path class="cls-1" d="M233.56,69.94v.54h-2v-.54Z"/><path class="cls-1" d="M235.65,71.76a1.75,1.75,0,0,0,.87.24,1,1,0,0,0,1-1,1.52,1.52,0,0,0-.8-1.26A2.25,2.25,0,0,1,235.58,68a1.53,1.53,0,0,1,1.47-1.59h.14a1.59,1.59,0,0,1,.85.22l-.17.6a1.22,1.22,0,0,0-.72-.21.85.85,0,0,0-.87.81v.06c0,.6.31.83.89,1.25a2.06,2.06,0,0,1,1.05,1.74,1.62,1.62,0,0,1-1.54,1.7h-.16a2.07,2.07,0,0,1-1-.26Z"/><path class="cls-1" d="M239.79,67.05V68.2h.84v.53h-.84v2.59c0,.57.21.72.46.72h.28v.53a1.46,1.46,0,0,1-.51.07.87.87,0,0,1-.68-.26,1.49,1.49,0,0,1-.27-1.1V68.73h-.53V68.2h.53v-1Z"/><path class="cls-1" d="M243,72.56,243,72.1h0a1,1,0,0,1-.86.53,1.1,1.1,0,0,1-1-1.19.07.07,0,0,0,0,0c0-1.09.88-1.58,1.86-1.58v-.14c0-.58-.14-1-.69-1a1.23,1.23,0,0,0-.72.23l-.16-.49a1.88,1.88,0,0,1,1-.29c.87,0,1.25.58,1.25,1.56v1.88a6.7,6.7,0,0,0,.05,1Zm-.1-2.25c-.36,0-1.2.06-1.2,1,0,.57.29.77.53.77a.74.74,0,0,0,.65-.65,1,1,0,0,0,0-.25Z"/><path class="cls-1" d="M245.28,67.05V68.2h.83v.53h-.83v2.59c0,.57.2.72.46.72H246v.53a1.46,1.46,0,0,1-.51.07.87.87,0,0,1-.68-.26,1.49,1.49,0,0,1-.27-1.1V68.73H244V68.2h.53v-1Z"/><path class="cls-1" d="M247.14,70.45c0,1.33.53,1.62,1,1.62a1.51,1.51,0,0,0,.72-.18l.1.52a2.08,2.08,0,0,1-1,.2c-1,0-1.59-.85-1.59-2.18s.6-2.3,1.47-2.3,1.24.94,1.24,1.93v.39Zm1.37-.52c0-.87-.32-1.26-.65-1.26s-.68.67-.71,1.26Z"/><path class="cls-1" d="M251.25,71.76a1.93,1.93,0,0,0,.88.24.94.94,0,0,0,1-.88V71a1.52,1.52,0,0,0-.8-1.26A2.27,2.27,0,0,1,251.19,68a1.53,1.53,0,0,1,1.47-1.59h.13a1.72,1.72,0,0,1,.86.22l-.17.6a1.29,1.29,0,0,0-.72-.21.85.85,0,0,0-.88.8v.07c0,.6.32.83.89,1.25a2.1,2.1,0,0,1,1.06,1.74,1.62,1.62,0,0,1-1.54,1.7h-.16a2,2,0,0,1-1-.26Z"/><path class="cls-1" d="M256.77,72.45a1.49,1.49,0,0,1-.72.16c-1,0-1.59-.76-1.59-2.2,0-1.25.63-2.27,1.72-2.27a1.3,1.3,0,0,1,.61.14l-.14.56a1.17,1.17,0,0,0-.49-.11c-.7,0-1,.82-1,1.68s.39,1.63,1,1.63a1.11,1.11,0,0,0,.5-.12Z"/><path class="cls-1" d="M257.36,66.33h.7v2.34h0a1.19,1.19,0,0,1,.36-.38,1,1,0,0,1,.58-.16c.55,0,1,.44,1,1.54v2.89h-.7V69.75c0-.53-.11-1-.58-1s-.57.23-.68.69v3.15h-.7Z"/><path class="cls-1" d="M261.5,70.45c0,1.33.53,1.62,1,1.62a1.51,1.51,0,0,0,.72-.18l.11.52a2.16,2.16,0,0,1-1,.2c-1,0-1.58-.85-1.58-2.18s.59-2.3,1.47-2.3,1.24.94,1.24,1.93v.39Zm1.36-.52c0-.87-.31-1.26-.65-1.26s-.68.67-.71,1.26Z"/><path class="cls-1" d="M264.28,69.33V68.2h.6v.54h0a1.1,1.1,0,0,1,1-.61.91.91,0,0,1,.91.67h0a1.38,1.38,0,0,1,.43-.5,1.16,1.16,0,0,1,.6-.17c.59,0,1.05.43,1.05,1.54v2.89h-.69V69.83c0-.56-.08-1.11-.61-1.11-.29,0-.54.24-.64.64a2.67,2.67,0,0,0,0,.4v2.8h-.68V69.71c0-.49-.09-1-.6-1-.28,0-.57.24-.65.7a2.41,2.41,0,0,0,0,.38v2.76h-.68Z"/><path class="cls-1" d="M270.34,70.45c0,1.33.53,1.62,1,1.62a1.51,1.51,0,0,0,.72-.18l.11.52a2.29,2.29,0,0,1-1,.2c-1,0-1.58-.85-1.58-2.18s.59-2.3,1.46-2.3,1.25.94,1.25,1.93v.39Zm1.37-.52c0-.87-.32-1.26-.65-1.26s-.68.67-.71,1.26Z"/><path class="cls-1" d="M275,70.45c0,1.33.53,1.62,1,1.62a1.51,1.51,0,0,0,.72-.18l.11.52a2.29,2.29,0,0,1-1,.2c-1,0-1.58-.85-1.58-2.18s.59-2.3,1.46-2.3,1.25.94,1.25,1.93v.39Zm1.37-.52c0-.87-.31-1.26-.65-1.26s-.68.67-.71,1.26Z"/><path class="cls-1" d="M277.8,69.33V68.2h.6v.53h0a1.1,1.1,0,0,1,1-.6c.61,0,1.06.45,1.06,1.5v2.93h-.7V69.75c0-.51-.1-1-.6-1-.29,0-.57.24-.66.71a2.41,2.41,0,0,0,0,.38v2.75h-.7Z"/><path class="cls-1" d="M283.17,72.56l-.05-.46h0a1,1,0,0,1-.86.53,1.1,1.1,0,0,1-1-1.19.07.07,0,0,0,0,0c0-1.09.87-1.58,1.85-1.58v-.14c0-.58-.14-1-.69-1a1.23,1.23,0,0,0-.72.23l-.16-.49a1.88,1.88,0,0,1,1-.29c.87,0,1.25.58,1.25,1.56v1.88a6.7,6.7,0,0,0,0,1Zm-.1-2.25c-.36,0-1.2.06-1.2,1,0,.57.29.77.53.77a.74.74,0,0,0,.65-.65,1,1,0,0,0,0-.25Z"/><path class="cls-1" d="M284.68,72.56V66.33h.7v2.39h0a1,1,0,0,1,.91-.59c.68,0,1.19.78,1.19,2.21s-.65,2.29-1.32,2.29a.93.93,0,0,1-.87-.64h0l-.05.57Zm.73-1.54a.61.61,0,0,0,0,.27c.16.65.45.77.64.77.56,0,.76-.76.76-1.69s-.21-1.64-.77-1.64c-.32,0-.59.4-.64.77a1.61,1.61,0,0,0,0,.31Z"/><path class="cls-1" d="M288.31,66.33h.7v6.23h-.7Z"/><path class="cls-1" d="M290.52,70.45c0,1.33.53,1.62,1,1.62a1.51,1.51,0,0,0,.72-.18l.1.52a2.08,2.08,0,0,1-.95.2c-1.05,0-1.59-.85-1.59-2.18s.6-2.3,1.47-2.3,1.24.94,1.24,1.93v.39Zm1.37-.52c0-.87-.32-1.26-.65-1.26s-.68.67-.71,1.26Z"/><path class="cls-1" d="M295.92,66.33v6.19h-.6V72h0a1,1,0,0,1-.91.62c-.74,0-1.27-.8-1.27-2.23s.64-2.27,1.32-2.27a.83.83,0,0,1,.79.52h0V66.33Zm-.68,3.53v-.29c-.05-.45-.32-.84-.65-.84-.58,0-.78.8-.78,1.67s.24,1.66.74,1.66c.22,0,.52-.12.67-.75a1.41,1.41,0,0,0,0-.29Z"/></g><g id="NSAP-2"><path class="cls-2" d="M120.26,62.56l1.41-7.41h1.48l1.29,3.44a20.57,20.57,0,0,1,.68,2.32h0a17.78,17.78,0,0,1,.33-2.51l.61-3.25h1.21l-1.4,7.41h-1.31l-1.33-3.51a18.2,18.2,0,0,1-.71-2.39h0c-.08.71-.23,1.62-.43,2.72l-.61,3.17Z"/><path class="cls-2" d="M130.9,62.56c0-.32.06-.75.1-1.21h0a2.15,2.15,0,0,1-1.92,1.33A1.63,1.63,0,0,1,127.49,61a.76.76,0,0,1,0-.15,3.67,3.67,0,0,1,3.56-3.78h.21a5.58,5.58,0,0,1,1.62.24l-.55,2.8a13.26,13.26,0,0,0-.22,2.44Zm.53-4.43a1.57,1.57,0,0,0-.53-.06,2.46,2.46,0,0,0-2.1,2.55c0,.57.21,1,.77,1s1.32-.75,1.57-2.11Z"/><path class="cls-2" d="M136.06,55.73l-.27,1.47H137l-.2,1h-1.2l-.43,2.17a4.78,4.78,0,0,0-.09.76.41.41,0,0,0,.34.47H136l-.12,1a2.6,2.6,0,0,1-.83.11c-.88,0-1.28-.48-1.28-1.1a4.21,4.21,0,0,1,.12-1l.46-2.39h-.72l.18-1h.73l.22-1.15Z"/><path class="cls-2" d="M137,62.56l1-5.36h1.28l-1,5.36Zm1.23-6.81A.76.76,0,0,1,139,55h0a.66.66,0,0,1,.68.64v0a.76.76,0,0,1-.75.77h-.05a.62.62,0,0,1-.67-.56.38.38,0,0,1,0-.15Z"/><path class="cls-2" d="M145.15,59.3a3.22,3.22,0,0,1-3,3.38H142a2.08,2.08,0,0,1-2.19-2,1,1,0,0,1,0-.25,3.22,3.22,0,0,1,3-3.39h.06a2.1,2.1,0,0,1,2.24,2A2.43,2.43,0,0,1,145.15,59.3Zm-4,1.14c0,.73.4,1.25,1,1.25,1,0,1.59-1.32,1.59-2.39,0-.55-.24-1.23-1-1.23-1,0-1.62,1.37-1.62,2.37Z"/><path class="cls-2" d="M145.7,62.56l.69-3.7c.13-.63.21-1.19.27-1.66h1.14l-.11,1h0a2.29,2.29,0,0,1,1.92-1.09A1.3,1.3,0,0,1,151,58.33a.89.89,0,0,1,0,.23,5.27,5.27,0,0,1-.1.89l-.59,3.11H149l.57-3a4.64,4.64,0,0,0,.07-.64c0-.44-.17-.77-.67-.77s-1.33.7-1.57,2l-.4,2.46Z"/><path class="cls-2" d="M155.27,62.56a6.15,6.15,0,0,1,.09-1.21h0a2.15,2.15,0,0,1-1.91,1.33,1.63,1.63,0,0,1-1.6-1.66.86.86,0,0,1,0-.16,3.68,3.68,0,0,1,3.58-3.78h.2a5.46,5.46,0,0,1,1.61.24l-.55,2.8a13.26,13.26,0,0,0-.22,2.44Zm.52-4.43a1.51,1.51,0,0,0-.52-.06,2.47,2.47,0,0,0-2.11,2.55c0,.57.21,1,.77,1s1.32-.75,1.58-2.11Z"/><path class="cls-2" d="M157.69,62.56l1.49-7.81h1.28L159,62.56Z"/><path class="cls-2" d="M162.71,61.1a3.17,3.17,0,0,0,1.67.47c.72,0,1.38-.38,1.38-1.1,0-.48-.32-.81-1-1.2a2.32,2.32,0,0,1-1.5-1.94A2.47,2.47,0,0,1,165.84,55h.1a3.28,3.28,0,0,1,1.65.38l-.42,1.07a2.72,2.72,0,0,0-1.34-.33c-.82,0-1.28.47-1.28,1s.42.81,1.11,1.2a2.21,2.21,0,0,1,1.44,2c0,1.49-1.2,2.4-2.86,2.4a3.38,3.38,0,0,1-2-.52Z"/><path class="cls-2" d="M173.34,59.3a3.22,3.22,0,0,1-3,3.38h-.07a2.08,2.08,0,0,1-2.19-2,1,1,0,0,1,0-.25,3.21,3.21,0,0,1,3-3.39h.07a2.1,2.1,0,0,1,2.2,2Zm-4,1.14c0,.73.39,1.25,1,1.25,1,0,1.6-1.32,1.6-2.39,0-.55-.24-1.23-1-1.23-.94,0-1.57,1.37-1.57,2.37Z"/><path class="cls-2" d="M177.76,62.37a3.53,3.53,0,0,1-1.54.3,2,2,0,0,1-2.17-1.82,1.61,1.61,0,0,1,0-.31,3.39,3.39,0,0,1,3.32-3.46h.09a2.93,2.93,0,0,1,1.09.21l-.33,1a1.82,1.82,0,0,0-.8-.16,2.15,2.15,0,0,0-2,2.25,1.12,1.12,0,0,0,1,1.25h.2a2.69,2.69,0,0,0,1.15-.26Z"/><path class="cls-2" d="M178.66,62.56l1-5.36H181l-1,5.36Zm1.22-6.81a.76.76,0,0,1,.76-.78h0a.67.67,0,0,1,.69.65v0a.76.76,0,0,1-.77.77h0a.64.64,0,0,1-.66-.62Z"/><path class="cls-2" d="M184.92,62.56c0-.32.06-.75.1-1.21h0a2.15,2.15,0,0,1-1.92,1.33A1.63,1.63,0,0,1,181.51,61a.76.76,0,0,1,0-.15,3.67,3.67,0,0,1,3.56-3.78h.21a5.58,5.58,0,0,1,1.62.24l-.55,2.8a13.26,13.26,0,0,0-.22,2.44Zm.53-4.43a1.57,1.57,0,0,0-.53-.06,2.46,2.46,0,0,0-2.1,2.55c0,.57.21,1,.77,1s1.32-.75,1.57-2.11Z"/><path class="cls-2" d="M187.34,62.56l1.5-7.81h1.27l-1.48,7.81Z"/><path class="cls-2" d="M193.94,60.45l-1,2.11h-1.37l3.72-7.41h1.61l.93,7.41h-1.34l-.21-2.11Zm2.26-1-.2-1.84c0-.4-.08-1-.11-1.41h0c-.19.44-.39,1-.6,1.41l-.9,1.85Z"/><path class="cls-2" d="M198.81,61.36a2.94,2.94,0,0,0,1.29.36c.52,0,.83-.3.83-.66s-.18-.55-.71-.82a1.65,1.65,0,0,1-1.05-1.4,1.93,1.93,0,0,1,2.16-1.76,2.54,2.54,0,0,1,1.27.28l-.33.92a2.17,2.17,0,0,0-1-.24c-.49,0-.82.26-.82.63s.24.5.7.73a1.75,1.75,0,0,1,1.11,1.44c0,1.18-1,1.83-2.28,1.83a2.91,2.91,0,0,1-1.5-.38Z"/><path class="cls-2" d="M203.18,61.36a2.94,2.94,0,0,0,1.29.36c.51,0,.82-.3.82-.66s-.17-.55-.7-.82a1.64,1.64,0,0,1-1.06-1.4,1.94,1.94,0,0,1,2.17-1.76,2.5,2.5,0,0,1,1.26.28l-.33.92a2.17,2.17,0,0,0-1-.24c-.48,0-.81.26-.81.63s.24.5.69.73a1.74,1.74,0,0,1,1.11,1.44c0,1.18-1,1.83-2.27,1.83a2.91,2.91,0,0,1-1.5-.38Z"/><path class="cls-2" d="M207.42,62.56l1-5.36h1.28l-1,5.36Zm1.22-6.81a.76.76,0,0,1,.74-.78h0a.66.66,0,0,1,.68.64v0a.76.76,0,0,1-.75.77h0a.63.63,0,0,1-.66-.6Z"/><path class="cls-2" d="M210.29,61.36a2.86,2.86,0,0,0,1.28.36c.52,0,.83-.3.83-.66s-.18-.55-.71-.82a1.65,1.65,0,0,1-1.05-1.4,1.94,1.94,0,0,1,2.17-1.76,2.5,2.5,0,0,1,1.26.28l-.33.92a2.17,2.17,0,0,0-1-.24c-.49,0-.82.26-.82.63s.25.5.7.73a1.75,1.75,0,0,1,1.11,1.44c0,1.18-1,1.83-2.28,1.83a2.88,2.88,0,0,1-1.49-.38Z"/><path class="cls-2" d="M217.26,55.73,217,57.2h1.21l-.2,1h-1.2l-.43,2.17a4.78,4.78,0,0,0-.09.76.41.41,0,0,0,.34.47h.57l-.12,1a2.6,2.6,0,0,1-.83.11c-.88,0-1.28-.48-1.28-1.1a4.21,4.21,0,0,1,.12-1l.46-2.39h-.72l.18-1h.73l.22-1.15Z"/><path class="cls-2" d="M221.7,62.56c0-.32.06-.75.1-1.21h0a2.15,2.15,0,0,1-1.91,1.33,1.63,1.63,0,0,1-1.6-1.66.86.86,0,0,1,0-.16,3.67,3.67,0,0,1,3.56-3.78H222a5.58,5.58,0,0,1,1.62.24l-.55,2.8a13.26,13.26,0,0,0-.22,2.44Zm.53-4.43a1.57,1.57,0,0,0-.53-.06,2.48,2.48,0,0,0-2.1,2.55c0,.57.21,1,.77,1s1.32-.75,1.58-2.11Z"/><path class="cls-2" d="M224.16,62.56l.69-3.7c.13-.63.21-1.19.28-1.66h1.13l-.11,1h0a2.29,2.29,0,0,1,1.93-1.09,1.31,1.31,0,0,1,1.37,1.25,1.77,1.77,0,0,1,0,.23,5.27,5.27,0,0,1-.1.89l-.59,3.11h-1.28l.57-3a3.39,3.39,0,0,0,.07-.64c0-.44-.17-.77-.67-.77s-1.33.7-1.56,2l-.47,2.48Z"/><path class="cls-2" d="M234,62.37a3.53,3.53,0,0,1-1.54.3,2,2,0,0,1-2.17-1.82,1.61,1.61,0,0,1,0-.31,3.39,3.39,0,0,1,3.32-3.46h.09a2.93,2.93,0,0,1,1.09.21l-.33,1a1.86,1.86,0,0,0-.81-.16,2.15,2.15,0,0,0-2,2.25,1.12,1.12,0,0,0,1,1.25h.21a2.68,2.68,0,0,0,1.14-.26Z"/><path class="cls-2" d="M239,62.25a4.28,4.28,0,0,1-1.89.42,2,2,0,0,1-2.2-1.78,1.55,1.55,0,0,1,0-.43,3.26,3.26,0,0,1,3-3.38,1.55,1.55,0,0,1,1.72,1.34,1,1,0,0,1,0,.17c0,1.37-1.44,1.81-3.51,1.77a1.54,1.54,0,0,0,.14.76,1.21,1.21,0,0,0,1.1.55,3.07,3.07,0,0,0,1.48-.35ZM237.81,58a1.65,1.65,0,0,0-1.49,1.36c1.32,0,2.17-.16,2.17-.8A.61.61,0,0,0,237.81,58Z"/><path class="cls-2" d="M243.54,55.27a7.72,7.72,0,0,1,1.79-.18,3,3,0,0,1,1.89.53,1.73,1.73,0,0,1,.69,1.47,2.58,2.58,0,0,1-.95,2,3.76,3.76,0,0,1-2.32.7,4,4,0,0,1-.69-.06l-.53,2.81h-1.27Zm.6,3.43a3.79,3.79,0,0,0,.67.06,1.64,1.64,0,0,0,1.8-1.46.41.41,0,0,0,0-.11c0-.78-.56-1.06-1.29-1.06a2.76,2.76,0,0,0-.7.06Z"/><path class="cls-2" d="M247.92,62.56l.62-3.3c.15-.76.21-1.57.28-2.06h1.11a9.41,9.41,0,0,1-.12,1.14h0a2,2,0,0,1,1.69-1.26h.27l-.25,1.26h-.25c-.91,0-1.49.92-1.7,2.06l-.41,2.16Z"/><path class="cls-2" d="M257.11,59.3a3.21,3.21,0,0,1-3,3.38H254a2.08,2.08,0,0,1-2.19-2,1,1,0,0,1,0-.25,3.22,3.22,0,0,1,3-3.39h0a2.1,2.1,0,0,1,2.2,2Zm-4,1.14c0,.73.4,1.25,1,1.25,1,0,1.59-1.32,1.59-2.39,0-.55-.24-1.23-1-1.23-1,0-1.61,1.37-1.61,2.37Z"/><path class="cls-2" d="M257.92,63.52a3,3,0,0,0,1.41.32c.84,0,1.48-.4,1.74-1.64l.14-.61h0a2,2,0,0,1-1.68.95,1.73,1.73,0,0,1-1.69-1.77s0-.08,0-.12a3.47,3.47,0,0,1,3.37-3.57h.14a4.68,4.68,0,0,1,1.85.38l-.81,4.42a4,4,0,0,1-1.1,2.39,3.12,3.12,0,0,1-2,.59,3.45,3.45,0,0,1-1.67-.36Zm3.87-5.31a1.94,1.94,0,0,0-.71-.13,2.23,2.23,0,0,0-1.91,2.37c0,.56.22,1.09.86,1.09s1.27-.76,1.46-1.73Z"/><path class="cls-2" d="M263.68,62.56l.63-3.3c.14-.76.21-1.57.27-2.06h1.11a7.75,7.75,0,0,1-.12,1.14h0a2,2,0,0,1,1.69-1.26h.27l-.25,1.26H267c-.92,0-1.5.92-1.71,2.06l-.4,2.16Z"/><path class="cls-2" d="M270.88,62.56c0-.32.06-.75.1-1.21h0a2.15,2.15,0,0,1-2,1.33A1.63,1.63,0,0,1,267.4,61a.86.86,0,0,1,0-.16A3.68,3.68,0,0,1,271,57.08h.2a5.46,5.46,0,0,1,1.61.24l-.55,2.8a13.26,13.26,0,0,0-.22,2.44Zm.53-4.43a1.57,1.57,0,0,0-.53-.06,2.48,2.48,0,0,0-2.1,2.55c0,.57.21,1,.77,1s1.32-.75,1.58-2.11Z"/><path class="cls-2" d="M273.34,62.56l.68-3.7c.12-.63.21-1.19.26-1.66h1.11l-.11.94h0a2.27,2.27,0,0,1,1.86-1.06,1.17,1.17,0,0,1,1.27,1v.06a2.22,2.22,0,0,1,1.89-1.1,1.27,1.27,0,0,1,1.32,1.22,1.48,1.48,0,0,1,0,.21,6.84,6.84,0,0,1-.09.91l-.59,3.14H279.7l.56-3a5.05,5.05,0,0,0,.07-.68c0-.46-.18-.76-.66-.76s-1.23.73-1.44,1.87l-.48,2.56h-1.23l.57-3a3.18,3.18,0,0,0,.06-.62c0-.41-.12-.77-.63-.77s-1.28.8-1.48,1.89l-.46,2.54Z"/><path class="cls-2" d="M282.37,62.56l.68-3.7c.12-.63.21-1.19.26-1.66h1.11l-.1.94h0a2.24,2.24,0,0,1,1.86-1.06,1.16,1.16,0,0,1,1.26,1v.07a2.22,2.22,0,0,1,1.89-1.1,1.27,1.27,0,0,1,1.32,1.22,1.48,1.48,0,0,1,0,.21,6.84,6.84,0,0,1-.09.91L290,62.56h-1.24l.56-3a5.05,5.05,0,0,0,.08-.68c0-.46-.19-.76-.66-.76s-1.24.73-1.45,1.87l-.48,2.56h-1.23l.57-3a4.2,4.2,0,0,0,.07-.62c0-.41-.13-.77-.64-.77s-1.28.8-1.48,1.89l-.46,2.54Z"/><path class="cls-2" d="M295.6,62.25a4.28,4.28,0,0,1-1.89.42,2,2,0,0,1-2.2-1.78,1.55,1.55,0,0,1,0-.43,3.26,3.26,0,0,1,3-3.38,1.54,1.54,0,0,1,1.72,1.34,1,1,0,0,1,0,.17c0,1.37-1.44,1.81-3.51,1.77a1.55,1.55,0,0,0,.15.76,1.19,1.19,0,0,0,1.1.55,3.12,3.12,0,0,0,1.47-.35ZM294.38,58a1.65,1.65,0,0,0-1.49,1.36c1.32,0,2.17-.16,2.17-.8A.61.61,0,0,0,294.38,58Z"/></g><g id="NSAP-1"><path class="cls-2" d="M122.13,51.56V31.34h4.2L131.55,40A55.49,55.49,0,0,1,135,46.79h.06c-.24-2.7-.33-5.31-.33-8.4v-7h3.42V51.56h-3.81l-5.28-8.88a70.25,70.25,0,0,1-3.63-7h-.09c.15,2.61.18,5.28.18,8.61v7.23Z"/><path class="cls-2" d="M142.32,47.54a10.23,10.23,0,0,0,4.89,1.29c2.37,0,3.69-1.11,3.69-2.76s-1-2.43-3.6-3.36c-3.33-1.2-5.46-3-5.46-5.88,0-3.3,2.76-5.82,7.14-5.82a10.71,10.71,0,0,1,4.86,1l-.9,3a8.59,8.59,0,0,0-4-1c-2.34,0-3.36,1.26-3.36,2.43,0,1.56,1.17,2.28,3.87,3.33,3.51,1.32,5.22,3.09,5.22,6,0,3.24-2.46,6.06-7.68,6.06a11.92,11.92,0,0,1-5.46-1.26Z"/><path class="cls-2" d="M162,45.83l-1.74,5.73h-3.81L163,31.34h4.71l6.57,20.22h-4l-1.83-5.73ZM167.82,43l-1.59-5c-.39-1.23-.72-2.61-1-3.78h-.06c-.3,1.17-.6,2.58-1,3.78l-1.56,5Z"/><path class="cls-2" d="M177.06,31.61a31.3,31.3,0,0,1,5.64-.42c2.7,0,4.68.57,6,1.65a5.72,5.72,0,0,1,2,4.47A6.16,6.16,0,0,1,189,41.9a8.94,8.94,0,0,1-6.39,2.16,10.89,10.89,0,0,1-1.8-.12v7.62h-3.66ZM180.72,41a7.77,7.77,0,0,0,1.8.15c2.76,0,4.44-1.35,4.44-3.72S185.4,34,182.85,34a10.88,10.88,0,0,0-2.13.18Z"/></g><g id="MoRD"><path class="cls-2" d="M124.57,11.83l-.12.08v.84l.6-.42v-.5Z"/><path class="cls-2" d="M136.31,8.2h-1.14l-.43-.76-.35-.54a4.23,4.23,0,0,0-.51-.61,1.94,1.94,0,0,0-1.34-.69h-.47a1.33,1.33,0,0,0-1.33,1,1.51,1.51,0,0,0-.11.59v.27l.08.27.12.24.14.19H120v.49h1.94v1.93H121l-.07.06a.24.24,0,0,0,0,.12,1.64,1.64,0,0,0,.52.92,1.38,1.38,0,0,0,.86.57h.48l.17-.05a.21.21,0,0,0,.1-.18V8.69h1.41v3.22l.12-.08h.48v.5l-.6.42v1.64h1.12V8.69h1.1v5.7h1.12V8.69h1.57v2.14h-.7a.69.69,0,0,0-.13.11v.15a1.07,1.07,0,0,0,.3.55,4.91,4.91,0,0,0,.43.48l.18.18a.56.56,0,0,0,.3.12h.63l.1-.07a.08.08,0,0,0,0-.07v-1h1.72v3h1.1V8.58h.93v5.7h1.1V8.58h1.09v2.25a1.4,1.4,0,0,0,.91,1.35,2,2,0,0,0,.59.09h.48a1.35,1.35,0,0,0,1-.35,1.51,1.51,0,0,0,.39-1.09V8.69h.59v5.7h1.11V8.69h1.17V8.2Zm-4.14,2.63h-1.72V8.69h1.72Zm0-2.63h0l-.07-.11-.16-.3c-.05-.13-.1-.26-.14-.39a.66.66,0,0,1,0-.28V6.9a.3.3,0,0,1,.07-.24A.94.94,0,0,1,132,6.4l.15-.17.18-.11a2.35,2.35,0,0,1,.79.64,4.44,4.44,0,0,1,1,1.39,0,0,0,0,1,0,0Zm6.51,2.63v.41a1,1,0,0,0-.07.15l-.07.17a.5.5,0,0,1-.42.29.54.54,0,0,1-.2-.1l-.16-.16a1.22,1.22,0,0,1-.21-.72V8.69h1.17Z"/><path class="cls-2" d="M124.57,11.83l-.12.08-3.21,2,.4.47h.48l2.33-1.64.6-.42v-.49Z"/><path class="cls-2" d="M152.43,8.2h0l-.35-.34-.34-.36-.87-.72a6.28,6.28,0,0,0-1.93-1.1,2.65,2.65,0,0,0-1-.19h-.48a1.77,1.77,0,0,0-1.75,1.09,1.35,1.35,0,0,0-.12.68v.2l.07.32.07.3.05.11h-1.09v.49h1.06v5.7h1.11V8.68h3.92v3.15a.91.91,0,0,1-.25.3l-.33.22-.12.07-.12.05-.13,0h-.12l-.33-.12a.61.61,0,0,1-.25-.23,1.36,1.36,0,0,1-.29-.89,1.23,1.23,0,0,1,.27-.8.77.77,0,0,1,.52-.31h.2l.2.06h.11l.13.08h.48l-.13-.63h-.17l-.2,0h-.94a1.53,1.53,0,0,0-1.16.55,1.69,1.69,0,0,0-.46,1.19,1.57,1.57,0,0,0,.13.65,1.78,1.78,0,0,0,1.68,1h.87l.39-.13h0v1.55H152V8.74h3.66v3a.72.72,0,0,1-.26.49l-.16.16-.24.16a.5.5,0,0,1-.24.09,1,1,0,0,1-.29-.11l-.23-.2a1.37,1.37,0,0,1-.26-.81,1.45,1.45,0,0,1,.22-.75,1,1,0,0,1,.6-.44h.8V9.82l-.24-.08-.22-.06h-.91a1.68,1.68,0,0,0-1,.54,1.57,1.57,0,0,0-.39,1.07,1.82,1.82,0,0,0,.1.66,1.73,1.73,0,0,0,1.62,1h.77l.31-.1v1.46h1.1V11.83a1.8,1.8,0,0,1,.09-.45,2,2,0,0,1,.29-.48,1.17,1.17,0,0,1,.67-.5l.24.1a1.7,1.7,0,0,1,.3.3,2,2,0,0,1,.12.59,2.15,2.15,0,0,1-.54,1.25,3.21,3.21,0,0,1-.49.55h-.08l.52.39h.48l.36-.4.26-.32a2.26,2.26,0,0,0,.63-1.46,1.68,1.68,0,0,0-.13-.62,1.57,1.57,0,0,0-.87-.81,1.46,1.46,0,0,0-.65-.13h-.72l-.24.07-.24.11V8.69h3.58v5.7h1.12V8.69h2.74v2.08l-.08.18L164,11l-.1.05-.28-.13a1,1,0,0,1-.18-.27L163.1,10h-.48l-.51.34.21.38.22.37.33.55,1.43,2.18a1.67,1.67,0,0,0,.57.61h.48l.5-.41-.26-.25-.57-.66-.33-.42-.7-1.07h0v.07h.52c.37-.08.59-.24.65-.47h0l-.24-.28h.32V8.86H167v2h-1.79l-.07.25.18.21H167v3.12h1.12V8.71h1V8.22Zm-4.5,0h-1V8.11l-.07-.22-.06-.28V7.37a1.77,1.77,0,0,1,.08-.56,1.25,1.25,0,0,1,.59-.65.71.71,0,0,1,.35-.13,3.81,3.81,0,0,1,1.42.56l.72.48a1.66,1.66,0,0,1,.21.16l.21.15.29.27.29.28.3.27Z"/><path class="cls-2" d="M164.92,10.83l.24.28.07-.25h0Zm-1.45.74H164V11.5Z"/><path class="cls-2" d="M171.34,8.2v.49h1.52v2.14h-.69l-.14.11v.15a1.07,1.07,0,0,0,.3.55,4.91,4.91,0,0,0,.43.48l.18.18a.56.56,0,0,0,.3.12h.64l.09-.07v-1h1.72v3h1.1V8.61h4.47v2.22l-.22-.21-.15-.17c-.44-.47-.79-.7-1-.7h-.48a1.16,1.16,0,0,0-.37.07l-.6.21-1,.44-.28.15h-.09l.37.47h.48l.8-.42.46-.19.36-.13.36.22a4.83,4.83,0,0,1,.49.41l.68.66-3,1.55.37.54h.48l2.39-1.42v1.95h1.1V8.56h1v5.7h1.12V8.56h5.74v1.56H190l-.3.08-.28.1-.14.08-.17.11L189,10.4l-.14-.09a1.88,1.88,0,0,0-.55-.27,2.43,2.43,0,0,0-.6-.1h-.48a1.89,1.89,0,0,0-1.25.44,1.51,1.51,0,0,0-.52,1.21,2.39,2.39,0,0,0,.73,1.62q1,1,1.62,1h.48l.3-.51-.61-.28-.42-.27a1.78,1.78,0,0,1-1-1.56,3.33,3.33,0,0,1,.16-.6,1.44,1.44,0,0,1,.18-.25.83.83,0,0,1,.54-.31l.26.08.29.12a1.49,1.49,0,0,1,.3.18c.15.11.23.19.23.24l-.08.18-.2.35-.1.18V12l.52.29H189l.09-.27.18-.35.18-.29.21-.24.25-.21.27-.17V14.2h1.11V8.5H193l.3.39a1.53,1.53,0,0,1,.3.84,1,1,0,0,1-.3.79l-.23.14-.25.07h-.11l-.1-.05h-.48a2.23,2.23,0,0,0,.71,1.63,2.38,2.38,0,0,0,1.59.58h.48l.51-.05a2.07,2.07,0,0,0,.47-.18V14.2H197V8.5h.86V8Zm4.33,2.63H174V8.69h1.72Zm20.22.85-.26.37-.16.16a1,1,0,0,1-.2.15l-.33.18a.88.88,0,0,1-.36.1,1.59,1.59,0,0,1-1.08-.81v-.17l-.05-.1v-.12l.4-.11.3-.12a1.32,1.32,0,0,0,.7-1.22l-.06-.37-.19-.47L194.5,9l-.14-.24H196Z"/><path class="cls-2" d="M175.5,6.83V6.05h1.31v.78Z"/><path class="cls-3" d="M201.13,7.83v7h-.25v-7Z"/><path class="cls-2" d="M207.79,11.49c0-.89-.1-1.88-.07-2.64h0c-.15.75-.33,1.55-.54,2.34l-.83,3.16h-.49l-.79-3c-.22-.86-.42-1.69-.55-2.47h0c0,.79,0,1.73-.08,2.69l-.13,2.85h-.69l.4-6.74h.83l.79,3.08c.23.89.4,1.55.54,2.32h0c.13-.77.28-1.41.5-2.32l.76-3.08h.86l.39,6.74H208Z"/><path class="cls-2" d="M210.5,8.3a.45.45,0,0,1-.4.5H210a.44.44,0,0,1-.44-.46v0a.46.46,0,0,1,.41-.47.45.45,0,0,1,.5.4Zm-.83,6.09V9.55h.77v4.84Z"/><path class="cls-2" d="M211.51,10.83V9.58h.67v.58h0a1.23,1.23,0,0,1,1.11-.66c.67,0,1.17.5,1.17,1.67v3.25h-.77V11.27c0-.57-.11-1.15-.67-1.15-.32,0-.63.27-.73.79a3.08,3.08,0,0,0,0,.43v3h-.77Z"/><path class="cls-2" d="M216.39,8.3a.45.45,0,0,1-.4.5h-.07a.44.44,0,0,1-.44-.46v0a.47.47,0,0,1,.42-.5h0a.45.45,0,0,1,.46.44Zm-.83,6.09V9.55h.77v4.84Z"/><path class="cls-2" d="M217.27,13.59a1.53,1.53,0,0,0,.78.25.65.65,0,0,0,.71-.58v-.12c0-.37-.13-.62-.62-1a1.92,1.92,0,0,1-1-1.38,1.3,1.3,0,0,1,1.26-1.34h.07a1.66,1.66,0,0,1,.87.25l-.21.58a1.22,1.22,0,0,0-.64-.21.59.59,0,0,0-.63.55v.06c0,.33.12.51.6.84a1.8,1.8,0,0,1,1,1.47,1.35,1.35,0,0,1-1.25,1.44.74.74,0,0,1-.21,0,1.62,1.62,0,0,1-1-.28Z"/><path class="cls-2" d="M221.23,8.27V9.55h.93v.59h-.93V13c0,.63.23.8.51.8h.31v.59a1.58,1.58,0,0,1-.57.08,1,1,0,0,1-.76-.29,1.76,1.76,0,0,1-.29-1.22v-2.8h-.59V9.58h.59V8.49Z"/><path class="cls-2" d="M222.83,10.83V9.58h.69v.76h0a1.2,1.2,0,0,1,1-.84h.16v.79h-.16a1,1,0,0,0-.93,1,3.23,3.23,0,0,0,0,.44v2.68h-.77Z"/><path class="cls-2" d="M226,9.55l.64,2.78c.09.38.14.7.2,1h0a5.8,5.8,0,0,1,.21-1l.57-2.79h.76l-.79,3.11a8.73,8.73,0,0,1-1.2,3.12,2.59,2.59,0,0,1-.87.74l-.28-.66a2.2,2.2,0,0,0,.68-.61,2.77,2.77,0,0,0,.44-.81,1,1,0,0,0,0-.24.54.54,0,0,0,0-.18l-1.22-4.47Z"/><path class="cls-2" d="M233.58,12c0,1.87-.87,2.5-1.61,2.5s-1.57-.79-1.57-2.49.79-2.51,1.62-2.51S233.58,10.28,233.58,12Zm-2.41,0c0,.8.14,1.89.84,1.89s.79-1.14.79-1.89-.13-1.88-.81-1.88S231.17,11.23,231.17,12Z"/><path class="cls-2" d="M234.6,14.39V10.14H234V9.55h.61V9.26A2.21,2.21,0,0,1,235,7.83a1.34,1.34,0,0,1,1-.41,1.53,1.53,0,0,1,.6.12l-.13.6a1.2,1.2,0,0,0-.42-.08c-.55,0-.68.59-.68,1.22v.3h.88v.59h-.88v4.25Z"/><path class="cls-2" d="M238.35,7.75a4.61,4.61,0,0,1,1.11-.13A2.09,2.09,0,0,1,241,8.1a1.8,1.8,0,0,1,.47,1.32,1.77,1.77,0,0,1-1.08,1.73h0c.5.15.76.63.91,1.51a9.18,9.18,0,0,0,.38,1.71h-.78a9.37,9.37,0,0,1-.36-1.67c-.15-.92-.44-1.27-1.1-1.27h-.3v2.94h-.77Zm.77,3.11h.32a1.23,1.23,0,0,0,1.24-1.2.76.76,0,0,0,0-.15c0-.78-.32-1.26-1.15-1.27a1.34,1.34,0,0,0-.4,0Z"/><path class="cls-2" d="M245.28,13.07v1.32h-.67l-.05-.51h0a1.25,1.25,0,0,1-1,.59c-.85,0-1.18-.66-1.18-1.86V9.55h.77v3c0,.76.12,1.32.65,1.32a.75.75,0,0,0,.69-.64,1.62,1.62,0,0,0,0-.44V9.55h.77Z"/><path class="cls-2" d="M246.35,10.83V9.58H247v.76h0a1.2,1.2,0,0,1,1-.84h.16v.79H248a1,1,0,0,0-.93,1,3.23,3.23,0,0,0,0,.44v2.68h-.77Z"/><path class="cls-2" d="M250.69,14.39l-.05-.51h0a1.1,1.1,0,0,1-1,.59,1.23,1.23,0,0,1-1.16-1.3s0-.05,0-.08c0-1.21,1-1.75,2.06-1.76v-.15c0-.65-.16-1.1-.77-1.1a1.51,1.51,0,0,0-.8.25l-.17-.54a2.15,2.15,0,0,1,1.13-.32c1,0,1.39.64,1.39,1.73v2.09a6.73,6.73,0,0,0,0,1.1Zm-.11-2.5c-.4,0-1.33.07-1.33,1.12,0,.63.32.86.59.86a.83.83,0,0,0,.72-.73,1.22,1.22,0,0,0,0-.27Z"/><path class="cls-2" d="M252.42,7.47h.77v6.92h-.77Z"/><path class="cls-2" d="M256,7.75a3.76,3.76,0,0,1,1-.13,2.26,2.26,0,0,1,1.58.51,3.51,3.51,0,0,1,.91,2.73,4,4,0,0,1-.81,2.84,2.32,2.32,0,0,1-1.86.73,4.11,4.11,0,0,1-.86-.07Zm.77,6h.29c.85,0,1.67-.61,1.67-2.9,0-1.7-.52-2.63-1.6-2.63h-.36Z"/><path class="cls-2" d="M261,12c0,1.48.59,1.8,1.15,1.8a1.6,1.6,0,0,0,.8-.19l.12.57a2.28,2.28,0,0,1-1.06.23c-1.16,0-1.76-.95-1.76-2.43s.66-2.55,1.63-2.55,1.38,1,1.38,2.14V12Zm1.52-.57c0-1-.35-1.4-.72-1.4s-.76.74-.79,1.4Z"/><path class="cls-2" d="M264.45,9.55l.61,2.72c.07.33.15.76.21,1.18h0c.05-.4.13-.81.2-1.18l.6-2.72h.76l-1.26,4.84h-.69l-1.26-4.84Z"/><path class="cls-2" d="M267.94,12c0,1.48.59,1.8,1.15,1.8a1.6,1.6,0,0,0,.8-.19l.12.57a2.28,2.28,0,0,1-1.06.23c-1.16,0-1.76-.95-1.76-2.43s.66-2.55,1.63-2.55,1.38,1,1.38,2.14V12Zm1.52-.57c0-1-.35-1.4-.72-1.4s-.76.74-.79,1.4Z"/><path class="cls-2" d="M271,7.47h.77v6.92H271Z"/><path class="cls-2" d="M275.91,12c0,1.87-.87,2.5-1.61,2.5s-1.57-.79-1.57-2.49.79-2.51,1.62-2.51S275.91,10.28,275.91,12Zm-2.41,0c0,.8.14,1.89.84,1.89s.79-1.14.79-1.89-.13-1.88-.81-1.88S273.5,11.23,273.5,12Z"/><path class="cls-2" d="M276.76,11.06V9.55h.69v.62h0a1.11,1.11,0,0,1,1-.7c.84,0,1.4.9,1.4,2.49,0,1.79-.74,2.51-1.5,2.51a.9.9,0,0,1-.84-.56h0v2.4h-.77Zm.77,1.55a1.34,1.34,0,0,0,0,.4c.15.69.5.82.71.82.64,0,.84-.88.84-1.86s-.24-1.84-.85-1.84c-.35,0-.66.44-.71.88a2.28,2.28,0,0,0,0,.37Z"/><path class="cls-2" d="M280.76,10.83V9.58h.67v.6h0a1.22,1.22,0,0,1,1.09-.68,1,1,0,0,1,1,.74h0a1.5,1.5,0,0,1,.48-.55,1.21,1.21,0,0,1,.67-.19c.65,0,1.16.48,1.16,1.71v3.21h-.76v-3c0-.63-.09-1.24-.68-1.24-.32,0-.6.27-.71.72a3.23,3.23,0,0,0,0,.44v3.11h-.76V11.22c0-.54-.1-1.1-.67-1.1-.31,0-.63.27-.72.78a2.94,2.94,0,0,0,0,.42v3.07h-.76Z"/><path class="cls-2" d="M287.5,12c0,1.48.59,1.8,1.15,1.8a1.6,1.6,0,0,0,.8-.19l.12.57a2.28,2.28,0,0,1-1.06.23c-1.16,0-1.76-.95-1.76-2.43s.66-2.55,1.63-2.55,1.38,1,1.38,2.14V12Zm1.52-.57c0-1-.35-1.4-.72-1.4s-.76.74-.79,1.4Z"/><path class="cls-2" d="M290.59,10.83V9.58h.67v.58h0a1.23,1.23,0,0,1,1.11-.66c.67,0,1.17.5,1.17,1.67v3.25h-.77V11.27c0-.57-.11-1.15-.67-1.15-.32,0-.63.27-.73.79a3.08,3.08,0,0,0,0,.43v3h-.77Z"/><path class="cls-2" d="M295.52,8.27V9.55h.93v.59h-.93V13c0,.63.23.8.51.8h.31v.59a1.58,1.58,0,0,1-.57.08,1,1,0,0,1-.76-.29,1.76,1.76,0,0,1-.29-1.22v-2.8h-.59V9.58h.59V8.49Z"/></g><g id="GoI"><path class="cls-2" d="M135.91,19.41v.41H135v4.74h-.53V21.22H132.6a.81.81,0,0,0-.31.06.45.45,0,0,0-.34.34v.25a2.57,2.57,0,0,0,.42,1.37,2.72,2.72,0,0,0,.75.9.33.33,0,0,0,.19.06l-.35.36h-.06l-.07-.06-.28-.27-.41-.46-.17-.24-.15-.25a3.55,3.55,0,0,1-.31-.69,2.67,2.67,0,0,1-.09-.69,1.19,1.19,0,0,1,.23-.75.64.64,0,0,1,.27-.22.76.76,0,0,1,.39-.1h2.19v-1h-4.28v1.3a.94.94,0,0,1-.68.91,1.09,1.09,0,0,1-.4.07H129a.54.54,0,0,1-.18,0l.72,1,.28.35.52.57.22.22-.37.34a1.92,1.92,0,0,1-.56-.54,13.88,13.88,0,0,1-1-1.29l-.31-.45L128,21.8l-.21-.36-.2-.36.41-.3.41.69a.63.63,0,0,0,.57.25.78.78,0,0,0,.49-.14.93.93,0,0,0,.21-.51V19.82h-3.3v4.74h-.53V19.82h-1.74v4.76h-.53v-2.5H122v1l-.08.07h-.11a.43.43,0,0,1-.26-.13,2.38,2.38,0,0,1-.44-.4l-.38-.45a.84.84,0,0,1-.13-.27v-.08l.08-.09h.76V20.24a.44.44,0,0,0-.44-.44.67.67,0,0,0-.2,0l-.17.09-.11.16v.65H120v-.37a.84.84,0,0,1,.29-.68,1.13,1.13,0,0,1,.71-.24.88.88,0,0,1,.89.51,1.16,1.16,0,0,1,.07.37v1.34h1.57V19.8h-1v-.39Z"/><path class="cls-2" d="M159.46,22.1h-.18l.72,1,.28.35.52.57.22.22-.37.34a1.92,1.92,0,0,1-.56-.54,13.88,13.88,0,0,1-1-1.29l-.31-.45-.29-.48-.21-.36-.2-.36.41-.3.41.69a.63.63,0,0,0,.57.25.75.75,0,0,0,.48-.14.87.87,0,0,0,.22-.51V19.82h-3.3v4.74h-.53V19.82H152.7v1.51l.18-.17.12-.1a1.11,1.11,0,0,1,.7-.25,1.42,1.42,0,0,1,1,.38,1.16,1.16,0,0,1,.39.91,2,2,0,0,1-.52,1.21l-.22.27-.3.33-.43-.33a.36.36,0,0,0,.16-.11,3,3,0,0,0,.65-.94,1.53,1.53,0,0,0,.11-.47,1,1,0,0,0-.1-.49.67.67,0,0,0-.66-.35,1,1,0,0,0-.76.44,1.87,1.87,0,0,0-.22.39,1.23,1.23,0,0,0-.08.38v2.13h-.53V23.08a1.25,1.25,0,0,1-.93.37,1.44,1.44,0,0,1-1-.4,1.33,1.33,0,0,1-.12-1.88l.12-.12a1.56,1.56,0,0,1,.7-.36h.54a.64.64,0,0,1,.27.07v.44h-.15l-.15-.06h-.15a.8.8,0,0,0-.66.3,1.12,1.12,0,0,0-.24.7.9.9,0,0,0,.49.88,1.16,1.16,0,0,0,.37.07,1,1,0,0,0,.73-.37.57.57,0,0,0,.21-.4v-2.5h-3.68v1.3a.94.94,0,0,1-.68.91,1.09,1.09,0,0,1-.4.07h-.37l.72,1,.28.35.52.57.22.22-.37.34a1.92,1.92,0,0,1-.56-.54,13.88,13.88,0,0,1-1-1.29l-.31-.45-.29-.48-.21-.36-.2-.36.41-.3.41.69a.63.63,0,0,0,.57.25.75.75,0,0,0,.48-.14.87.87,0,0,0,.22-.51V19.82H144.7v4.74h-.53V22h-1.41l-.35-.41h1.76V19.82h-1.88v1.75l-.06.21a.53.53,0,0,1-.34.33l-.21.06a.24.24,0,0,0-.12,0h-.36l.62.94.27.35.48.55.21.21-.41.34q-.18-.06-.48-.51l-1.22-1.77-.28-.46-.18-.3L140,21.2l.43-.28.3.55a.63.63,0,0,0,.59.35h.23a.26.26,0,0,0,.13-.1l.07-.14V19.82h-2.36v-.41H161.5v.41h-.8v1.3A.94.94,0,0,1,160,22a1.09,1.09,0,0,1-.4.07Z"/><path class="cls-3" d="M164.06,19v6h-.25V19Z"/><path class="cls-2" d="M170.82,24.32a5.17,5.17,0,0,1-1.65.3A2.76,2.76,0,0,1,169,19.1h.3a3.4,3.4,0,0,1,1.34.25l-.17.57a2.69,2.69,0,0,0-1.19-.23,2,2,0,0,0-2.17,1.81,2.16,2.16,0,0,0,0,.36A2,2,0,0,0,169,24h.2a2.27,2.27,0,0,0,.93-.14V22.29h-1.09v-.56h1.77Z"/><path class="cls-2" d="M176.49,21.81a2.52,2.52,0,0,1-2.18,2.82l-.32,0a2.48,2.48,0,0,1-2.43-2.53,1.48,1.48,0,0,1,0-.21,2.56,2.56,0,0,1,2.28-2.82h.22a2.42,2.42,0,0,1,2.42,2.73Zm-4.18.09c0,1.15.62,2.18,1.72,2.18s1.73-1,1.73-2.24c0-1.07-.56-2.19-1.72-2.19s-1.73,1.06-1.73,2.25Z"/><path class="cls-2" d="M178.58,24.56l-1.76-5.39h.75l.84,2.66a19.87,19.87,0,0,1,.58,2h0c.15-.62.37-1.3.61-2l.91-2.66h.75l-1.93,5.39Z"/><path class="cls-2" d="M184.65,22h-2.09v2h2.33v.58h-3V19.17h2.91v.58h-2.21v1.71h2.09Z"/><path class="cls-2" d="M185.8,19.24a7.39,7.39,0,0,1,1.33-.11,2.19,2.19,0,0,1,1.56.44,1.35,1.35,0,0,1,.43,1,1.41,1.41,0,0,1-1,1.38h0a1.33,1.33,0,0,1,.79,1.09,9.59,9.59,0,0,0,.42,1.48h-.72a7.27,7.27,0,0,1-.36-1.29c-.16-.74-.45-1-1.08-1h-.66v2.33h-.69Zm.69,2.46h.72c.74,0,1.21-.41,1.21-1s-.5-1-1.24-1a2.69,2.69,0,0,0-.69.06Z"/><path class="cls-2" d="M190.1,24.56V19.17h.76l1.73,2.73a16.81,16.81,0,0,1,1,1.75h0c-.06-.72-.08-1.38-.08-2.21V19.17h.66v5.39h-.71l-1.71-2.73a17.55,17.55,0,0,1-1-1.8h0c0,.68.06,1.33.06,2.23v2.3Z"/><path class="cls-2" d="M199.91,22.19c0-.75-.09-1.65-.08-2.32h0a20.61,20.61,0,0,1-.68,2l-1,2.62h-.52L196.77,22c-.25-.76-.47-1.45-.62-2.09h0a20.09,20.09,0,0,1-.1,2.38l-.14,2.31h-.67l.38-5.39h.89l.92,2.61c.22.66.4,1.25.54,1.81h0c.14-.54.33-1.13.57-1.81l1-2.61h.89l.33,5.39H200Z"/><path class="cls-2" d="M204.59,22h-2.1v2h2.34v.58h-3V19.17h2.91v.58h-2.22v1.71h2.1Z"/><path class="cls-2" d="M205.73,24.56V19.17h.76l1.73,2.73a16.81,16.81,0,0,1,1,1.75h0c-.06-.72-.08-1.38-.08-2.21V19.17h.66v5.39h-.7l-1.71-2.73a17.55,17.55,0,0,1-1-1.8h0c0,.68.06,1.33.06,2.23v2.3Z"/><path class="cls-2" d="M212,19.76h-1.64v-.59h4v.59h-1.64v4.8H212Z"/><path class="cls-2" d="M221.28,21.81a2.52,2.52,0,0,1-2.2,2.82l-.31,0a2.48,2.48,0,0,1-2.43-2.53,1.48,1.48,0,0,1,0-.21,2.56,2.56,0,0,1,2.28-2.82h.22a2.46,2.46,0,0,1,2.44,2.48A2.09,2.09,0,0,1,221.28,21.81Zm-4.19.09c0,1.15.63,2.18,1.72,2.18s1.73-1,1.73-2.24c0-1.07-.56-2.19-1.72-2.19S217.09,20.71,217.09,21.9Z"/><path class="cls-2" d="M222.18,19.17h2.9v.58h-2.2v1.8h2v.57h-2v2.44h-.7Z"/><path class="cls-2" d="M228.47,19.17v5.39h-.7V19.17Z"/><path class="cls-2" d="M229.69,24.56V19.17h.76l1.72,2.73a16.81,16.81,0,0,1,1,1.75h0c-.06-.73-.09-1.47-.08-2.21V19.17h.65v5.39H233l-1.71-2.73a17.55,17.55,0,0,1-1-1.8h0c0,.68.05,1.33.05,2.23v2.3Z"/><path class="cls-2" d="M235,19.24a10.42,10.42,0,0,1,1.48-.11,3.1,3.1,0,0,1,2.18.67,2.52,2.52,0,0,1,.76,1.94,2.84,2.84,0,0,1-.77,2.09,3.34,3.34,0,0,1-2.39.78,10.64,10.64,0,0,1-1.26-.07Zm.7,4.77a4.09,4.09,0,0,0,.7,0,2.07,2.07,0,0,0,2.29-1.82,1.85,1.85,0,0,0,0-.47A1.92,1.92,0,0,0,237,19.63a2.26,2.26,0,0,0-.45,0,3.7,3.7,0,0,0-.81.07Z"/><path class="cls-2" d="M241,19.17v5.39h-.69V19.17Z"/><path class="cls-2" d="M243.06,22.86l-.56,1.7h-.72l1.83-5.39h.84l1.84,5.39h-.74l-.58-1.7Zm1.77-.54-.53-1.55c-.12-.35-.2-.67-.28-1h0c-.08.32-.16.64-.27,1l-.52,1.56Z"/></g><line class="cls-4" x1="117" x2="117" y2="80"/><g id="NSAP"><circle class="cls-5" cx="80" cy="40" r="32"/><path class="cls-6" d="M104.73,35a3.46,3.46,0,0,0-2.34-2.6,10.75,10.75,0,0,0-3.7-.41h-2c-.34,0-.55,0-.4.48a6,6,0,0,1,.17,1.11,83.72,83.72,0,0,1,.22,9.1,12.74,12.74,0,0,1-.39,3.42c-.12.44,0,.47.38.46h2.26c.38,0,.48-.08.39-.48a24.14,24.14,0,0,1-.45-4.48c0-.74.25-.92.9-1a12.41,12.41,0,0,0,2-.31,3.54,3.54,0,0,0,3-2.94A5.81,5.81,0,0,0,104.73,35Zm-5.38,4.56c-.37,0-.44-.12-.43-.44V36.51h0V34c0-.41.1-.57.55-.58a2.72,2.72,0,0,1,3,2.42c0,.07,0,.13,0,.2.21,2.29-.82,3.46-3.12,3.56Z"/><path class="cls-6" d="M87.76,31.89c-2.55,4.84-4.48,10-7.43,14.68h3c.4,0,.53-.13.57-.51a14.89,14.89,0,0,1,1-3.58c.13-.34.28-.48.65-.47h4.31a.61.61,0,0,1,.64.41,13,13,0,0,1,1.26,3.64c0,.18,0,.48.31.48h3.24C92.17,41.9,90.36,36.73,87.76,31.89Zm-1.59,8.32c-.38,0-.26-.22-.18-.43.54-1.24,1.07-2.49,1.66-3.88.12.27.19.39.24.52l1.56,3.79Z"/><path class="cls-6" d="M76,46.55a6.41,6.41,0,0,1-4.08-.22.63.63,0,0,1-.5-.73V43.37A4.33,4.33,0,0,0,73.73,45a2.84,2.84,0,0,0,2.16-.43,2,2,0,0,0,.68-2.75,1.93,1.93,0,0,0-.28-.36,22.27,22.27,0,0,0-3.12-2.53,4,4,0,0,1-1.57-2.36A3.79,3.79,0,0,1,74.42,32h0a6.16,6.16,0,0,1,3.68.11.66.66,0,0,1,.55.75v1.91a2.21,2.21,0,0,1-.85-.59,2.61,2.61,0,0,0-3.46.08,1.67,1.67,0,0,0-.11,2.25A7.75,7.75,0,0,0,75.87,38,18.24,18.24,0,0,1,78,39.7a4,4,0,0,1-2,6.85Z"/><path class="cls-6" d="M68.74,45.57c.19,1,.19,1-.79,1-1.43.3-2.12-.48-2.87-1.61-1.81-2.72-3.82-5.31-5.76-7.94a1.07,1.07,0,0,0-.19-.18c-.21.08-.15.25-.15.38A63.13,63.13,0,0,0,59.19,45a5.67,5.67,0,0,0,.18,1c.13.4.07.55-.38.54H56.5c.68-2.8.4-5.59.46-8.36a15.22,15.22,0,0,1,0-1.91,4.12,4.12,0,0,0-1.45-3.94A2.39,2.39,0,0,1,55.3,32h3.08c.31,0,.37.25.5.44,2,3.07,4.27,6,6.37,9l.11.08a6.1,6.1,0,0,0,1,1.37c0-.12.09-.18.09-.24a74.2,74.2,0,0,0-.24-9.43C66.06,32,66,32,67.28,32c.52,0,1.2-.17,1.5.09s-.06.94-.11,1.44v.21c-.32,3.12-.13,6.24-.15,9.37A11.26,11.26,0,0,0,68.74,45.57Z"/></g><g id="Emblem"><path d="M9.27,21c-1.2,2.74-2.66.84-4.3-1.82-.71-.87-1.94-.76-1.72-3C6,12,9.37,5.61,16.13,10c3.91-1.4-4-6.17,9.8-5.64.83.41,3.83-.64,4.65,1.57,1.34,11,5.56-2.47,10,5.38,2.23.83,2.87,1.67,4.48,4.81,1.17.4-3,6.77-5.54,6.22-.17-.31-.79-2.12-1-.81,5.86,8.17-6.1,14.07-2.44,25.91.74,1.68,4,.35,4,4,.45,1.86,3.43,4.22,2.47,7-.72,2.13-1.46,5.48-5.11,6.1A2.13,2.13,0,0,1,36,67.17a1.89,1.89,0,0,1-.53.08C32.61,66.66,7.71,69.73,11,64.41,6.08,65.6,3.58,56.33,7.35,52.76c1-1,.6-2.74,2.36-4.58,2.69.43,3.15-3.53,2.42-8.07C12.62,32.41,5.22,33.33,9.27,21Zm7.51,38.57h0c0,.76,1.33.85,1.42,1.47a7.14,7.14,0,0,0,1.18,1.55c-.21,0-.81.73.93.49.3-.46-1.94-2.22-1.53-2.51-1-.79.25-2.7-2-2.09-.31.33-.19,0,0,1.05Zm-2.65-12.9c-2.5,2.88-2.48,2.63-2.22,3.24,2.29-2,2.44-.93-.26-.61.48,1-1.13,1-.28,1.76.53-1-.21,1.91,3.28-1.32-.32.17-.55.5-1,.44a11.23,11.23,0,0,0,2.14-5.31c.18-.35.22-.47.21.74,1.86-3.32,1.68-8.61,0-12.83a10.56,10.56,0,0,1-2.57,3c.79,3.66-.44,7-.85,11.5.29-.21,0-1.49.52-1.5.18.54-.64,1.28-.37,2.47.49,0,.37-.81.77-1.93.58.68.57.83.68.39C13.9,46.05,12.79,50.28,14.13,46.67Zm21.23,2.91c.71-.33.3,2.41.8,1.57,2.54.55-.33-.76-1.83-3.64-1.36-3.6,2.09-10.85-3.12-13.34.77,2.75-.68,5.22-.06,8.87C31.13,42.43,35,55.77,35.36,49.58ZM20.18,9.47c1.24-1.8,4.43-2.32,3.69,1.85.32,0,.38.49,1.6.07.45-.68-1.18-3.37,2.18-3.21.41.06,1.43,1.32,1,1.27-.26-.88-3-1.43-2.75.86.77.77,1.67.13,3.15-.3-.74.29-2.29,2-.13,2.28,3-2.46-2-4.43-3.09-6.2.44-.62-.93-2.77-.71.78-.91.69.52-2.71-1.07-1.53-.41.27,1.26,1.74-.6,1.56.95-1.12-1.07-3.71-.52.1-1.64,0-4.76,2.07-3.56,4.62,1.73.7-.56,3,.82,4.6.47.24,2.53,1.49,1-.22-1.19,0-.46-1.08-1.31-2.25,1.92.92-.76-.81,2-2.76-.71,0-1-.5-2.26-.82.67-.25,4.24,1.36,3.12-1.36C22.15,8.39,21.6,8.53,20.18,9.47Zm5.28,30.24c.38-1.26-.62-3.43-2.29-1.9.19,3.58-1.19,8.84.12,13.24C27.43,52.37,25.71,45.24,25.46,39.71Zm-9.74,18.5A2.09,2.09,0,0,0,18,55.34c.9-1.12,1-3.8-1,.44,1.09,2.48-2,1.73-4.37,1.34.44,0,.87-.58,0-.33.15-.16,1-.8-.23-.61.2.12.47-1.82-.17-.94-.25,0,.56-1.3-.16-.67.12-.37,0-2-.74-.75.37-2.62-3.56.63-1.72,2.45.41-.38.23-1.24.27-1.94.83.52-.27,2.33.36,3.26.77,1.3-3.14,4.46.07,5.33-2.35-2.05.88-1.47,1.09-4.1.35,2.44,5.1-.46,6.64,4.18C20.18,63.3,16.47,60.51,15.72,58.21Zm6-13.61c-1.81-2.3,1.47-8.71-2.85-9.7-1.73.12.79,7.15,0,12.65-.62-2-.87,3.27.63-1.57.44,1.14-.67,2.05-1.36,3.09.8-.25.7,1.73.33,1.08-1.41-1.91-.91,2.87-.79,0,.11-.1.14-.48.55-.13,0,2.21,1.36-.05,1.87-4.41.23.24,0,0,.23.88.44.79.15.89.64.26-.61-.26-.58,0-.49.63.29-1.55.42-2.27,1-.07.46-.71.27-1-.21-3.42.14.11.21.18.41.71Zm12,15.79c-.32.28,1.1,2.1-.06,1.61.18,3.39,1.12-.68,2-4.09.28.92-1.07,4.11,2.1,1.64.68.11-3,3.63-1,3.49.42-1.33,3.32-3.41,1.22-5.31-2.11-2.11-2-1.93-2.63-2.2,1.7,1.51-.49,3.59.68.27-1.32.11-1.4.32-2.67,1.25,0-1-.13-.45,1-1.44.14-.12-.08-3.1-.62-2.29.28.82-1.71.83-1-.54-1.1.42-.14,2.46-1.06,3.23.39-.17,1.16.9-.16.58.26.47.32-.4,1.64.2-.15.13-.61-.12-1.11.44.16.05.23.12.72-.06-.09.3-.17.2-.71.75a1,1,0,0,0,.67-.08c-.08.24-.27.06-.65.61.64,0,.82-.45,1.77-1.44,0,.5-1.37,1.26-1.57,1.91.56-.23.58-.18,1.67-1.57-.86,1-2.61,4.21.23.45.2,0-2.11,3-.73,2.28a14.19,14.19,0,0,1,.88-1.74,8,8,0,0,1-.4,1.37,19,19,0,0,0-2.36,3.58c1.21.51,1.33-1.59,2.09-2.9ZM30.45,50.3c-.52-2.58-1.73-5-1.44-9.15.26-1.09,3.1-9.22-1.59-5.66.15,3.47-1.09,9.68-1,13.94C26.69,47.52,27,45,27.61,42c-.1,2.86,1.35,7.42,3,9.08,0-.56.2-1.49.56,0C31.56,51.06,30.93,49.27,30.45,50.3Zm10-33.76c-.68,1.4-2.5-.15-1.94,3.29.5.36,2,3.06,2.59,1.45.37-2-4.59-.1-.19-4.63a2.12,2.12,0,0,1,1.57,2.16c-.21,0-.8-1.43-1-1-.16-.31,2.05,3.45,1.17.34,0-.16-.09,0-.18-.46.11.35,2.18,2.18.25-.28.14-.5,1.78,1.8,1.35.38a12.69,12.69,0,0,1-2.88-2.33c-.19-.9,2.75-3.9,1.85.49-.23.06-.21-.12-.76-.33,6.56,7.28-2-9.45-3.21-1.33.38-.12,2-.1,1.73.77-.43.07-.71-.65-2.12,0-.08,1.14-.25,2.25,1.72,1.48ZM8,14c3.93-.07.36-6.34-4.25,2.33-.32,1.39,2,.4,2.32-1.68-.29-.33-1.09-.7.2-1.5,2.26.34.47,1.33-.82,3.16.6.12,1.2-1.11,3-.58A.91.91,0,0,1,8,16c1.69-.61,2.16.86-.38.36.37.93,2.87,2.73.5,3.86-1.15-.49-1.18,2.86.34.57C9.19,21.87,12.49,13.67,8,14Zm26.38-2.52c1.11,1.27-3.54,1.24-1.94,2.79.73-.81,2.42-.3,2.52-2.85.26-.12-.14,1.64.65,1.22-.1-.2.44-.74.23.17-.13,2.3-.41,2.3,0,1.85.06-1.38-1.64-.64-.39.45.18-1.6,1.74-1,2.18-2.34.15,0,0,.12.31.44-.06-1.78,1.71,0,1.88-2.34-.21-.26.08-.14-.73,0,.35-.5.35-.77-.65,0,1.46-1.71-2.84-2.67-3.16.3-.66,0-1.11-.85-2.42.24-1.69,1.07-.77,2.46,1.48.07Zm-22,1.83c1.23-.78,2.28-5.51-2.88-3.8,0,.32.65.09.33.87-.84-1.12-2.51,1.15.77,1.73.72.27-.59,1.34-.25,1.65a1.38,1.38,0,0,0,.2-2.67c1.71.44,1.76,2.27,0,3.36,2.39.5-1.21,1.05.81,1.66.8-.33.25,1.65,1,1,.57-.57,0-1.6-.68-2.44.76.68,2.11.13.63-1.36Zm6.36,44.32c.29,7.83,11.47,7.64,11.87.11-.27-8-11.68-7.67-11.94-.11Zm-6.25-4.1c.35.65.36,3.15,1.74,3.29.23-.71,3.64,2.21,2.17-1.31.16,0,.31.13.69-.71-.29-.17-.38-.06.56-.78-.39.08-.13-.53.09-.1,2-1.68-5-1.36-5.32-.39ZM31,14.83c.62.84,1.12-5.1-1.07-5.65.55-.51,1-1.54-.19-2.71-1-.17.71,1.64-.12,1.25.39-.55-2.65.07,0-1.58.79-1.42-3.39-.76-2.06.46,0,0,.76-1.5,1.25-.33-2.85.65,1.18.71.82,2.89,1.09,1.44.34,3.38.48,5.4.54,1.53.52,1.84.41.91-1.28-2.18-1.22,1.17.11.93-.61-1.85.94.07.3-1.57ZM13.22,22.56c2.15,1.16,1.42-3-.58-2.28-.58.48,1.84,1.84.75,2-.18-.22-1.14-.62-1.14.62.12,0,1.89,2,.35,1.24-.27-.26-.46-.55-.9.19,3,3.43-1.73-.43.58,3.69-.46.74-.42-.51-1.29-.25,0,.15-.5.58.58,1.19.75-.06.42.93.89,1.35.25-.11,1-1.08-.39-1.73.56-.17,1.83-.6.55-1.81.48-.06,1.92-1,.27-2C14,24.68,14.84,23.8,13.22,22.56Zm5.47-9c1,.16-.45-1.15.37-4.5-.18-.72,2.05-1.14.74-2.49,0,.24.3.8-.73.9C18.35,4.94,22.3,8.4,20.25,6c3.23,3-.05-3.45-2.05,1,.25.33.77,1,.2,3,.26-1.19-1.19-1.58-1,.74.12.57,1.65,1.19.88,2.26-.85-1.07-1.18-2.86-1,.95-.28.05.23,1.29,1.41-.38Zm6.46-.67c.56.58,3.73.27,2.26-1.47-.06.09-.11.07-.08.53-.36,1-2.87,1.14-4.45.17.26-1-1.18-2-.17.34,2.56,1.07-.43,1.28-1.78.47.74,1,1,1.13,3.38.36-.45.61-.93.79-2.81.77-.5,0-.75.21.54.45.55.17-.08,0-.61.49.58.35.82.22,2.32-.6,1.05-1.82,1.37.93,3.59.4.39.41,1.42-1.85,1.77-.79.55-1.95-1.31,1.07-3.66-.12,0,.08-1.3-1.16-.42-.64.21.85,3.95.77,2.95-.54a1.85,1.85,0,0,1-2.57.42l-.26-.23ZM10.43,62.67c-.7.87,10.36.68,4.65-1.07,0-.81-1-.63-2.54-.61.39-1.06-3.08-.42-2.57,1.07,0-.12,0,0,.35-.11C10.08,62.4,10.39,62.06,10.43,62.67Zm.06-38.57c1.49-.21,1.78-.78.25-2.54,1,.11-.39-1.95-.79.27,0,.48,1.22.82,1.09,1.78-1.15-.07-2.33-1.46-.42,1.55-.3.23-.24.59-1.14-.61,0,.05-.3-.33-.5.21-.22.13,2.18,3.39.33,2.34-1.36-1.31.26.7.15,1.93.29-.14.17,0,.62-.47-.63-1.06,1.76-.84-.13-2.88C10.64,26.21,12.66,25.3,10.49,24.1Zm4.57-12.67c.35-.93,1.4,2.54,1.79,1-.06-.8-2.32-2.43-3.27-1-1.23,1.28,3.86,1.72,1.17,2-.62,0-.84-.35-1.48-1,.1.94.07,2.22,1.88,2.81,0,.36-.06,1.12.71.19.23-.28-.41-.59-.68-1.63C16.38,14,16.41,12.49,15.06,11.43ZM35.94,48.26c-1.67-3.09-.27-6.4-.73-11,0-.24-1-1-.57.43.79,2.87-2.24,8.08,1.18,11.18A5.25,5.25,0,0,1,35,47.11C35.37,47.35,35.11,47.37,35.94,48.26ZM34.6,23.57c.39.66,2.09,4.48,3.12,1.94.33-.38,1.16-.54.13-1.2-4.15,4.39,1.83-4.12-2.35.18-1.22-.65,2.11-2.35.61-2.36-.07-.18-1.2.83-1.53.19C37.26,21,32.72,19.38,34.6,23.57Zm-7,39.84c1.48.06,4.87.16,4.26-1.92.18.1,1.21-.79.12-1.22A1.21,1.21,0,0,0,31.4,59a2.24,2.24,0,0,0-.08-2,8.49,8.49,0,0,0-.22,2.56c-.23,0-.28.28-.13.75-.73.31-1.07,1.4-2.44,2.59.16.49.23-.09-.89.53ZM21.71,41.93c0,3.13,2.08-3.92.65-6.33C20.48,35.67,21.65,39,21.71,41.93ZM32,21.49c-.56-1,.52-.59.63-3-.41-.75-1.05.41-1.11,1.63-.35-1.2.15-1,.59-3.11-.18-.25,0-.25-.69.34.21-.82.83-.68.75-2.74-1.86,0-.43,13.74,1.27,7.38-.32.2-.39.18-.91,1.21-.07-.36,0-.7-.28-1a1.48,1.48,0,0,0,.57-1.2C33.28,20.55,32.58,20,32,21.49Zm-6.41-3.41c1.34,1.29,2.55-3.39.9-2.23-.64,2.18-3.17.69-4.24-.16-.19.64-.46,3.93,2,1.83-.54.55,1.09,1.13.89.12l.91.1a3.39,3.39,0,0,1-.5.34Zm-12.43-.59c.63,1.89,5.46,2.51.53-.52-.35-.37-.6-.64-1,.57s1,2.15,1.81,3.26c-.28.33,1.33.53.8-1-.41-.56-2.6-.44-2.18-2.31Zm13.66,19.4c-.92-3.13-1.84,3.48-.2,5.19.2-1.49.79-2.74.16-5.19ZM37,54c-.31-.28,0,0-1.06-.6-.16.44-.16.09-.56-.2,0,.15.11.32-.34.25-.4-1.41-.89,1.47,0,1.24a2.29,2.29,0,0,1,1.51,2.49c.53.19,1.7-.16,1-1.15a1.19,1.19,0,0,0-.33-2C37.32,54.5,36.53,54.26,37,54Zm.3-38c-1.49-.48,2-1.91.51-2.43-.81.79-3.22,1.64-.36,2.87-.71.64-2.88-.81-2,1.88.74.35,1.12.25.47-.68.49-.48,2.13,0,2.25-2.17C38.32,15,37.41,15,37.3,16ZM28.62,49.73c.52-.64.4-1.61-.67-.26-.27-1.23.23-3-.44-4.82-.46,1.29-.27,2.64-.07,4.67-.64-.91-.49-.56-.6,1.68.37.57.5-2.21.8,0,.25-.17.46-.26.11-1.26.62-.08.64,2.16,1.14,1.11-.14-.35-.66-.6.3-.78C29,52.11,30.82,50.11,28.62,49.73ZM23.8,27.38c.11.05,2.89,4.29,3.25,2.36-1.14-.28-2.66-4.25-4.06-2.65.12.23-1.82,2.86-.13,2.46C22.64,28.89,23.74,28.69,23.8,27.38ZM11.66,20.05c3.4-1-4.67-6.65.22-1.33,0,.27.48,1.89-1-.16-.82-.24-.67,1,.59,1.92.07.16.49.65-.33,1.38C11.86,22.58,13.65,20.81,11.66,20.05Zm17.89,23.4c.84-1.35,2.12-5.72.87-8A79.51,79.51,0,0,0,29.55,43.45Zm-13.9-22c-.54-1.05-.42,1-.37,2.27-1.47-1.67-.17.59-.35,1.37-1.29,0,.13.78-.47,1.83.07,1.73,2.2-3.24,1.19-5.44Zm24.76,32.4c-.22,2.15.08,4.68.11,8.23A13,13,0,0,0,40.41,53.85ZM27.27,26c-.6-.42-.94-1.49-2.55-2.47-1,1.55-.3.76,1.88,3.38C26.78,26.81,27,26.68,27.27,26ZM21.58,48.79c-.59.12-.64-2.54-1.07-.41-.68-.48-1.52.92-1.05,2.76-.1-.56.92-1.94.75,0,1.16-.57-1.05-1.07.29-2.32a4.51,4.51,0,0,1,.56,2.3c-.11-.46.79-1.43,1-2C21.77,49.09,21,49.91,21.58,48.79Zm-3.45-6.36c-.59-1.47.14,1.74-1.48,5.63C19.27,47.8,17.82,45.57,18.13,42.43ZM19.9,18.35c-.44-.38.08-2.29-1.26-.74-1.49-1-.09.19.48,1.85.31,1.5,2.7-2.22,1.29-1.06C20.5,18,20.1,17.13,19.9,18.35Zm8.88.14c-1.39-.95,0,.11-.21,1.26-.35.22.39.6.9-.45.59-.21,2.12-2.13.18-2.77,0,0-.37.21.09.4.18.2.49.49-.4.2.3.4.45,3.17-.31.13a2.5,2.5,0,0,1-.11.9l-.25-.59C28.51,17.91,28.75,18.19,28.78,18.49Zm1.31,27.39c-.14,3.21,2.05,3,.69-1.87C30.31,43.64,30.12,44.75,30.09,45.88Zm9,7.84c-.44,2.52-.13,5.43.16,9A31.93,31.93,0,0,0,39.09,53.72Zm-20-38c.5-1-1.47-1.77-1.65,0,.67,1.33,2.27,2.1,2.18-.84-.49-.28-.15.12-.56.81Zm14,12.41c.54-.82-.06-1.7-.79-1,.32.4.58,2.56,1.22.82.52.66-1.6,2,0,3.14-.56-1.46.52-.23.7-2.62-.06-.42-.54-1.61-1.14-.37ZM16.92,18.89c-1.3-2.2-.85-.54-.41,1.78-.92-1.32-1-.22-.38,1.55.49-1,1.47-2.17.91-4.06C16.9,18.39,17,18.25,16.92,18.89ZM13.18,37.14a3.26,3.26,0,0,0-.7-1.74c-.26.88-.45,3.9.47,5.18.21-.55,0,0,.17-1.31A18.94,18.94,0,0,1,13.18,37.14Zm22.4-10.91c-.36-1-.41-.05-1.25.67-.23-.1-.62-.7.23-1.7-.77-1.77-1.43,2.05.33,3.5C34.77,27.8,35.06,27.78,35.58,26.23Zm-13-1.14c-.74-1.23,1.47-.86,1.51-2.68-.38-.35-.06-.22-1.14,0,.11.14-2.33,2.12-.34,2.68Zm16.2,3.55c2.43-4-1.73.44,0-2.14,1.22-2-2.9-.31,0,2.14ZM24.16,25c.25-1.6-4,1.38-1.61,2.44.13,0,.23-.07,0-.55C22.68,25.85,23.39,26.49,24.16,25ZM39.74,53.89a63.59,63.59,0,0,0,.16,8.73A29.71,29.71,0,0,0,39.74,53.89Zm-15.31-39c-2.4.34.19,3.79,1.62.8-.5-.14-.66,1.13-1.44.56C25.39,15.93,26.22,15.53,24.43,14.89Zm11.73,6c.16,0,0,0,.33-.1-1.21-.92,2.84-1.79,1.28-3.25C37.82,17.88,34.82,19.55,36.16,20.89Zm-2.89-3.22c-.87-.89,1-.46,2-1.38C35.61,14.62,30.54,16.65,33.27,17.67Zm-19.6-2.84c-1.9,1.23,4.12,4.36,1.08,1C14.81,15.51,14,15.68,13.67,14.83ZM27.29,28.05c.29.18-3.42-3.81-2.57-1,.31.49.7.12,1.55.8.09.16,0,.17-.14.88C26.47,28.71,26.6,29.05,27.29,28.05ZM7.72,53.77c-.18,2.52.62,5.78-.16,9.35C8.67,61,8.34,57.19,7.72,53.77Zm17.13-31.5c.4.83.46,1.09,1.91,2.11-.05.31-.48,1.27.45.52C27.42,24.24,26.53,22,24.85,22.27Zm6.86,31.18c.12-.87-3.26-.65-1.22.36,0,.26-.29.38.24.62-.22.76.74,3,1-.36C31.21,54,31.78,54,31.71,53.45Zm3.07-39.9c-1.12-.18-4.06,3.09-1.34,1.64C34.09,15.23,34.59,15.33,34.78,13.55Zm-13.72,6c-1.4-2.49.5,5.17,1.62-.11-.52.1-.33,1.17-.75.1-.36.25-.4.66-.5-.45ZM6.73,18.9c-.19.07,0,.09-.13.63.18-.21-.87-1.75-.66-.57.2.12.42,1.06-.33.07-.43,2.3,5.45-.18,1.71-2,.11.91,2.24,1.4-.34,2.47C6.81,19.36,7,19.51,6.73,18.9Zm17.9,12.5c1.23,3.52,2.79-.6-1,.05C22.44,32.93,22.49,34.79,24.63,31.4ZM41.74,20.54c.41-.07,1.59-1.66-.22-.34.1-.62,1.08-1.66-.34-.48,0,0,.32-.88-.37-.28-.5-.85-1.36.45.18-2.37-.22.44-2.65,2.48-.52,2.71C40.65,19.4,41.72,21.48,41.74,20.54ZM10.37,33.05c.27.05,1.41-1,1.6-2-.17.19-.92-2-1.45-1.46-.35.48,2.58,2.9-.27,1.72-.05,0-.6-.4-.3.23C10.15,31.78,11.32,32.34,10.37,33.05ZM33,19c-.35,1,2.13.09,1.64-1.5C34.11,17.13,33.26,17.8,33,19Zm2.13,41.69-.27,1c.16.06.36-.1.28.37-.12,0-.25.07-.34-.12,0,1.43.59,1.91,1.65-.74-.53-.37.1.1.79-.58a7,7,0,0,1-2.1.1Zm-7.3-32.48c-.75.35.55.6.73,2.15,1.32-.58.32-2.11-1.17-3.18C27.4,27.68,27.29,27.34,27.83,28.21Zm.71-1.73c2.26.76-.3-3.79-.81-1.75C27.32,25.27,29.2,25.26,28.54,26.48ZM17.68,39.27c-.11-.73.71-3.49-.11-4.48C17.05,35.92,17,37.2,17.68,39.27Zm-3.62-7c.3,0-1.35-2.07-1.29-1,.08.34,1.23.77.53,1.63-1.44-2-1.2,3.82.76-.72Zm7.14-5.49c-.53.4-2.25,2.14-.52,2.67-.61-1.38,1.63-.45.52-2.71Zm3.57-7c.52.32.12,1,.14,1.66.58.08,2.44.22,1.18-1.71-.16.23-.08.06-.23.68a.89.89,0,0,0-1-.72h-.06ZM7,62.08c.72-1.62,1.4-6.48-.37-8.27A14.56,14.56,0,0,1,7,62.08ZM21.84,21.85c-.48-.41-2.39,2.79-.86,2.07C20.74,23.43,23.25,22.59,21.84,21.85Zm4.8-2.22c-.12.69.4.24-.07,1.66.27.09,1.95,0,1.45-1.64.17,0,.46-.23-.19-.87-.1.37,0,.75-.18,1.11C26.83,18.7,27.86,20.94,26.64,19.63ZM4.93,18.51c.56-1.12.8-.09,2.09-2.09.19-.19.18-.73-.49-.15-.18.3-2.14.46-2,1.72C5.07,17.53,5.48,16.74,4.93,18.51Zm22.69,6.86c1.59,2.68,1.28,2.84,1.69,2.09-2-1.7-1.32.25-.41.75C29.07,27,28.48,26.6,27.62,25.37ZM38.91,24c-.61,0,0-1.67-.84-1.69-.46.19-.92.1-.53-1,.63-.34-.51-2.18-.65.73-.27.66,2.23.3.87,1.19C38,23.27,37.86,23.71,38.91,24Zm-5.5-3.23c.13.33.47,1.25,1-.3,0-.19,1.43-.4.69-1.31-.51-.16-1.2.6-1.69,1.59ZM23,19.68c-.77.18-.1,2.78,1.45,1.44-.07-.21-.71-.09-.4-.91.15-.33.45-.88-.48.09-.05-.2,0-1-.45,0Zm4.27,2.45C26.21,22,28.54,24.93,29.2,24,29.23,23.26,28.46,23,27.27,22.13Zm8.63,8.2c-.78-.74,1.86-3,.26-3.4C35.74,27.82,34.89,28.54,35.9,30.33ZM29.06,14.5c.56-1-2.19,1.33-1.39,2.31C27.93,16,29.78,16.12,29.06,14.5ZM41.71,54.61c-.36,1.15-.1,3.56-.17,6A13.08,13.08,0,0,0,41.71,54.61ZM8.41,59.23c.93-1.15.24-3.17-.22-5.12C8.19,55.25,8.28,57.1,8.41,59.23ZM19.53,30.86c-1-.15.46-2.41-.74-1.82-.87.73.84,1.63-.06,2.23C18.45,31.69,19.09,33,19.53,30.86Zm13.07-.28c-.09.62-1.53,2.46-.79,2.89C32.28,32.9,33.29,32.17,32.6,30.58Zm1.16,3.78c-.25.73,1.17.53,1.33,1-.16.2-.29.94.58.92C35,35,37.22,34.57,34,34.65,34.06,34.62,35.19,32,33.76,34.36ZM24.12,30c.25-1.21-2.46.68-1.37,1.79C23,31.12,23.34,31.3,24.12,30Zm13.4,18.74c.59.4,1.13,2.55,1.72,3.14-.27-.73.28-1.72.5-.22.68-.86-.41-.84-1.27-2,0-.32.12-1.27-.95-.93Zm-18.91-23c-.32-.57,2.44-1.62.65-2.06-.19.14-1.76,1.19-.65,2Zm2.19,1c-.8-.21,1.71-2-.18-2-.24.06-1.3,1.35.18,1.93Zm6.63,5.65c-.12,1,2,2.7.57-.54.12,0-1.1-1.7-.57.47Zm7.31-2.81c-.16.2-2,2-.09,2.63-1-.71,1-1.3.09-2.7Zm2.91,22.13c.2-.1,1-2.54-1-2.74-.37.27,0,.63.66,1.44.17.08.38.15.34,1.23ZM14.27,31.08c.44,0-.09-1.08,1.12-1.26.09.13-.12-1.32-.69-.44C13.47,29.78,13.52,29.27,14.27,31.08ZM21.37,35c-.7-.58,1.23-1.62.39-2.32C21.37,33,19.62,34.64,21.37,35ZM26.08,6.24c-.14,1.82,2.39-1.77.58-1.24C26.44,5.19,26.24,5.34,26.08,6.24Zm-5.71,25c-.19-.57,0-.85,0,0,.51-1.49.73-1.82,0-.85C21.05,31.27,22.41,29.58,20.37,31.24Zm15,2.36c-.36-.71.64-1.58.31-2.75-.29.6-1.74,1.64-.29,2.75ZM18.86,28.21c.34-.58,1.19-3.63-.63-.68C18.3,27.54,18.09,28.25,18.86,28.21Zm5.41,4.72c-.08.8-2.54,1.31-1.23,2.52C23.22,34.57,24,34.78,24.27,32.93Zm.06-3.66c-.52,0,2.06,3.47,1.45,1ZM11.63,48.91c-.41-.85-2,.52-.79,1.47C11.4,50.06,11.06,50,11.63,48.91ZM38.4,31.67c-1.48-.94,1.26-.77-.06-2.46C38.79,29.5,36.15,31.65,38.4,31.67Zm-19.79-9c.13.81,2.39-1,1.21-1.28-.18.49-.82.1-1.21,1.32Zm-1.83,28.4c-.1.09,1.71-3.65.44-2.42.19,1.09-2,1-1.08,2.45C15.79,50.2,17,49.52,16.78,51.07Zm-.07-38c.26.61-1.55.82-.84,1.43.31-.31.39,1.72,1,.91A10.8,10.8,0,0,1,16.71,13.07ZM28.57,31.74c.61-.34-.07-1.32-1.06-2.56C26.78,30.15,28.29,30.41,28.57,31.74Zm8.47-.8c-.26-.65,1.12-2,.24-2.51A2,2,0,0,0,37,30.94ZM8,63c.26,0,1.16-2.63,1.09-3.16C7.73,59.59,8.78,61.16,8,63ZM22.52,6c.15-.93-2-1.29-.39.83C22.49,6.6,22.29,6.85,22.52,6ZM9.15,58.53c.36-.6.89-1.61-.25-2.36A4.53,4.53,0,0,0,9.15,58.53Zm11.6-25c-.6-1,1.16-1.13.85-2.45-.39.11-1.94,1.31-.85,2.48Zm3.89-.3c-.51.78,1.77,2.52.77,1.2.43-.17.42-.76-.77-1.17ZM6.57,54.9v5.68C6.93,60.31,6.93,55.79,6.57,54.9Zm7.2-25.8c1.09.29,1-2.18-.06-1.71C15.25,29.11,11.82,28.38,13.77,29.1ZM8.84,50.05c-.87,1.54,2.21-.34,1.09-1.69C9.63,48.4,9.93,50,8.84,50.05Zm22.71-27c0-.74-2.36-1.52-.78.25.36.32.13.3.78-.22ZM15.48,50.29c.15-.53,1.36-.38,1.2-2C16.41,49.35,14.93,48.37,15.48,50.29Zm15.07-26.8c-.43-.67-1.29-1.89-.95.64C30.18,24.13,29.9,24.31,30.55,23.49ZM8.67,28.3c-.23.28.68,1.4.6,2.25C10,30.22,10.15,29.75,8.67,28.3Zm21.67-2.12c.88-.1,0-2.89-.69-1.1C29.73,25.31,30.38,25.3,30.34,26.18Zm2,24c-.12,0-.05-.28-.51,0,.07-.84-1.55-2.81-.28.39.45.93,0,.36.8-.42ZM30.5,28c.63,0,.74-2-.74-1.33C29.55,27.22,30.62,27.1,30.5,28ZM14.36,33.78c.55.13,1.72-1.66.26-1.61C14.68,32.49,14.26,33.29,14.36,33.78Zm21.54-.4c.27,1.12.62.52,1.15-1.57C36.79,32.34,36.59,31.93,35.9,33.38ZM15.86,61c.32.41,1.93.78.79,2.18C17.93,63.54,17.9,61.29,15.86,61Zm2.23-39.17c.8-.3.89-2.59-.25-.86-.1.22-.18.41.25.89Zm13,3.28c1,.62,1.26-2.18-.16-1-.21.22.69.49.07,1ZM30.48,30c.87-.37-.94-2.94-.87-1.08A2.62,2.62,0,0,1,30.48,30Zm7.69,31.1c.17.09-.88,2.16.11,2C38.29,62.69,39.33,62,38.17,61.1ZM21.08,63.55c-.21-.68-3.09,1.07-.9,1.07C20,64.18,20,64,21.08,63.55ZM31.31,27.61c.67.14.57,2.15.88,1.91C32.13,29.62,33,27.28,31.31,27.61Zm-14.38-10c.08-.21-.29-2.51-1-1.33a2,2,0,0,0,1,1.35Zm.54,34.92c.16.13.75-.76.77-1.29-.24-.24-2.07,1-.77,1.31Zm5-3.23a34.07,34.07,0,0,0-.26-4.4,9.07,9.07,0,0,0,.24,4.42Zm-6.4,3.18c1.06-.06.9-2.4-.4-.29-.08.19,0,.21.38.31Zm3.74,11c.19-.23-2.25-.23-1.27,1,.76.14-.19-.38,1.25-1ZM27,33.73c-.11-1-1.57-.37-.6.71.23-.16.43,0,.58-.68ZM23.2,13.07c-.62.28-1.49-2-1.78-.62C21.66,12.78,21.87,13.1,23.2,13.07ZM16.91,28.65c-.21-.51-.11-.75,0,0C17.63,28.34,18.08,25.7,16.91,28.65ZM33.3,24.94c0,.11,1.46-1.64.27-1.45C33.68,23.74,32.74,23.75,33.3,24.94ZM25.68,12.31c.35.86,1.86-.63.8-1.23C26.06,11.34,26.86,12,25.68,12.31ZM17,29.88c-.2,1.19,1.72-.87.65-1A1.58,1.58,0,0,0,17,29.88ZM41.37,15.25h0C41.68,15.93,43.55,14.24,41.37,15.25ZM32.21,26.31c-.17.47-.38.55,0,0C32.4,25.61,30.14,25.59,32.21,26.31Zm1.32,5.42c-.23.3-1.36,1.81,0,2.18C32.91,33.12,33.58,33.31,33.53,31.73ZM18.31,31c-.19.49-.31.7,0,0C18.3,29.76,16.5,32.06,18.31,31Zm-1.14-6.8c-.3-.34-.16-.56,0,0,.76-.2,1.28-2.2,0,0ZM15.12,10.51c-.83.18-1.25.08,0,0,0-.14,0,0-.26-.25C15,10.36,12.9,9.24,15.12,10.51Zm5.24,56.23c-.39,0-.48-.37,0,0C21.39,66.76,19.63,64.61,20.36,66.74ZM12.08,34.55h0C12.12,32.24,10.49,36.33,12.08,34.55ZM22,51.24c-.76-1.31.06-.91.5-.32C23.05,49.38,20.18,49.85,22,51.24Zm6.4,15.11c.27-.63-1.44-.95-.63.38.48.17.08,0,.67-.38Zm4.5-14.72c.74,0,1,.28,0,0a3.89,3.89,0,0,1,.76,1C34,52.81,34.47,52.91,32.9,51.63ZM30,31.05c.52,1.41.83-1.4-.56-.26C29.47,30.91,29.56,31,30,31.05ZM9.93,51.65c1.42.48,0-2.61-.13-.55C9.77,50.52,10.7,50.68,9.93,51.65ZM29.46,65.84h0C29.27,66.68,31,67.25,29.46,65.84Zm-7.79,0c-.82-.27-.45,1.94.38.41.07-.25.05-.06-.38-.37Zm5.12,0c-1-.19.27,1.79.53.47-.05-.17,0-.38-.53-.44ZM17,26.52c.34.06,1.06-2.1.1-1.31C17,25.49,16.91,25.35,17,26.52Zm1.33,37.06c-.15-.47-2.4.62-.5.92.24-.32-.53-.45.51-.92Zm7.38,2.29c-1.24-.12.65,1.86.48.09a3.55,3.55,0,0,0-.47-.09Zm3.74-32.31c.22.16,1.27-1.24.06-1.63-.39.55.34.23-.05,1.63ZM18.21,52.37c.21-.73.48-1,0,0C18.68,52.76,20.16,50.82,18.21,52.37ZM28.9,65.74c-.55-.15-.19,1.75.5.76C29.28,66.4,29.53,65.85,28.9,65.74Zm6-13c.35.09.41-1.29-.75-1,.22.2.05.66.75,1ZM13.48,52.6c.31-.09.27-.3.82-1.12C14.12,51.27,12.62,52,13.48,52.6Zm5.64,14.06c.63.13.24-1.43-.52-.77C18.69,66.29,18.46,66.33,19.12,66.66ZM24.06,35.2c-.48.76.68,1.65.52-.23C24.52,35,24.31,34.69,24.06,35.2Zm-4.68-1.26c-.55,0,.57-1.29.09-1.65C19.16,32.62,18.19,33.54,19.38,33.94Zm9.87,17.61c.7,0,.92.3,0,0C29.22,51.66,31.06,53.86,29.25,51.55Zm-.71-29.22c.08.32,1.73-.61.2-1C28.58,21.48,28.74,21.52,28.54,22.33Zm2.61,43.48c-.74,0,.09,2,.51.24C31.63,66,31.68,65.86,31.15,65.81ZM8.78,19.49a2.24,2.24,0,0,0-2.14,1.22C7.2,20.57,7.39,20.08,8.78,19.49Zm4.51,32.13c-.26-.54-1.85.69-.84,1C12.86,52.55,12.37,52.16,13.29,51.62Zm2.38,0c-1,.86-1.27.86-.64.85.43-.81-.09-1.36-.63,0,.88-.47.6-.11,1.27-.9Zm19.49.22c.08.29.81,1.51,1.15.9-.25-.1,0-.8-1.15-1Zm-3.4-.25c-.28,0,1.14,1.86,1.05.66-.31-.32-.19-.67-1.05-.71Zm-3.57,0c.85.37.53.25,0,0,.24.3.32.15.54.83.12.22,1.27.51-.54-.93Zm.89,12.34c.67-.06.9.2,0,0,0,.17.78,1.73,0-.1Zm-6.85,2.4c-.28.9,1.79.24.39-.35-.36-.09,0-.11-.39.25Zm-.54-2.55c-.5-.4-2.18,1.16-.4.92-.23-.7-.22-.7.4-1Zm10.24.15c.08.54,1.33,1.41.89.14-.3-.24-.22-.36-.89-.24Zm-15.75.43c-.61.13-.74-.06,0,0-.09-.67-.37-1.89,0-.1Zm10.91-.49c.43-.14.61,0,0,0,0,.48,1.84,1.53,0-.1ZM9.71,58.66c-.21-.19-1.6.51-.82,1C9.36,59.62,9.2,59.19,9.71,58.66ZM33,26.58c-.17,0,.63-1.6-.16-1.44A1.08,1.08,0,0,0,33,26.58Zm3.2,25.35c0-.33.92,1.92,1.15.54C37.22,52.21,37.12,52,36.2,51.93ZM23.36,64.07c.59.05.88.1,0,0C23,64.52,24.88,65.24,23.36,64.07Zm7.1-12.48c.17-.13.74,1.66,1.18.72C31.29,51.94,31.51,51.67,30.46,51.59ZM18.3,32.71c-.09-.9-1.27.27-.31,1A7.21,7.21,0,0,1,18.3,32.71ZM18,66.64c.69.34,0-1.69-.5-.6C17.55,66.41,17.39,66.36,18,66.64Zm14.12-.28c-.16.8,1.6,0,.11-.61-.13.08-.23,0-.16.61ZM23.25,64c-.31-.38-1.67.43-.22.77C23.24,64.7,23.06,64.76,23.25,64Zm8.4-18.7c.15.46-.55.53.64,2.28a7.78,7.78,0,0,0-.64-2.26Zm-14.92-34c-.07-.64-.76-1.28-1.24-1.11.34.45,0,.55,1.24,1.12ZM17,66.63c-.59,0-.69-.34,0,0C17.28,66.3,16.14,65,17,66.63Zm9.45-1.91c.71.36,1-1.22-.26-.83a1.46,1.46,0,0,1,.29.83Zm-11-33.24c.22,0-.72-1.64-.58-.6.13.18.29,1.63.65.6Zm7.92,34.85c-.43,1,1.88-.42.1-.42,0,0,0,.09,0,.42Zm-9.87-3c-.23-.36-1.92.66-.38.79.27-.28-.52-.38.45-.76Zm11.48,3c.19-.7-1.35-.5-.43.36.24,0,.45.09.5-.37Zm-4.46-15c-.36-.59-1.9,1.64-.54.68.12-.18,0-.24.61-.71ZM12,51.58h0C11.86,51.13,10.52,53.07,12,51.58ZM30.36,64.69c.54.35,1.25-.87-.29-.88C30.32,64.09,30.44,64,30.36,64.69Zm-8-.84c-.14-.44-1.69.85-.11.74C22.21,64.23,22.16,64.5,22.36,63.85ZM9,52c.37.25.72-1.66.09-.86C9.31,51.39,8.12,51.58,9,52Zm7.85-19.86c.19.09.31-1.07-.55-.86,0,.18-.17.46.53.86Zm7.84,32.2c-.18.57,1.53.39.46-.27-.15.06-.36-.07-.48.27Zm6.1-42.74c.05-.34-1-2-.47.08C30.31,21.71,30.53,22,30.79,21.6Zm0,12c-.28-.1-.31-.29,0,0,.51-.23.21-2,0,0ZM16.27,47.14l.48-2.33A2.52,2.52,0,0,0,16.27,47.14ZM28.38,64.77c.76.19.73-1-.3-1C28.34,64.17,28.28,63.85,28.38,64.77Zm3.3-33.32c-.08-.33-1.11-1.41-.45.35C31.36,31.94,31.46,32.09,31.68,31.45ZM16.18,23.8c0-.28.05-.41,0,0C16.18,25.13,17.42,22.87,16.18,23.8ZM14.52,63.36c-.19,0-.21-.25-.9.33-.08.46-.12.15.69.45C14.29,64,13.79,63.72,14.52,63.36ZM24.2,65c-.21.51-.55.51,0,0C24.13,64.76,22.17,65.41,24.2,65ZM9.63,52.73c.27,0,1.14-1.71-.23-.5C9.45,52.28,9.13,52.49,9.63,52.73Zm5.59,12.93c-.35,0,.1,1.58.51.73C15.61,66.31,15.83,66.05,15.22,65.66Zm5.22-13.59c-.19.51,1.3-.41.67-.82C20.94,51.32,20.77,51.41,20.44,52.07Zm-9.3-.39c-.1.51-.17.75,0,0C10.76,51.36,9.91,53,11.14,51.68ZM31,29c.34-.15-.09,1.35.68,1.08A.88.88,0,0,0,31.06,29ZM25.18,65c-.06.15-.86-.39-1,.5C24.32,65.4,25,65.78,25.18,65ZM17.1,63.5c0-.35-1.66.6-.19.86C16.81,64.12,16.6,63.91,17.1,63.5Zm17.33,2.6c-.11,0-.08-.32-.63-.18C33.75,66.29,33.62,67.28,34.43,66.1ZM32.77,49.81c-.08.1,0,0,0,.33.12-.11-.05,1.84.56.65C33.25,50.49,33.43,50.71,32.77,49.81ZM16,30.23c0,.2.66-1.42-.2-.89A1.25,1.25,0,0,0,16,30.23Zm-2.88,4.43c.38-.49.45-.79,0,0,.47.34,1.31-.66,0,0ZM25.64,64.73c.16-.34.07-.52,0,0C26.57,65.13,26.24,63.36,25.64,64.73ZM15.35,63.37c-.32-.06,0,0-.82.43,0,.39-.06.07.66.42C15.2,64.07,14.75,63.77,15.35,63.37Zm23-10.62c.34-.19-1.26-1.18-.64-.46C37.9,52.21,37.88,53.46,38.35,52.75Zm-3.59,11.6c.3-.12-1-1-.47-.08C34.38,64.42,34.58,65.09,34.76,64.35ZM17.39,22c-.15.34-.26.5,0,0C17.3,21.24,16.34,22.08,17.39,22ZM16.2,27.1c.25.18.45-1.53-.14-1A2.27,2.27,0,0,0,16.2,27.1ZM31.13,63.76c.2-.07.05,1.45.76.79A1,1,0,0,0,31.13,63.76Zm4.11,0c-.44-.21,0,1.42.38.48C35.53,64,35.67,64,35.24,63.76Zm-1.79.94c.34.21.68-1.12-.48-.9C33.35,64,33.63,64.25,33.45,64.7ZM14.36,66.64c-.08,0,.42-1.26-.4-.81C14,66,13.82,66.17,14.36,66.64ZM33,34.37c.43.24.32.48,0,0C32.53,34.29,32.92,35.56,33,34.37ZM27.06,32c.13,0-.67-1-.62-.3C26.51,31.65,26.66,32.71,27.06,32Zm-1,33c-.08.14-.7-.4-.89.48C25.82,65.56,26,65.49,26.06,65Zm-3.73.45c.63.21.86-1.1-.23-.18C22.05,65.35,22.11,65.41,22.33,65.45Zm9.74-31.74c-.23.17,1.19.92.41-.17C32.45,33.48,32.26,33.34,32.07,33.71ZM16.39,28c0-.55-.93-.6-.35.17C16.07,28.13,16.26,28.45,16.39,28Zm5.26,37c-.76-.12-.52,1.06.31.08A1.57,1.57,0,0,0,21.65,65ZM35,66.58c.26.19,1.08-.6.41-.91A2.35,2.35,0,0,1,35,66.58Zm7.22-8.34c0-.11.67-.44,0-1.23ZM37.4,63.15c-.13-.4.71-1,0-1.13-.13.33-.25.1,0,1.13Zm-4.09-9.81c-.12.33-.28.34,0,0s-1.13-.45,0,0ZM6,58.72s.88-.47,0-1.2A2,2,0,0,1,6,58.72ZM17.2,33.25c.25-.49-.95-.5,0,.48C17.28,33.66,17.33,33.64,17.2,33.25ZM12.91,65.77c.31.06.27.27,0,0C12.44,65.58,13.07,67.27,12.91,65.77ZM20.56,65c-.76-.1-.3,1,.38.06C20.86,65.09,20.88,65,20.56,65Zm-9.9-1.09h0c.13-.41-.54-1.25,0,0ZM31.5,48.17a.94.94,0,0,0,1-.37.75.75,0,0,0-1,.36ZM9.86,63.23c0-.23-1.46.25,0,.61C9.72,63.66,9.33,63.61,9.86,63.23Zm2.5.17c-.65.42-.83.08-.24.4,0-.58.24-.4-.59-.32C12.05,63.62,11.84,63.6,12.36,63.4Zm14.16,1.65c-.6-.18-.28.9.37.18C26.88,65.13,26.85,65.1,26.52,65.05ZM39.45,52.33c.11.07-.11.36.32.73C40,52.78,40.18,52.76,39.45,52.33Zm-12,12.74h0c-1.06,0,.71.93,0,0Zm-21-46.63A6,6,0,0,0,7.23,18c-.17-.25,0-.18-.84.26a.16.16,0,0,0,.07.18ZM28.39,65.09h0C27.26,65.05,29.09,66,28.39,65.09ZM25.86,35.72c.08-.28.09-.42,0,0C26.05,36.13,26.63,34.39,25.86,35.72Zm2.45,16.51h0C28.86,51.84,26.1,51.07,28.31,52.23ZM36,64.53c.15-.06.22-.34-.16-.83C35.77,64,35.8,63.75,36,64.53ZM9,52.11c-.3-.13-.8.72-.08.65A.62.62,0,0,1,9,52.11Zm23.3-3.85c.23.07-.17,1.21.3,1.15C32.67,49.2,32.71,49,32.3,48.26ZM25,36.58c.11-.36.17-.54,0,0C25,36.81,25.88,35.85,25,36.58ZM36.69,64.4c.21-.08.45-.17,0-.68C36.44,63.79,36.44,63.73,36.69,64.4Zm-25.26-1c-.26.23-.11.45,0,0-.07-.33-1.1.32,0,0ZM16,25.2c.14-.3.23-.45,0,0C16,25.62,16.8,25.11,16,25.2ZM38.72,52.25c-.12.22,0,0,.23.61C39.23,53,39.5,52.85,38.72,52.25ZM15.21,27.72c.08-.4-.92-.08-.13.39C15.12,28,15.21,28.08,15.21,27.72ZM32.57,51c.1-.14-.62-1.43-.22,0C32.34,51,32.46,51.29,32.57,51Zm6,.62c0-.21.47-.58-.76-1.26.11.5.74,0,.8,1.26Zm-33.24-33c.1,0,.23,0,.45-.8-.32.18-.28,0-.41.84ZM37.73,64c-.19-.39-.38-.5-.66-.42C37.21,63.53,37.1,64.37,37.73,64ZM7,17.45c-.14-.06-.49-.15-.83.58C6.43,18,6.35,17.91,7,17.45Zm9.16,31.14a1.15,1.15,0,0,0,0-.89.58.58,0,0,0-.12.8l.09.09ZM29.27,33.41c-.1.25-.23.21,0,0C29.22,33.15,28.56,32.72,29.27,33.41ZM19.72,65c.22.06.23.11,0,0C19.28,64.93,19.33,65.93,19.72,65ZM30.47,48.46c-.11,0-.1-.56-.57-.57C29.9,48.09,29.89,48.29,30.47,48.46ZM18.58,65.39c.09-.08.22.21.62-.23C19,64.88,19.16,65,18.58,65.39ZM6.05,13.86a2.29,2.29,0,0,0,.62.17C6.83,13.79,6.87,13.64,6.05,13.86ZM18.19,65c-.4-.09-.48.92.23.1ZM41.61,18.81c.33,0-.77-.84-.62-.48A2.4,2.4,0,0,1,41.61,18.81ZM29.91,65.07c.26,0,.25.18,0,0S29.63,65.78,29.91,65.07ZM17,65.34c.2.1,0,0,.59-.11C17.53,64.92,17.64,65,17,65.34Zm15-16h0c.52-.12-.38-1.59,0,0ZM30.68,65.08c.22,0,.22.14,0,0C30.24,64.94,30.37,65.83,30.68,65.08Zm-1.51,0c-.07.08-.42.07-.07.38C29.14,65.53,29.8,65.16,29.17,65.08ZM8,18.51c0-.28-1-.64-.21.13C7.85,18.64,7.93,18.75,8,18.51Zm8.25,46.88c.09-.08.2.16.61-.2-.17-.27,0-.19-.62.2ZM27.88,34.9c-.1.12-.18.14,0,0S27,34.35,27.88,34.9Zm9.83,28.62.27.35C38.22,64,38.51,63.87,37.71,63.52Zm.63-.24s.1.8.45.46C38.73,63.62,38.82,63.46,38.34,63.28Zm-4-27.48c-.08.28-.23.27,0,0s-.74-.09,0,0Zm-3,29.28c0,.06-.48,0-.09.35C31.25,65.49,31.92,65.26,31.3,65.08ZM27.74,34c-.37-.09-.42-.27,0,0C27.75,34.06,27.51,33.09,27.74,34ZM38.22,51.72c.23-.22.27-.64,0-.78A1.16,1.16,0,0,0,38.22,51.72ZM16.06,65.09c-.46-.06-.54,0-.57.25C15.82,65.43,16,65.35,16.06,65.09ZM7.27,18.91c.07-.16.19-.12-.19-.4C7,18.63,6.67,18.73,7.27,18.91ZM32.16,65.42c-.22,0-.29-.07,0,0C32.64,65.31,31.7,64.8,32.16,65.42ZM19.84,50.26c-.05.19,0,0,0,.54C20.13,50.84,20.09,50.93,19.84,50.26ZM14.76,65.31c.33.08.52,0,.51-.23C14.81,65,14.79,65.08,14.76,65.31ZM39.48,51.75c.13-.06.11-.11,0-.66C39.33,51.05,39.27,51,39.48,51.75ZM33.39,61.82c.08.23,0,.34,0,0C33.14,61.84,33.14,63,33.39,61.82ZM8.72,51.27c-.09-.11.29-.21-.05-.6C8.49,50.84,8.5,50.7,8.72,51.27ZM32.81,65.1c-.09.09-.08,0-.26.13S33.39,65.52,32.81,65.1ZM16.47,50.82c.09-.09,0,0,.17-.46C16.45,50.29,16.36,50.21,16.47,50.82Zm12.67,0c-.08-.1.17-.19-.12-.55-.17.13-.15,0,.12.5ZM14,65.31c.34,0,.43,0,.47-.21C14.2,65,14.08,65.06,14,65.31Zm4.12-14.82-.21-.22c0,.08-.25.11,0,.46ZM33.47,65.15c-.07-.05,0,0-.2.08C33.36,65.46,34,65.24,33.47,65.15Zm-20.19,0c-.28-.09-.43,0-.48.16a.4.4,0,0,0,.48-.19Zm.13.16c.3.07.46,0,.45-.2-.34-.11-.38,0-.45.17Zm8.73-14.72c-.14.14-.19.14,0,0,0-.16-.6-.4,0,0Zm14.16.91h0c0,.09.57.34,0,0ZM34.38,65.35h0C34.67,65.35,33.85,65,34.38,65.35Zm1-.17s-.05-.06-.21.07c.08,0,0,.17.41,0-.08,0,0-.09-.23-.07ZM5.7,58.36a.41.41,0,0,0,0-.49A.38.38,0,0,0,5.7,58.36Zm28.89,6.81c0,.08-.08.18.37.15C34.87,65.19,35,65.14,34.59,65.17ZM24.75,20.52l-.16-.18c0,.07-.22.07,0,.36ZM12.64,65.13c-.29,0-.34,0-.39.14C12.51,65.32,12.59,65.3,12.64,65.13ZM27.35,50.82a.55.55,0,0,0-.08-.59A1.09,1.09,0,0,0,27.35,50.82Zm3.59-.32c-.13,0-.12,0-.11.28C31,50.74,30.94,50.81,30.94,50.5Zm4.78,14.71h0C35.63,65.31,36.16,65.39,35.72,65.21Zm-23.64-.07c-.13,0-.25,0-.28.13S12,65.31,12.08,65.14Zm19.66-8.65H32C32,56.35,32,56.35,31.74,56.49Z"/><path d="M20.22,9.82c.41-.47,2.5-1.82,2.65.1C22.06,9.05,21.89,9.57,20.22,9.82Z"/><path d="M28.57,9.81c-.66-.54-1.73,0-2.34.08C26.6,9.52,27.3,8.14,28.57,9.81Z"/><path d="M11.5,56.93c0-.14-.33-.25.37-1C11.88,56.19,12.05,56.19,11.5,56.93Z"/><path d="M12.05,56.63c-.1,0,.15.72-.3.74C11.68,57.2,11.64,57,12.05,56.63Z"/><path d="M12.3,57c-.09,0,.27.86-.16.87C12.09,57.71,12.05,57.56,12.3,57Z"/><path d="M11.69,55.47c.14.41-.25.53-.38.81C11.17,55.87,11.46,55.7,11.69,55.47Z"/><path d="M10.87,55.25c-.25-.09-.22-.37.1-.82C11,54.58,11.11,54.55,10.87,55.25Z"/><path d="M11.41,55c.07,0-.38,1.16-.36.32C11.16,55.24,11,55.22,11.41,55Z"/><path d="M10.84,54c-.32,0-.38.12,0,0C10.76,53.91,10.45,54.91,10.84,54Z"/><path d="M10.3,53.69l-.06.51C10.19,54.2,9.94,53.78,10.3,53.69Z"/><path d="M12.71,57.54c0-.1.47.26.19.3C12.9,57.77,12.71,57.81,12.71,57.54Z"/><path d="M10.05,53.47,9.92,54C9.89,53.78,9.7,53.75,10.05,53.47Z"/><path d="M32.9,55.48c-.23,0-.27-.14-.17-.38l-.35.19c.2-.17-.15-.77,1.22-.8-.57.47.6.88-.7,1.07C33.22,55.54,33.15,54.83,32.9,55.48Z"/><path d="M35,56.81c.15-.15.19-.22,0,0C34.91,56.81,34.91,56.3,35,56.81Z"/><path d="M24.61,52.13c7.34.33,7,10.81-.08,11C17.51,62.91,17.43,52.41,24.61,52.13Zm4.74,7.47-2.49-1-1.25-.48c.16.45,0,0,1,.91C27.52,59.43,28.62,61.52,29.35,59.6Zm-7.76,2.21c.37,0,.25-.24,1,.57A35.69,35.69,0,0,0,24,58.6Zm2-3.64L19.9,59.75c.34.19.33-.08.59,1a35,35,0,0,0,3.12-2.58Zm-2.17,3.52,2.41-3.21-.07-.07c-.34.78-4.1,1.91-2.32,3.28Zm3.67-5.06c.63-.42,1.28-1.7,2.48-3.18-.32,0-.28.22-1-.58Zm-4.69-2c0,.41.24.24-.56,1A26,26,0,0,0,23.66,57a40,40,0,0,1-3.24-2.4Zm2.23-1.74,1.6,3.71c.15-.75-.3-2.11-.49-4-.21.23,0,.3-1.09.26Zm1.2,4c-.63-.77-1.29-1.52-2.51-3.19-.1.41.18.3-.81.86a27.88,27.88,0,0,0,3.34,2.25Zm-2.37-3.28L24,56.7l.09-.05L22.5,52.94c-.19.33.05.33-1,.59Zm3.87,4.94c1,.48,1.8,4.18,3.3,2.35a26.74,26.74,0,0,0-3.28-2.43Zm-1.46,4.27c.06-.53.11-1,.32-2.67l.16-1.33c-.37.29,0,0-.59,1.22-.18,1-1.76,2.28.13,2.7Zm-.41-5.13-4-.49c-.15,1.63,1.75.88,4,.41Zm5.22-3.1L25.54,57c.76,0,2-.83,3.75-1.51-.29-.13-.29.07-.59-1Zm-2.17,7.9a25.81,25.81,0,0,0-1.69-3.66c.15,1,.34,2,.55,4,.37-.36,0-.41,1.16-.42Zm-1.39-3.78,1.56,3.72c.23-.36-.09-.28,1-.6a32.72,32.72,0,0,0-2.54-3.2ZM24,52.54l.59,4c.34-.69.26-2.12.56-4C24.79,52.75,25,52.76,24,52.54ZM29.7,57l-4,.6c.69.34,2.11.25,4,.55C29.49,57.87,29.47,58,29.7,57Zm-4.29-.11,3.16-2.49c-.33-.07-.31.13-.82-.82a37.57,37.57,0,0,0-2.34,3.28Zm-.18,5.89-.57-4c-.34.69-.27,2.11-.59,4,.34-.2.1-.36,1.16,0Zm4.15-7.09-3.71,1.62c.76.14,2.11-.3,4-.5-.25-.24-.34-.08-.29-1.15Zm.32,2.65-4-.45c.57.5,2,.79,3.73,1.57-.18-.34-.18-.61.27-1.15Zm-4.41-5.8a27,27,0,0,0-.29,4c.35-.93.66-1.88,1.5-3.76-.39.1-.3.36-1.21-.29Zm-5.45,7.07L23.54,58c-.75-.15-2.11.29-4,.47.29.29.28,0,.3,1.11ZM19.53,57a21.47,21.47,0,0,1,2.4.26l1.41.19c.16-.26.18-.07-1.06-.61C21.28,56.62,19.77,55.06,19.53,57Zm5.9.67c0-1.53-3.05-.33-.84.82.26-.06.51-.09.84-.84Z"/><path d="M14.17,56.22h0C14.21,56.12,14.89,56.41,14.17,56.22Z"/><path d="M14.6,56.41h0C14.5,56.36,14.8,55.93,14.6,56.41Z"/><path d="M15.76,55.52h0C15.79,55.42,16.49,55.71,15.76,55.52Z"/><path d="M15.26,54.77h0C15.15,54.7,15.49,54.27,15.26,54.77Z"/><path d="M16.32,54.56h0C16.35,54.46,17,54.74,16.32,54.56Z"/><path d="M15.57,55.53h0C15.68,55.6,15.34,56,15.57,55.53Z"/><path d="M14.07,55.73h0C14,55.65,14.3,55.23,14.07,55.73Z"/><path d="M13.49,55.75c.21,0,.29-.06,0,0C13.37,55.63,13.69,55.28,13.49,55.75Z"/><path d="M16,54c.11-.09.12-.15,0,0S15.7,53.56,16,54Z"/><path d="M16.54,53.79c.14.09-.33.34-.29,0Z"/><path d="M16.68,54h0C16.57,53.92,16.91,53.5,16.68,54Z"/><path d="M16.08,56.41h0C16.08,56.59,15.56,56.15,16.08,56.41Z"/><path d="M13.91,56.23v.19C13.73,56.41,13.38,56.36,13.91,56.23Z"/><path d="M14.89,55.73h0C14.85,55.83,14.17,55.54,14.89,55.73Z"/><path d="M14.86,53.4h0C14.83,53.5,14.13,53.22,14.86,53.4Z"/><path d="M13.23,54.63h0C13.35,54.7,13,55.12,13.23,54.63Z"/><path d="M16.68,53.33h0C16.57,53.26,16.89,52.87,16.68,53.33Z"/><path d="M12.94,53.31h0C13,53.21,13.65,53.49,12.94,53.31Z"/><path d="M14.9,54.6h0C15,54.66,14.68,55.07,14.9,54.6Z"/><path d="M16.68,56.94h0C16.65,57,16,56.75,16.68,56.94Z"/><path d="M12.93,54h0C12.82,54,13.15,53.56,12.93,54Z"/><path d="M15.26,56.4h0C15.15,56.34,15.48,55.94,15.26,56.4Z"/><path d="M13.55,54h0C13.43,54,13.77,53.57,13.55,54Z"/><path d="M14.59,53.85h0C14.59,53.66,15.33,54,14.59,53.85Z"/><path d="M15.24,54h0C15.13,54,15.45,53.57,15.24,54Z"/><path d="M15.26,53.17h0C15.29,53.08,16,53.35,15.26,53.17Z"/><path d="M17.86,53.1h0C17.89,53,18.56,53.27,17.86,53.1Z"/><path d="M17.5,53.15h0C17.61,53.21,17.29,53.6,17.5,53.15Z"/><path d="M14.07,54h0C14,54,14.27,53.57,14.07,54Z"/><path d="M15.6,56.74h0C15.71,56.81,15.38,57.2,15.6,56.74Z"/><path d="M14.07,53.51h0C14,53.44,14.29,53,14.07,53.51Z"/><path d="M13.8,53.31h0C13.91,53.37,13.58,53.79,13.8,53.31Z"/><path d="M15.77,53.33h0C15.66,53.27,16,52.86,15.77,53.33Z"/><path d="M16.55,53.15h0C16.66,53.21,16.34,53.6,16.55,53.15Z"/><path d="M13.86,54.83h0C13.86,55,13.12,54.66,13.86,54.83Z"/><path d="M16.07,54.59h0C16.19,54.65,15.86,55.07,16.07,54.59Z"/><path d="M16.07,56.9h0C16,57,15.35,56.72,16.07,56.9Z"/><path d="M14.38,54.83h0C14.38,55,13.63,54.65,14.38,54.83Z"/><path d="M13.05,62.34v-.23C13.16,61.94,13.58,62.43,13.05,62.34Z"/><path d="M14.56,62.33v-.22C14.66,61.93,15.13,62.43,14.56,62.33Z"/><path d="M13.86,62.36h0C13.63,62.48,13.43,62,13.86,62.36Z"/><path d="M12.8,62.35h0C12.68,62.52,12.26,62,12.8,62.35Z"/><path d="M14.1,62.13h0C14.14,62,14.86,62.32,14.1,62.13Z"/><path d="M15.46,62.13h0C15.58,62.2,15.22,62.73,15.46,62.13Z"/><path d="M16.06,62.13h0C16.18,62.2,15.83,62.74,16.06,62.13Z"/><path d="M12,62.09h0C12,62,12.69,62.28,12,62.09Z"/><path d="M11.14,62.9h0C11.11,63,10.4,62.71,11.14,62.9Z"/><path d="M13.86,63h0C13.82,63.12,13.09,62.82,13.86,63Z"/><path d="M13.05,62.75h0C13.08,62.64,13.81,63,13.05,62.75Z"/><path d="M14.87,61.65h0C14.84,61.76,14.11,61.46,14.87,61.65Z"/><path d="M14.56,63h0C14.44,62.91,14.81,62.41,14.56,63Z"/><path d="M13.36,61.38h0C13.48,61.44,13.12,61.94,13.36,61.38Z"/><path d="M12.49,61.37h0C12.53,61.26,13.26,61.56,12.49,61.37Z"/><path d="M13.79,61.45h0C13.92,61.52,13.54,62,13.79,61.45Z"/><path d="M11.67,61.57h0C11.52,61.69,11,61.31,11.67,61.57Z"/><path d="M11.67,60.73V61C11.47,60.94,11.12,60.89,11.67,60.73Z"/><path d="M12.32,61.33h0C12.43,61.4,12.1,61.9,12.32,61.33Z"/><path d="M10.84,61.56h0C10.72,61.5,11.07,61,10.84,61.56Z"/><path d="M10.24,61.52h0C10.12,61.46,10.47,60.94,10.24,61.52Z"/><path d="M15.76,62.75h0C15.79,62.65,16.51,62.94,15.76,62.75Z"/><path d="M14.41,62.78h0C14.53,62.86,14.17,63.35,14.41,62.78Z"/><path d="M12.84,63h0C12.8,63.09,12.1,62.79,12.84,63Z"/><path d="M12.32,62.75h0C12.44,62.82,12.08,63.31,12.32,62.75Z"/><path d="M15.46,62.78h0C15.58,62.85,15.22,63.35,15.46,62.78Z"/><path d="M11.44,62.24h0C11.31,62.15,11.78,61.67,11.44,62.24Z"/><path d="M14,61.44h.31C14.3,61.69,14.29,61.81,14,61.44Z"/><path d="M11.82,63h0C11.79,63.09,11.08,62.8,11.82,63Z"/><path d="M11.15,62.2h0C11.11,62.31,10.39,62,11.15,62.2Z"/><path d="M12.24,60.72h0C12.37,60.79,12,61.32,12.24,60.72Z"/><path d="M29.22,63h0C29.33,63,29,63.44,29.22,63Z"/><path d="M29.48,62.46v-.18C29.57,62.14,30,62.55,29.48,62.46Z"/><path d="M31,61.6h0C31,61.7,30.3,61.44,31,61.6Z"/><path d="M30.72,62.89h0C30.75,62.79,31.44,63.08,30.72,62.89Z"/><path d="M31,60.74h0C31.13,60.8,30.79,61.22,31,60.74Z"/><path d="M29.85,62.9h0C30,63,29.63,63.38,29.85,62.9Z"/><path d="M30.09,63.09h0C30,63,30.32,62.61,30.09,63.09Z"/><path d="M30.42,61.41h0C30.53,61.47,30.2,61.88,30.42,61.41Z"/><path d="M31.54,61.61h0C31.54,61.81,30.81,61.45,31.54,61.61Z"/><path d="M32.2,60.74h0C32.31,60.81,32,61.23,32.2,60.74Z"/><path d="M31.16,62.37h0C31,62.31,31.38,61.89,31.16,62.37Z"/><path d="M31.44,59.29h0C31.47,59.19,32.16,59.47,31.44,59.29Z"/><path d="M31.64,60.11h0C31.76,60.16,31.44,60.57,31.64,60.11Z"/><path d="M30.94,62.18h0C31.05,62.25,30.72,62.66,30.94,62.18Z"/><path d="M31.61,60.74h0C31.73,60.8,31.39,61.22,31.61,60.74Z"/><path d="M30.11,62.28h0C30.11,62.08,30.85,62.44,30.11,62.28Z"/><path d="M26.29,17.75c0-.33.36-.12.55-1.38C26.86,16.66,27.39,17.32,26.29,17.75Z"/><path d="M22.56,16.74c0,.32,0,.2.34,1C22.47,17.45,22.5,17.73,22.56,16.74Z"/><path d="M37.25,56.89h0C37.19,57,36.52,56.67,37.25,56.89Z"/><path d="M35.08,54h0C35.14,53.83,35.81,54.18,35.08,54Z"/><path d="M35.92,55h0C35.81,55.14,35.22,54.77,35.92,55Z"/><path d="M35.56,54h.29C35.81,54.21,35.76,54.42,35.56,54Z"/><path d="M34.62,53.57h0C34.5,53.51,34.85,52.88,34.62,53.57Z"/><path d="M36.17,54.32h0C36.05,54.26,36.39,53.67,36.17,54.32Z"/><path d="M36.87,55.09h0C36.75,55,37.1,54.42,36.87,55.09Z"/><path d="M37.82,54.88h0C37.94,54.94,37.59,55.52,37.82,54.88Z"/><path d="M37.25,55.51h0C37.37,55.58,37,56.19,37.25,55.51Z"/><path d="M37.25,56.34h0C37.19,56.46,36.52,56.13,37.25,56.34Z"/><path d="M36.17,54.77h0C36.23,54.65,36.9,55,36.17,54.77Z"/><path d="M18.17,59.4h0C18.13,59.51,17.41,59.2,18.17,59.4Z"/><path d="M17.61,59.15h0C17.74,59.22,17.38,59.76,17.61,59.15Z"/><path d="M18,59.82h0C18.07,59.71,18.77,60,18,59.82Z"/><path d="M16.69,58.87h0C16.56,58.8,16.93,58.31,16.69,58.87Z"/><path d="M17.39,60h0C17.42,59.85,18.17,60.15,17.39,60Z"/><path d="M17.61,58.88h0C17.57,59,16.86,58.69,17.61,58.88Z"/><path d="M18.69,61.37h0C18.73,61.26,19.44,61.56,18.69,61.37Z"/><path d="M24.45,16c.1.52-.84.63-.67-.22.2.23.28.59.57-.08C24.36,15.73,24.44,15.67,24.45,16Z"/><path d="M30.31,53.43h0C30.18,53.37,30.54,52.74,30.31,53.43Z"/><path d="M31,55.47h0C30.89,55.41,31.24,54.79,31,55.47Z"/><path d="M30.86,54.09h0C30.74,54,31.09,53.41,30.86,54.09Z"/><path d="M31.16,53.15h0C31.28,53.21,30.93,53.84,31.16,53.15Z"/><path d="M31.22,54.71h0C31.16,54.83,30.5,54.49,31.22,54.71Z"/><path d="M35.55,61.05h0C35.61,60.92,36.29,61.28,35.55,61.05Z"/><path d="M35.7,61.73h0C35.82,61.79,35.47,62.37,35.7,61.73Z"/><path d="M35.63,62.59h0C35.59,62.7,34.9,62.41,35.63,62.59Z"/><path d="M25.14,57.64c-.24-.54-.53-.54,0,0-1.06-.3-1.07,0-.53-.54C25.18,57.61,24.66,58.8,25.14,57.64Z"/><path class="cls-2" d="M13.47,74.59a1.89,1.89,0,0,1-.55-1.27.34.34,0,0,1,0-.2A.25.25,0,0,1,13,73a.57.57,0,0,1,.38-.11H15v-.31H12.87a.61.61,0,0,0-.5.23.91.91,0,0,0-.17.57,1.93,1.93,0,0,0,.36,1.06c.12.18.21.3.26.36l.26.28.37.33h.32l.28-.26a.56.56,0,0,1-.2-.14Z"/><path class="cls-2" d="M21.15,71.33l-1.64-2h-.32l-.28.31,1.66,1.71H7v.33H8.92v1.38l-.06.12H8.79l-.19-.09L8.42,73l-.23-.44H7.87l-.34.22.14.25.14.25.23.37,1,1.42a1.07,1.07,0,0,0,.38.41h.32l.33-.28L9.88,75l-.38-.43-.22-.29-.47-.71h.35a.43.43,0,0,0,.43-.31h0l.12.14h1.13v2.08h.74v-3.8H15l.2.26a1,1,0,0,1,.2.56.66.66,0,0,1-.2.53l-.2.07-.17.05h-.45a1.42,1.42,0,0,0,.47,1.09,1.6,1.6,0,0,0,1,.39h.67a1.66,1.66,0,0,0,.31-.12v1h.74v-3.8h1.18v1.42h-.42a.16.16,0,0,0-.09.07v.1a.85.85,0,0,0,.21.37c.09.11.18.22.28.32l.12.12a.5.5,0,0,0,.2.08h.43l.06,0h0v-.65H20.7v2h.74v-3.8H24v2.08a.55.55,0,0,1-.17.2l-.22.15h-.33L23.07,74a.5.5,0,0,1-.17-.15.92.92,0,0,1-.2-.59.79.79,0,0,1,.18-.53.47.47,0,0,1,.35-.21H24l-.09-.42H23a1,1,0,0,0-.78.37,1.1,1.1,0,0,0-.3.79,1.12,1.12,0,0,0,.09.44,1.18,1.18,0,0,0,1.12.67h.56l.26-.09h0v1h.74v-3.8h.74v-.33ZM10.84,73.05H9.64V71.66h1.18Zm6.07.6-.18.25-.1.1a.45.45,0,0,1-.14.1l-.21.12a.67.67,0,0,1-.24.07,1,1,0,0,1-.72-.57h0v-.21l.28-.07.2-.08a.9.9,0,0,0,.46-.81V72.3L16,71.94l-.06-.12-.1-.16h1.09Zm3.79-.57H19.56V71.66H20.7Z"/><path class="cls-2" d="M40.35,71.33l-1.64-2h-.32l-.28.31,1.66,1.71H27.89v.33H32v1H30.05a.53.53,0,0,1,.12.14l.21.3a1.6,1.6,0,0,1,.31.89.8.8,0,0,1-.14.45l-.1.09h-.12a1.39,1.39,0,0,1-.72-.63,3.73,3.73,0,0,1-.43-.9l-.18-.4a.17.17,0,0,1,0-.1v-.06h-.3l-.34.25v.18l.15.41a4.91,4.91,0,0,0,.28.62,1.59,1.59,0,0,0,1.33,1h.32a1.09,1.09,0,0,0,.4-.07.8.8,0,0,0,.53-.73v-.36l-.08-.28-.14-.36a.34.34,0,0,0-.1-.16H32v2.48h.74v-3.8H34l.2.26a1,1,0,0,1,.2.56.69.69,0,0,1-.2.53l-.15.09-.17,0h-.45a1.42,1.42,0,0,0,.47,1.09,1.6,1.6,0,0,0,1,.39h.67a1.66,1.66,0,0,0,.31-.12v1h.74v-3.8H39.7v.8h-2a.82.82,0,0,0-.41.79,2.23,2.23,0,0,0,.32,1.1l.12.2a1.33,1.33,0,0,0,.14.19l.32.36.23.22.1.07h.32l.28-.29c-.18,0-.44-.26-.76-.76-.06-.1-.11-.2-.15-.28a1.88,1.88,0,0,1-.18-.81v-.2a.34.34,0,0,1,.27-.27,1,1,0,0,1,.25,0h1.17v2.66h.75v-3.8h.73v-.33ZM36,73.65l-.18.25-.1.1a.45.45,0,0,1-.14.1l-.21.12a.67.67,0,0,1-.24.07,1,1,0,0,1-.72-.57h0v-.21l.28-.07.2-.08a.9.9,0,0,0,.46-.81V72.3L35,71.94v-.12l-.1-.16H36Z"/></g></svg>